ply
format ascii 1.0
comment VCGLIB generated
element vertex 130
property float x
property float y
property float z
property float nx
property float ny
property float nz
property uchar red
property uchar green
property uchar blue
property uchar alpha
property float texture_u
property float texture_v
element face 124
property list uchar int vertex_indices
end_header
0 -1.92769 1.65958 0.09801736 0 0.9951847 200 200 200 1 1 1
0.323768 1.927691 1.627692 0.1950905 0 0.9807853 200 200 200 1 0.96875 0.5
0 1.927691 1.65958 0.09801738 0 0.9951847 200 200 200 1 1 0.5
0.323768 -1.92769 1.627692 0.1950903 1.594356e-08 0.9807853 200 200 200 1 0.96875 1
0.6350939 1.927691 1.533252 0.3826833 1.62475e-08 0.9238796 200 200 200 1 0.9375 0.5
0.6350939 -1.927691 1.533252 0.3826834 1.766879e-08 0.9238796 200 200 200 1 0.9375 1
0.9220134 1.927691 1.379891 0.5555704 1.452227e-08 0.8314695 200 200 200 1 0.90625 0.5
0.9220134 -1.927691 1.379891 0.5555704 1.240054e-08 0.8314695 200 200 200 1 0.90625 1
1.1735 1.927691 1.1735 0.7071068 1.174011e-08 0.7071068 200 200 200 1 0.875 0.5
1.1735 -1.927691 1.173501 0.7071067 1.900884e-08 0.7071068 200 200 200 1 0.875 1
1.379891 1.927691 0.9220134 0.8314697 1.484822e-08 0.5555702 200 200 200 1 0.84375 0.5
1.379891 -1.927691 0.9220134 0.8314698 9.378263e-09 0.5555701 200 200 200 1 0.84375 1
1.533252 1.927691 0.6350939 0.9238796 6.607138e-09 0.3826833 200 200 200 1 0.8125 0.5
1.533252 -1.927691 0.6350939 0.9238796 4.764744e-09 0.3826833 200 200 200 1 0.8125 1
1.627692 1.927691 0.3237681 0.9807853 2.866518e-09 0.1950905 200 200 200 1 0.78125 0.5
1.627692 -1.927691 0.3237681 0.9807853 1.401638e-09 0.1950905 200 200 200 1 0.78125 1
1.65958 1.927691 1.162171e-07 1 1.966807e-10 2.546905e-07 200 200 200 1 0.75 0.5
1.65958 -1.927691 1.343725e-07 1 -4.302263e-10 1.525164e-07 200 200 200 1 0.75 1
1.627692 1.927691 -0.3237679 0.9807853 -2.794983e-09 -0.1950903 200 200 200 1 0.71875 0.5
1.627692 -1.927691 -0.3237678 0.9807853 -1.071254e-09 -0.1950903 200 200 200 1 0.71875 1
1.533252 1.927691 -0.6350936 0.9238797 -2.390005e-09 -0.3826832 200 200 200 1 0.6875 0.5
1.533252 -1.927691 -0.6350936 0.9238796 -5.314514e-09 -0.3826833 200 200 200 1 0.6875 1
1.379891 1.927691 -0.9220134 0.8314698 -5.819894e-09 -0.5555701 200 200 200 1 0.65625 0.5
1.379891 -1.927691 -0.9220134 0.8314697 -1.654028e-08 -0.5555702 200 200 200 1 0.65625 1
1.1735 1.927691 -1.173501 0.7071068 -1.927476e-08 -0.7071068 200 200 200 1 0.625 0.5
1.1735 -1.927691 -1.1735 0.7071068 -2.435229e-08 -0.7071068 200 200 200 1 0.625 1
0.9220134 1.927691 -1.379891 0.5555704 -2.877575e-08 -0.8314696 200 200 200 1 0.59375 0.5
0.9220134 -1.927691 -1.379891 0.5555704 -1.392514e-08 -0.8314695 200 200 200 1 0.59375 1
0.6350936 1.927691 -1.533252 0.3826832 -1.452227e-08 -0.9238797 200 200 200 1 0.5625 0.5
0.6350936 -1.927691 -1.533252 0.3826833 0 -0.9238796 200 200 200 1 0.5625 1
0.3237676 1.92769 -1.627692 0.19509 0 -0.9807854 200 200 200 1 0.53125 0.5
0.3237676 -1.927691 -1.627692 0.19509 0 -0.9807854 200 200 200 1 0.53125 1
-5.407598e-07 1.92769 -1.65958 -2.004756e-07 0 -1 200 200 200 1 0.5 0.5
-5.407598e-07 -1.927691 -1.65958 -3.908232e-07 -1.638641e-08 -1 200 200 200 1 0.5 1
-0.3237687 1.92769 -1.627692 -0.1950909 -1.757786e-08 -0.9807852 200 200 200 1 0.46875 0.5
-0.3237687 -1.927691 -1.627692 -0.1950908 -1.820669e-08 -0.9807852 200 200 200 1 0.46875 1
-0.6350946 1.927691 -1.533252 -0.382684 -1.575757e-08 -0.9238793 200 200 200 1 0.4375 0.5
-0.6350946 -1.927691 -1.533252 -0.3826838 0 -0.9238794 200 200 200 1 0.4375 1
-0.9220141 1.927691 -1.37989 -0.5555707 0 -0.8314693 200 200 200 1 0.40625 0.5
-0.9220141 -1.927691 -1.37989 -0.5555707 0 -0.8314693 200 200 200 1 0.40625 1
-1.173501 1.927691 -1.1735 -0.7071072 0 -0.7071064 200 200 200 1 0.375 0.5
-1.173501 -1.927691 -1.1735 -0.7071072 -5.314513e-09 -0.7071064 200 200 200 1 0.375 1
-1.379891 1.927691 -0.9220124 -0.83147 -4.401891e-09 -0.5555697 200 200 200 1 0.34375 0.5
-1.379891 -1.927691 -0.9220124 -0.83147 -5.835253e-09 -0.5555697 200 200 200 1 0.34375 1
-1.533253 1.927691 -0.6350925 -0.92388 -3.881151e-09 -0.3826825 200 200 200 1 0.3125 0.5
-1.533253 -1.927691 -0.6350925 -0.92388 -1.771505e-09 -0.3826825 200 200 200 1 0.3125 1
-1.627692 1.927691 -0.3237666 -0.9807855 -9.530176e-10 -0.1950894 200 200 200 1 0.28125 0.5
-1.627692 -1.927691 -0.3237666 -0.9807855 -1.917522e-09 -0.1950894 200 200 200 1 0.28125 1
-1.65958 1.927691 1.593412e-06 -1 -5.750931e-10 8.787566e-07 200 200 200 1 0.25 0.5
-1.65958 -1.927691 1.611567e-06 -1 4.553045e-10 7.57816e-07 200 200 200 1 0.25 1
-1.627692 1.927691 0.3237697 -0.9807851 1.507236e-09 0.1950914 200 200 200 1 0.21875 0.5
-1.627692 -1.927691 0.3237698 -0.9807851 3.192884e-09 0.1950914 200 200 200 1 0.21875 1
-1.533251 1.927691 0.6350957 -0.9238791 5.446433e-09 0.3826845 200 200 200 1 0.1875 0.5
-1.533251 -1.927691 0.6350957 -0.9238791 8.342034e-09 0.3826845 200 200 200 1 0.1875 1
-1.379889 1.927691 0.9220152 -0.8314689 9.70107e-09 0.5555713 200 200 200 1 0.15625 0.5
-1.379889 -1.927691 0.9220152 -0.8314691 1.654027e-08 0.5555711 200 200 200 1 0.15625 1
-1.173499 1.927691 1.173502 -0.7071059 1.927478e-08 0.7071077 200 200 200 1 0.125 0.5
-1.173499 -1.927691 1.173502 -0.7071059 2.435229e-08 0.7071077 200 200 200 1 0.125 1
-0.9220116 1.927691 1.379892 -0.5555694 2.877577e-08 0.8314703 200 200 200 1 0.09375 0.5
-0.9220116 -1.927691 1.379892 -0.5555692 1.392514e-08 0.8314703 200 200 200 1 0.09375 1
-0.6350914 1.927691 1.533253 -0.3826821 1.452227e-08 0.9238801 200 200 200 1 0.0625 0.5
-0.6350914 -1.927691 1.533253 -0.382682 0 0.9238802 200 200 200 1 0.0625 1
-0.3237655 1.927691 1.627693 -0.1950891 0 0.9807855 200 200 200 1 0.03125 0.5
-0.3237655 -1.92769 1.627693 -0.1950892 0 0.9807855 200 200 200 1 0.03125 1
-1.533251 -1.927691 0.6350957 -5.934704e-07 -1 4.752056e-07 200 200 200 1 0.02826902 0.3418443
-0.6350946 -1.927691 -1.533252 -1.979236e-08 -1 3.640739e-07 200 200 200 1 0.1581559 0.02826896
1.533252 -1.927691 -0.6350936 -2.234082e-07 -1 2.552601e-07 200 200 200 1 0.4717311 0.158156
0 1.927691 1.65958 -0.09801651 0 0.9951848 200 200 200 1 0 0.5
1.627692 1.927691 0.3237681 1.013537e-07 1 -1.928537e-07 200 200 200 1 0.9853885 0.2968217
0.3237676 1.92769 -1.627692 -1.603248e-07 1 -1.086168e-07 200 200 200 1 0.7968216 0.01461153
-1.627692 1.927691 -0.3237666 6.408422e-07 1 -2.03448e-07 200 200 200 1 0.5146115 0.2031785
0.6350939 -1.927691 1.533252 8.111901e-08 -1 5.081442e-07 200 200 200 1 0.341844 0.4717311
0.323768 -1.92769 1.627692 4.123789e-07 -1 4.186943e-06 200 200 200 1 0.2968217 0.4853885
0 -1.92769 1.65958 -1.208546e-07 -1 1.506197e-06 200 200 200 1 0.25 0.49
-0.3237655 -1.92769 1.627693 -9.280861e-09 -1 2.733265e-06 200 200 200 1 0.2031787 0.4853885
-0.6350914 -1.927691 1.533253 2.080475e-13 -1 2.827505e-07 200 200 200 1 0.1581563 0.4717312
-0.9220116 -1.927691 1.379892 0 -1 0 200 200 200 1 0.1166634 0.4495529
-1.173499 -1.927691 1.173502 -2.991394e-07 -1 8.198311e-07 200 200 200 1 0.08029459 0.4197058
-1.379889 -1.927691 0.9220152 -4.878278e-06 -1 4.003512e-06 200 200 200 1 0.05044746 0.3833371
-1.627692 -1.927691 0.3237698 -1.231942e-05 -1 2.450499e-06 200 200 200 1 0.01461159 0.2968219
-1.65958 -1.927691 1.611567e-06 -1.751016e-06 -1 3.483008e-07 200 200 200 1 0.01000001 0.2500002
-1.627692 -1.927691 -0.3237666 1.227065e-06 -1 1.838603e-08 200 200 200 1 0.0146115 0.2031785
-1.533253 -1.927691 -0.6350925 9.04851e-08 -1 8.289781e-08 200 200 200 1 0.02826884 0.1581562
-1.379891 -1.927691 -0.9220124 6.349707e-07 -1 7.737131e-07 200 200 200 1 0.0504472 0.1166633
-1.173501 -1.927691 -1.1735 0 -1 0 200 200 200 1 0.08029427 0.08029447
-0.9220141 -1.927691 -1.37989 0 -1 0 200 200 200 1 0.116663 0.05044737
-0.3237687 -1.927691 -1.627692 4.123795e-07 -1 4.186933e-06 200 200 200 1 0.2031782 0.01461156
-5.407598e-07 -1.927691 -1.65958 -1.461994e-07 -1 8.628371e-07 200 200 200 1 0.2499999 0.01000001
0.3237676 -1.927691 -1.627692 -4.123763e-07 -1 4.186935e-06 200 200 200 1 0.2968216 0.01461153
0.6350936 -1.927691 -1.533252 3.891836e-07 -1 -1.246215e-07 200 200 200 1 0.341844 0.02826889
0.9220134 -1.927691 -1.379891 0 -1 0 200 200 200 1 0.3833368 0.05044729
1.1735 -1.927691 -1.1735 -3.335868e-07 -1 4.626102e-07 200 200 200 1 0.4197056 0.08029439
1.379891 -1.927691 -0.9220134 -1.626094e-06 -1 1.334502e-06 200 200 200 1 0.4495527 0.1166632
1.627692 -1.927691 -0.3237678 -4.106477e-06 -1 8.16829e-07 200 200 200 1 0.4853885 0.2031783
1.65958 -1.927691 1.343725e-07 -4.157987e-06 -1 8.27075e-07 200 200 200 1 0.49 0.25
1.627692 -1.927691 0.3237681 3.681193e-06 -1 5.516234e-08 200 200 200 1 0.4853885 0.2968217
1.533252 -1.927691 0.6350939 -3.781998e-07 -1 1.334511e-07 200 200 200 1 0.4717311 0.341844
1.379891 -1.927691 0.9220134 4.878286e-06 -1 4.003508e-06 200 200 200 1 0.4495527 0.3833368
1.1735 -1.927691 1.173501 1.506865e-07 -1 3.377803e-07 200 200 200 1 0.4197056 0.4197056
0.9220134 -1.927691 1.379891 0 -1 0 200 200 200 1 0.3833368 0.4495527
0 -1.92769 1.65958 -0.0980165 0 0.9951848 200 200 200 1 0 1
-0.3237655 1.927691 1.627693 -1.14507e-07 1 -1.046185e-07 200 200 200 1 0.7031787 0.4853885
0 1.927691 1.65958 0 1 0 200 200 200 1 0.75 0.49
0.323768 1.927691 1.627692 6.61074e-08 1 -8.820754e-07 200 200 200 1 0.7968217 0.4853885
0.6350939 1.927691 1.533252 1.983258e-06 1 3.710417e-06 200 200 200 1 0.841844 0.4717311
0.9220134 1.927691 1.379891 2.697312e-07 1 1.768404e-07 200 200 200 1 0.8833368 0.4495527
1.1735 1.927691 1.1735 0 1 0 200 200 200 1 0.9197056 0.4197056
1.379891 1.927691 0.9220134 -9.663512e-07 1 -9.66351e-07 200 200 200 1 0.9495527 0.3833368
1.533252 1.927691 0.6350939 1.030483e-06 1 6.664325e-07 200 200 200 1 0.9717311 0.341844
1.65958 1.927691 1.162171e-07 -4.18693e-06 1 -8.247545e-07 200 200 200 1 0.99 0.25
1.627692 1.927691 -0.3237679 6.588537e-06 1 -8.247522e-07 200 200 200 1 0.9853885 0.2031783
1.533252 1.927691 -0.6350936 -2.226207e-06 1 8.001947e-08 200 200 200 1 0.9717311 0.158156
1.379891 1.927691 -0.9220134 -3.132144e-07 1 -2.887134e-07 200 200 200 1 0.9495527 0.1166632
1.1735 1.927691 -1.173501 -5.825832e-07 1 5.020157e-07 200 200 200 1 0.9197056 0.08029439
0.9220134 1.927691 -1.379891 -9.372816e-07 1 1.185207e-06 200 200 200 1 0.8833368 0.05044729
0.6350936 1.927691 -1.533252 -1.983252e-06 1 3.710404e-06 200 200 200 1 0.841844 0.02826889
-5.407598e-07 1.92769 -1.65958 0 1 0 200 200 200 1 0.7499999 0.01000001
-0.3237687 1.92769 -1.627692 1.48397e-07 1 1.483251e-08 200 200 200 1 0.7031782 0.01461156
-0.6350946 1.927691 -1.533252 1.98326e-06 1 3.710416e-06 200 200 200 1 0.6581559 0.02826896
-0.9220141 1.927691 -1.37989 6.009845e-07 1 4.810715e-07 200 200 200 1 0.616663 0.05044737
-1.173501 1.927691 -1.1735 0 1 0 200 200 200 1 0.5802943 0.08029447
-1.379891 1.927691 -0.9220124 3.868213e-07 1 1.602262e-07 200 200 200 1 0.5504472 0.1166633
-1.533253 1.927691 -0.6350925 1.160463e-05 1 4.806781e-06 200 200 200 1 0.5282688 0.1581562
-1.65958 1.927691 1.593412e-06 4.18692e-06 1 -8.247564e-07 200 200 200 1 0.51 0.2500002
-1.627692 1.927691 0.3237697 4.599843e-07 1 -6.145791e-07 200 200 200 1 0.5146116 0.2968219
-1.533251 1.927691 0.6350957 -3.868224e-06 1 1.602276e-06 200 200 200 1 0.5282691 0.3418443
-1.379889 1.927691 0.9220152 -4.879054e-07 1 2.248526e-07 200 200 200 1 0.5504475 0.3833371
-1.173499 1.927691 1.173502 -5.825826e-07 1 5.020164e-07 200 200 200 1 0.5802946 0.4197058
-0.9220116 1.927691 1.379892 -9.372808e-07 1 1.18521e-06 200 200 200 1 0.6166634 0.4495529
-0.6350914 1.927691 1.533253 -1.983245e-06 1 3.710401e-06 200 200 200 1 0.6581563 0.4717312
3 0 1 2 
3 3 4 1 
3 5 6 4 
3 7 8 6 
3 9 10 8 
3 11 12 10 
3 13 14 12 
3 15 16 14 
3 17 18 16 
3 19 20 18 
3 21 22 20 
3 23 24 22 
3 25 26 24 
3 27 28 26 
3 29 30 28 
3 31 32 30 
3 33 34 32 
3 35 36 34 
3 37 38 36 
3 39 40 38 
3 41 42 40 
3 43 44 42 
3 45 46 44 
3 47 48 46 
3 49 50 48 
3 51 52 50 
3 53 54 52 
3 55 56 54 
3 57 58 56 
3 59 60 58 
3 64 65 66 
3 61 62 60 
3 63 67 62 
3 68 69 70 
3 0 3 1 
3 3 5 4 
3 5 7 6 
3 7 9 8 
3 9 11 10 
3 11 13 12 
3 13 15 14 
3 15 17 16 
3 17 19 18 
3 19 21 20 
3 21 23 22 
3 23 25 24 
3 25 27 26 
3 27 29 28 
3 29 31 30 
3 31 33 32 
3 33 35 34 
3 35 37 36 
3 37 39 38 
3 39 41 40 
3 41 43 42 
3 43 45 44 
3 45 47 46 
3 47 49 48 
3 49 51 50 
3 51 53 52 
3 53 55 54 
3 55 57 56 
3 57 59 58 
3 59 61 60 
3 71 72 73 
3 73 74 71 
3 74 75 71 
3 75 76 77 
3 77 78 64 
3 64 79 80 
3 80 81 64 
3 81 82 64 
3 82 83 65 
3 83 84 65 
3 84 85 65 
3 65 86 87 
3 87 88 89 
3 89 90 91 
3 91 92 66 
3 66 93 94 
3 94 95 66 
3 95 96 66 
3 96 97 98 
3 98 99 71 
3 75 77 71 
3 77 64 71 
3 65 87 66 
3 87 89 66 
3 89 91 66 
3 96 98 66 
3 98 71 66 
3 64 82 65 
3 71 64 66 
3 61 63 62 
3 63 100 67 
3 101 102 103 
3 103 104 105 
3 105 106 107 
3 107 108 105 
3 108 68 105 
3 68 109 110 
3 110 111 68 
3 111 112 68 
3 112 113 69 
3 113 114 69 
3 114 115 69 
3 69 116 117 
3 117 118 119 
3 119 120 121 
3 121 122 70 
3 70 123 124 
3 124 125 126 
3 126 127 101 
3 127 128 101 
3 128 129 101 
3 101 103 105 
3 69 117 70 
3 117 119 70 
3 119 121 70 
3 70 124 101 
3 124 126 101 
3 101 105 68 
3 68 112 69 
3 101 68 70 
