ply
format ascii 1.0
comment VCGLIB generated
element vertex 4
property float x
property float y
property float z
property float nx
property float ny
property float nz
property uchar red
property uchar green
property uchar blue
property uchar alpha
property float texture_u
property float texture_v
element face 2
property list uchar int vertex_indices
end_header
-9999.997 0.003059797 -10000 -1.682641e-15 1 3.059797e-07 255 255 255 255 0 0
-9999.999 -0.003059796 9999.998 -2.910384e-15 1 3.059797e-07 255 255 255 255 1 0
9999.997 -0.003059797 10000 -1.682641e-15 1 3.059797e-07 255 255 255 255 1 1
9999.999 0.003059796 -9999.998 -4.54898e-16 1 3.059797e-07 255 255 255 255 0 1
3 0 1 2 
3 0 2 3 
