ply
format ascii 1.0
comment VCGLIB generated
element vertex 4
property float x
property float y
property float z
property float nx
property float ny
property float nz
property uchar red
property uchar green
property uchar blue
property uchar alpha
property float texture_u
property float texture_v
element face 2
property list uchar int vertex_indices
end_header
-99.99997 3.059797e-05 -100 -1.682641e-15 1 3.059797e-07 255 255 255 255 0 0
-99.99999 -3.059796e-05 99.99998 -2.910384e-15 1 3.059797e-07 255 255 255 255 1 0
99.99997 -3.059797e-05 100 -1.682641e-15 1 3.059797e-07 255 255 255 255 1 1
99.99999 3.059796e-05 -99.99998 -4.54898e-16 1 3.059797e-07 255 255 255 255 0 1
3 0 1 2 
3 0 2 3 
