ply
format ascii 1.0
comment VCGLIB generated
comment TextureFile dummy.png
element vertex 461
property float x
property float y
property float z
property float nx
property float ny
property float nz
property uchar red
property uchar green
property uchar blue
property uchar alpha
property float texture_u
property float texture_v
element face 208
property list uchar int vertex_indices
end_header
-6.31985 24.4423 -1.950065 6.017956e-06 -5.635343e-06 -1 255 255 255 255 0.346464 0.775611
-6.31985 20.00845 -1.95004 6.017956e-06 -5.635343e-06 -1 255 255 255 255 0.312443 0.775611
-8.6072 21.99965 -1.950065 6.017956e-06 -5.635343e-06 -1 255 255 255 255 0.327721 0.75806
-7.5e-07 24.4423 -1.950065 0 -5.635343e-06 -1 255 255 255 255 0.346464 0.824103
-6.31985 20.00845 -1.95004 0 -5.635343e-06 -1 255 255 255 255 0.312443 0.775611
-6.31985 24.4423 -1.950065 0 -5.635343e-06 -1 255 255 255 255 0.346464 0.775611
-6.59925 25 -1.52707 -0.241506 0.2920893 -0.9253965 255 255 255 255 0.100189 0.781154
-8.6072 21.99965 -1.950065 -0.241506 0.2920893 -0.9253965 255 255 255 255 0.077167 0.765747
-9.95505 22.22535 -1.52707 -0.241506 0.2920893 -0.9253965 255 255 255 255 0.078899 0.755405
-8.6072 21.99965 -1.950065 -0.3348244 -0.4049608 -0.8508229 255 255 255 255 0.077167 0.765747
-6.59925 19.45075 -1.52707 -0.3348244 -0.4049608 -0.8508229 255 255 255 255 0.057609 0.781154
-9.95505 22.22535 -1.52707 -0.3348244 -0.4049608 -0.8508229 255 255 255 255 0.078899 0.755405
-6.31985 20.00845 -1.95004 0 -0.6042845 -0.7967687 255 255 255 255 0.061888 0.783298
-7.5e-07 19.45075 -1.52707 0 -0.6042845 -0.7967687 255 255 255 255 0.057609 0.83179
-6.59925 19.45075 -1.52707 0 -0.6042845 -0.7967687 255 255 255 255 0.057609 0.781154
-8e-07 25 -1.52707 0 0.6043072 -0.7967514 255 255 255 255 0.100189 0.83179
-6.31985 24.4423 -1.950065 0 0.6043072 -0.7967514 255 255 255 255 0.095909 0.783298
-6.59925 25 -1.52707 0 0.6043072 -0.7967514 255 255 255 255 0.100189 0.781154
-7.5e-07 20.00845 -1.95004 1 4.505448e-09 6.504207e-08 255 255 255 255 0.044004 0.953193
-8e-07 25 -1.52707 1 4.505448e-09 6.504207e-08 255 255 255 255 0.040759 0.991493
-7.5e-07 19.45075 -1.52707 1 9.010231e-09 1.188028e-08 255 255 255 255 0.040759 0.948914
-13.9491 22.08575 -1.950065 6.910326e-06 5.173257e-06 -1 255 255 255 255 0.445734 0.961998
-11.05095 22.08575 -1.950045 6.910326e-06 5.173257e-06 -1 255 255 255 255 0.423497 0.961998
-12.6405 20.33775 -1.950065 6.910326e-06 5.173257e-06 -1 255 255 255 255 0.435694 0.948586
-13.9491 22.08575 -1.950065 6.910326e-06 0 -1 255 255 255 255 0.445734 0.961998
-11.05095 25 -1.950045 6.910326e-06 0 -1 255 255 255 255 0.423497 0.984359
-11.05095 22.08575 -1.950045 6.910326e-06 0 -1 255 255 255 255 0.423497 0.961998
-14.3136 21.8767 -1.52707 -0.5517823 -0.3985157 -0.7326128 255 255 255 255 0.197976 0.968081
-12.6405 20.33775 -1.950065 -0.5517823 -0.3985157 -0.7326128 255 255 255 255 0.185139 0.956273
-12.5 19.3656 -1.52707 -0.5517823 -0.3985157 -0.7326128 255 255 255 255 0.184061 0.948814
-12.6405 20.33775 -1.950065 0.4267971 -0.3082472 -0.8501929 255 255 255 255 0.185139 0.956273
-10.6864 21.8767 -1.52707 0.4267971 -0.3082472 -0.8501929 255 255 255 255 0.170145 0.968081
-12.5 19.3656 -1.52707 0.4267971 -0.3082472 -0.8501929 255 255 255 255 0.184061 0.948814
-11.05095 22.08575 -1.950045 0.757484 0 -0.6528537 255 255 255 255 0.172942 0.969686
-10.6864 25 -1.52707 0.757484 0 -0.6528537 255 255 255 255 0.170145 0.992047
-10.6864 21.8767 -1.52707 0.757484 0 -0.6528538 255 255 255 255 0.170145 0.968081
-14.3136 25 -1.52707 -0.7575432 0 -0.6527851 255 255 255 255 0.197976 0.992047
-13.9491 22.08575 -1.950065 -0.7575432 0 -0.6527851 255 255 255 255 0.195179 0.969686
-14.3136 21.8767 -1.52707 -0.7575432 0 -0.6527851 255 255 255 255 0.197976 0.968081
-11.05095 25 -1.950045 0 1 0 255 255 255 255 0.073243 0.973949
-14.3136 25 -1.52707 0 1 0 255 255 255 255 0.076489 0.948914
-10.6864 25 -1.52707 0 1 0 255 255 255 255 0.076489 0.976746
-18.7061 20.0084 -1.950065 -3.799625e-06 4.516827e-06 -1 255 255 255 255 0.329073 0.922177
-18.7061 24.4423 -1.950045 -3.799625e-06 4.516827e-06 -1 255 255 255 255 0.363094 0.922177
-16.26065 22.06555 -1.950065 -3.799625e-06 4.516827e-06 -1 255 255 255 255 0.344857 0.940942
-18.7061 20.0084 -1.950065 0 4.516827e-06 -1 255 255 255 255 0.329073 0.922177
-19.25115 20.0084 -1.950065 3.897694e-07 5.022189e-06 -1 255 255 255 255 0.329073 0.917995
-18.7061 24.4423 -1.950045 0 4.516827e-06 -1 255 255 255 255 0.363094 0.922177
-25 24.4423 -1.950045 -8.687425e-08 4.77913e-06 -1 255 255 255 255 0.363094 0.873884
-22.14015 20.56835 -1.950065 -1.737485e-07 5.041435e-06 -1 255 255 255 255 0.333369 0.895828
-23.63525 20.0084 -1.950065 -7.584026e-07 4.283391e-06 -1 255 255 255 255 0.329073 0.884356
-25 20.0084 -1.950065 0 4.516827e-06 -1 255 255 255 255 0.329073 0.873884
-18.42665 19.45075 -1.52707 0.3532659 -0.4272653 -0.8322545 255 255 255 255 0.074239 0.932009
-16.26065 22.06555 -1.950065 0.3532659 -0.4272653 -0.8322545 255 255 255 255 0.094302 0.948629
-15.07085 22.22535 -1.52707 0.3532659 -0.4272653 -0.8322545 255 255 255 255 0.095529 0.957759
-16.26065 22.06555 -1.950065 0.2757243 0.3334747 -0.901538 255 255 255 255 0.094302 0.948629
-18.42665 25 -1.52707 0.2757243 0.3334747 -0.901538 255 255 255 255 0.116819 0.932009
-15.07085 22.22535 -1.52707 0.2757243 0.3334747 -0.901538 255 255 255 255 0.095529 0.957759
-18.7061 24.4423 -1.950045 0 0.6042891 -0.7967653 255 255 255 255 0.112539 0.929865
-25 25 -1.52707 0 0.6042891 -0.7967653 255 255 255 255 0.116819 0.881572
-18.42665 25 -1.52707 0 0.604289 -0.7967653 255 255 255 255 0.116819 0.932009
-25 20.0084 -1.950065 0 -0.6043419 -0.7967252 255 255 255 255 0.078518 0.881572
-23.63525 20.0084 -1.950065 2.111465e-06 -0.6043451 -0.7967227 255 255 255 255 0.078518 0.892044
-25 19.45075 -1.52707 2.111465e-06 -0.6043451 -0.7967227 255 255 255 255 0.074239 0.881572
-18.7061 20.0084 -1.950065 0 -0.6043418 -0.7967252 255 255 255 255 0.078518 0.929865
-18.42665 19.45075 -1.52707 -2.03152e-06 -0.6043438 -0.7967237 255 255 255 255 0.074239 0.932009
-19.25115 20.0084 -1.950065 -2.03152e-06 -0.6043438 -0.7967237 255 255 255 255 0.078518 0.925683
-21.64545 19.70215 -1.71775 7.994527e-08 -0.6043471 -0.7967212 255 255 255 255 0.076168 0.907312
-18.42665 19.45075 -1.52707 0 -0.6043126 -0.7967473 255 255 255 255 0.074239 0.932009
-25 19.45075 -1.52707 0 -0.6043126 -0.7967473 255 255 255 255 0.074239 0.881572
-21.64545 19.70215 -1.71775 0 -0.6043126 -0.7967473 255 255 255 255 0.076168 0.907312
-25 24.4423 -1.950045 -1 0 0 255 255 255 255 0.046946 0.987214
-25 19.45075 -1.52707 -1 0 0 255 255 255 255 0.050192 0.948914
-25 25 -1.52707 -1 0 0 255 255 255 255 0.050192 0.991493
-8e-07 25 -1.52707 8.394227e-08 -2.888271e-08 -1 255 255 255 255 0.202205 0.947874
-2.832315 16.7684 -1.52707 -1.423328e-06 -4.413637e-07 -1 255 255 255 255 0.139044 0.926142
-4.38173 18.2133 -1.52707 0 0 -1 255 255 255 255 0.150131 0.914253
-4.38173 18.2133 -1.52707 -0.5708454 -0.6228211 -0.5350041 255 255 255 255 0.154362 0.895156
-3.152375 16.5005 -0.84484 -0.5708454 -0.6228211 -0.5350041 255 255 255 255 0.159596 0.882013
-4.650495 17.8736 -0.84484 -0.5708454 -0.6228211 -0.5350041 255 255 255 255 0.159596 0.892549
-16.3299 17.8736 -0.84484 0 0 0 255 255 255 255 0.070743 0.961466
-16.3299 17.8736 -0.84484 0 0 0 255 255 255 255 0.070743 0.961466
-13.22365 18.2133 -1.52707 0 0 0 255 255 255 255 0.065509 0.9853
-20.61825 18.2133 -1.52707 0.5829693 -0.6251525 -0.5189712 255 255 255 255 0.151927 0.895156
-21.84765 16.5005 -0.84484 0.5829693 -0.6251525 -0.5189712 255 255 255 255 0.146692 0.882013
-22.1677 16.7684 -1.52707 0.5829693 -0.6251525 -0.5189712 255 255 255 255 0.151927 0.884069
-22.1677 -2.5e-07 -1.527065 0 -1 1.465792e-07 255 255 255 255 0.109053 0.970646
-21.84765 -1.5e-07 -0.84484 9.980933e-10 -1 1.626134e-07 255 255 255 255 0.103818 0.973102
-25 -2.5e-07 -1.527065 -1.854004e-09 -1 1.55146e-07 255 255 255 255 0.109053 0.948914
-3.152375 -1.5e-07 -0.84484 -9.980859e-10 -1 1.626134e-07 255 255 255 255 0.130115 0.948914
-2.832315 -2.5e-07 -1.527065 0 -1 1.465792e-07 255 255 255 255 0.135349 0.95137
-7.5e-07 -2.5e-07 -1.527065 1.853995e-09 -1 1.55146e-07 255 255 255 255 0.135349 0.973102
-22.1677 16.7684 -1.52707 1.247971e-06 -4.117433e-07 -1 255 255 255 255 0.139044 0.777781
-25.01295 25 -1.52707 -1.952674e-07 -6.749413e-08 -1 255 255 255 255 0.202205 0.755949
-20.61825 18.2133 -1.52707 0 0 -1 255 255 255 255 0.150131 0.78967
-17.96575 18.2133 -1.52707 0 0 -1 255 255 255 255 0.150131 0.810023
-15.8852 18.68905 -1.52707 0 0 -1 255 255 255 255 0.153781 0.825987
-13.22365 18.2133 -1.52707 0 0 -1 255 255 255 255 0.150131 0.846409
-8e-07 25 1.52706 0 1 0 255 255 255 255 0.228797 0.947874
-25.01295 25 -1.52707 0 1 0 255 255 255 255 0.205363 0.755949
-25.01295 25 1.52706 0 1 0 255 255 255 255 0.228797 0.755949
-25 2.5e-07 1.527065 9.980933e-10 -1 1.626134e-07 255 255 255 255 0.085618 0.948914
-6.31985 24.4423 1.95006 5.417749e-06 -5.635343e-06 1 255 255 255 255 0.283363 0.853581
-8.696 22.1579 1.95006 5.417749e-06 -5.635343e-06 1 255 255 255 255 0.300891 0.835348
-6.31985 20.00845 1.950035 5.417749e-06 -5.635343e-06 1 255 255 255 255 0.317384 0.853581
-6.31985 24.4423 1.95006 0 -5.635343e-06 1 255 255 255 255 0.283363 0.853581
-6.31985 20.00845 1.950035 0 -5.635343e-06 1 255 255 255 255 0.317384 0.853581
-7.5e-07 24.4423 1.95006 -4.689695e-08 -5.508386e-06 1 255 255 255 255 0.283363 0.902072
-5.30435 20.00845 1.950035 -2.833807e-07 -5.296326e-06 1 255 255 255 255 0.317384 0.861372
-2.96886 20.7418 1.95004 -1.172424e-07 -5.317952e-06 1 255 255 255 255 0.311757 0.879292
-7.5e-07 20.00845 1.950035 0 -5.635343e-06 1 255 255 255 255 0.317384 0.902072
-0.577145 20.00845 1.950035 1.661383e-07 -5.656969e-06 1 255 255 255 255 0.317384 0.897644
-6.59925 25 1.52706 -0.4012668 0.4173829 0.8153383 255 255 255 255 0.028529 0.859124
-8.696 22.1579 1.95006 -0.4012668 0.4173829 0.8153383 255 255 255 255 0.050336 0.843036
-6.31985 24.4423 1.95006 -0.4012668 0.4173829 0.8153383 255 255 255 255 0.032808 0.861268
-6.59925 19.45075 1.52706 -0.3129379 -0.3784897 0.8711001 255 255 255 255 0.071109 0.859124
-8.696 22.1579 1.95006 -0.3129379 -0.3784897 0.8711001 255 255 255 255 0.050336 0.843036
-9.95505 22.22535 1.52706 -0.3129379 -0.3784897 0.8711001 255 255 255 255 0.049819 0.833375
-7.5e-07 20.00845 1.950035 0 -0.6042891 0.7967651 255 255 255 255 0.066829 0.90976
-0.577145 20.00845 1.950035 0 -0.6042891 0.7967651 255 255 255 255 0.066829 0.905332
-7.5e-07 19.45075 1.52706 0 -0.6042891 0.7967651 255 255 255 255 0.071109 0.90976
-6.31985 20.00845 1.950035 0 -0.6042891 0.7967651 255 255 255 255 0.066829 0.861268
-6.59925 19.45075 1.52706 0 -0.6042891 0.7967651 255 255 255 255 0.071109 0.859124
-5.30435 20.00845 1.950035 0 -0.6042891 0.7967651 255 255 255 255 0.066829 0.86906
-0.577145 20.00845 1.950035 2.300042e-06 -0.6042876 0.7967663 255 255 255 255 0.066829 0.905332
-3.22185 19.71915 1.73063 -7.928543e-08 -0.6042866 0.7967671 255 255 255 255 0.069049 0.885039
-7.5e-07 19.45075 1.52706 2.300042e-06 -0.6042876 0.7967663 255 255 255 255 0.071109 0.90976
-7.5e-07 19.45075 1.52706 0 -0.6043052 0.796753 255 255 255 255 0.071109 0.90976
-3.22185 19.71915 1.73063 0 -0.6043052 0.796753 255 255 255 255 0.069049 0.885039
-6.59925 19.45075 1.52706 0 -0.6043052 0.796753 255 255 255 255 0.071109 0.859124
-6.59925 19.45075 1.52706 -2.458613e-06 -0.6042855 0.796768 255 255 255 255 0.071109 0.859124
-5.30435 20.00845 1.950035 -2.458613e-06 -0.6042855 0.796768 255 255 255 255 0.066829 0.86906
-8e-07 25 1.52706 0 0.6043118 0.796748 255 255 255 255 0.028529 0.90976
-6.31985 24.4423 1.95006 0 0.6043118 0.796748 255 255 255 255 0.032808 0.861268
-7.5e-07 24.4423 1.95006 0 0.6043118 0.796748 255 255 255 255 0.032808 0.90976
-7.5e-07 20.00845 1.950035 1 4.505448e-09 -6.50413e-08 255 255 255 255 0.053134 0.953193
-8e-07 25 1.52706 1 4.505448e-09 -6.50413e-08 255 255 255 255 0.056379 0.991493
-7.5e-07 24.4423 1.95006 1 6.661114e-13 -1.182025e-07 255 255 255 255 0.053134 0.987214
-13.9491 22.08575 1.95006 8.621454e-06 6.925001e-06 1 255 255 255 255 0.476671 0.963487
-12.56855 20.367 1.95006 8.621454e-06 6.925001e-06 1 255 255 255 255 0.466079 0.976676
-11.05095 22.08575 1.950035 8.621454e-06 6.925001e-06 1 255 255 255 255 0.454434 0.963487
-13.9491 22.08575 1.95006 8.621454e-06 0 1 255 255 255 255 0.476671 0.963487
-11.05095 25 1.950035 8.621454e-06 0 1 255 255 255 255 0.454434 0.941126
-13.9491 25 1.95006 8.621454e-06 0 1 255 255 255 255 0.476671 0.941126
-14.3136 21.8767 1.52706 -0.5564653 -0.446969 0.7004035 255 255 255 255 0.037653 0.97278
-12.56855 20.367 1.95006 -0.5564653 -0.446969 0.7004035 255 255 255 255 0.024263 0.984363
-13.9491 22.08575 1.95006 -0.5564653 -0.446969 0.7004035 255 255 255 255 0.034856 0.971175
-10.6864 21.8767 1.52706 0.4460794 -0.3221735 0.8349954 255 255 255 255 0.009821 0.97278
-12.56855 20.367 1.95006 0.4460794 -0.3221735 0.8349954 255 255 255 255 0.024263 0.984363
-12.5 19.3656 1.52706 0.4460794 -0.3221735 0.8349954 255 255 255 255 0.023737 0.992047
-10.6864 25 1.52706 0.7574841 0 0.6528537 255 255 255 255 0.009821 0.948814
-11.05095 22.08575 1.950035 0.7574841 0 0.6528537 255 255 255 255 0.012619 0.971175
-10.6864 21.8767 1.52706 0.757484 0 0.6528537 255 255 255 255 0.009821 0.97278
-14.3136 25 1.52706 -0.7575471 0 0.6527806 255 255 255 255 0.037653 0.948814
-13.9491 22.08575 1.95006 -0.7575471 0 0.6527806 255 255 255 255 0.034856 0.971175
-13.9491 25 1.95006 -0.7575471 0 0.6527806 255 255 255 255 0.034856 0.948814
-11.05095 25 1.950035 0 1 0 255 255 255 255 0.082676 0.973949
-14.3136 25 1.52706 0 1 0 255 255 255 255 0.079431 0.948914
-13.9491 25 1.95006 0 1 0 255 255 255 255 0.082676 0.951711
-18.56725 19.73125 1.739845 -0.06755418 -0.2146183 0.974359 255 255 255 255 0.160299 0.946099
-18.0746 20.53055 1.95006 -0.06755418 -0.2146183 0.974359 255 255 255 255 0.154166 0.949879
-18.7061 20.7293 1.950055 -0.06755418 -0.2146183 0.974359 255 255 255 255 0.152641 0.945033
-18.56725 19.73125 1.739845 0.08391871 -0.1941793 0.97737 255 255 255 255 0.160299 0.946099
-18.7061 20.7293 1.950055 0.08391871 -0.1941793 0.97737 255 255 255 255 0.152641 0.945033
-20.37425 20.0084 1.95006 0.08391871 -0.1941793 0.97737 255 255 255 255 0.158172 0.932234
-18.42665 25 1.52706 0.3639686 0.4402016 0.8208225 255 255 255 255 0.119872 0.947177
-16.0248 22.22535 1.95006 0.3639686 0.4402016 0.8208225 255 255 255 255 0.141162 0.965607
-15.07085 22.22535 1.52706 0.3639686 0.4402016 0.8208225 255 255 255 255 0.141162 0.972926
-25 25 1.52706 0 0.6042891 0.7967651 255 255 255 255 0.119872 0.89674
-18.7061 24.4423 1.950035 0 0.6042891 0.7967651 255 255 255 255 0.124151 0.945033
-18.42665 25 1.52706 0 0.6042892 0.7967651 255 255 255 255 0.119872 0.947177
-25 24.4423 1.950035 -1 0 0 255 255 255 255 0.062567 0.987214
-25 19.45075 1.52706 -1 0 0 255 255 255 255 0.059321 0.948914
-25 20.0084 1.95006 -1 0 0 255 255 255 255 0.062567 0.953193
-8e-07 25 1.52706 -2.744667e-07 4.960696e-07 1 255 255 255 255 0.040708 0.94733
-4.38173 18.2133 1.52706 -6.659312e-07 4.299482e-07 1 255 255 255 255 0.092783 0.913709
-2.832315 16.7684 1.527065 -2.744667e-07 4.960696e-07 1 255 255 255 255 0.10387 0.925597
-4.38173 18.2133 1.52706 -0.5829746 -0.6251419 0.5189781 255 255 255 255 0.177796 0.895156
-3.152375 16.5005 0.844835 -0.5829746 -0.6251419 0.5189781 255 255 255 255 0.172561 0.882013
-2.832315 16.7684 1.527065 -0.5829746 -0.6251419 0.5189781 255 255 255 255 0.177796 0.884069
-21.84765 16.5005 0.844835 0.5829701 -0.6251516 0.5189714 255 255 255 255 0.133727 0.882013
-20.61825 18.2133 1.52706 0.5829701 -0.6251516 0.5189714 255 255 255 255 0.128493 0.895156
-22.1677 16.7684 1.527065 0.5829701 -0.6251516 0.5189714 255 255 255 255 0.128493 0.884069
-22.1677 2.5e-07 1.527065 0 -1 1.465792e-07 255 255 255 255 0.085618 0.970646
-21.84765 1.5e-07 0.84484 3.351144e-09 -1 1.620638e-07 255 255 255 255 0.090853 0.973102
-3.152375 1.5e-07 0.84484 -3.351123e-09 -1 1.620638e-07 255 255 255 255 0.11715 0.948914
-7.5e-07 2.5e-07 1.527065 -9.980859e-10 -1 1.626134e-07 255 255 255 255 0.111915 0.973102
-2.832315 2.5e-07 1.527065 0 -1 1.465792e-07 255 255 255 255 0.111915 0.95137
-22.1677 16.7684 1.527065 2.749119e-07 4.966549e-07 1 255 255 255 255 0.10387 0.777237
-20.61825 18.2133 1.52706 9.977723e-07 6.461035e-07 1 255 255 255 255 0.092783 0.789126
-25.01295 25 1.52706 1.178194e-07 2.128521e-07 1 255 255 255 255 0.040708 0.755405
-13.10745 18.2133 1.52706 0 0 1 255 255 255 255 0.092783 0.846757
-15.1989 18.5706 1.52706 0 0 1 255 255 255 255 0.090041 0.830709
-18.46085 18.2133 1.52706 0 0 1 255 255 255 255 0.092783 0.805679
-4.38173 18.2133 1.52706 0 -0.8951672 0.4457306 255 255 255 255 0.102623 0.879988
-13.10745 18.2133 1.52706 -2.12239e-06 -0.8951777 0.4457095 255 255 255 255 0.102623 0.813036
-4.650495 17.8736 0.844835 -2.12239e-06 -0.8951777 0.4457095 255 255 255 255 0.107858 0.877926
-20.61825 18.2133 1.52706 0 -0.8951672 0.4457306 255 255 255 255 0.102623 0.755405
-20.3495 17.8736 0.844835 0 -0.8951672 0.4457306 255 255 255 255 0.107858 0.757467
-18.46085 18.2133 1.52706 0 -0.8951672 0.4457306 255 255 255 255 0.102623 0.771959
-18.46085 18.2133 1.52706 7.877097e-06 -0.8951759 0.4457131 255 255 255 255 0.102623 0.771959
-20.3495 17.8736 0.844835 7.877097e-06 -0.8951759 0.4457131 255 255 255 255 0.107858 0.757467
-15.48215 17.99705 1.09269 7.877097e-06 -0.8951759 0.4457131 255 255 255 255 0.105956 0.794815
-20.3495 17.8736 0.844835 0 -0.8951142 0.4458371 255 255 255 255 0.107858 0.757467
-4.650495 17.8736 0.844835 0 -0.8951142 0.4458371 255 255 255 255 0.107858 0.877926
-15.48215 17.99705 1.09269 0 -0.8951142 0.4458371 255 255 255 255 0.105956 0.794815
-15.48215 17.99705 1.09269 -4.24478e-06 -0.8951882 0.4456884 255 255 255 255 0.105956 0.794815
-3.152375 16.5005 0.844835 -0.6756771 -0.7371978 0 255 255 255 255 0.172561 0.882013
-4.650495 17.8736 -0.84484 -0.6756771 -0.7371978 0 255 255 255 255 0.159596 0.892549
-3.152375 16.5005 -0.84484 -0.6756771 -0.7371978 0 255 255 255 255 0.159596 0.882013
-20.3495 17.8736 0.844835 0.6756696 -0.7372047 0 255 255 255 255 0.133727 0.892549
-21.84765 16.5005 -0.84484 0.6756696 -0.7372047 0 255 255 255 255 0.146692 0.882013
-20.3495 17.8736 -0.84484 0.6756696 -0.7372047 0 255 255 255 255 0.146692 0.892549
-20.3495 17.8736 -0.84484 0 -1 0 255 255 255 255 0.120823 0.757467
-16.3299 17.8736 -0.84484 0 -1 0 255 255 255 255 0.120823 0.78831
-20.3495 17.8736 0.844835 0 -1 0 255 255 255 255 0.107858 0.757467
-4.650495 17.8736 0.844835 0 -1 0 255 255 255 255 0.107858 0.877926
-4.650495 17.8736 -0.84484 0 -1 0 255 255 255 255 0.120823 0.877926
-21.84765 8.51925 -0.84484 0.9053501 0 -0.4246659 255 255 255 255 0.146692 0.820774
-21.84765 -1.5e-07 -0.84484 0.9053347 -5.23069e-07 -0.4246989 255 255 255 255 0.146692 0.755405
-21.94745 8.515201 -1.057605 0.9053373 8.040203e-08 -0.4246933 255 255 255 255 0.148325 0.820742
-22.1677 -2.5e-07 -1.527065 0.9053278 0 -0.4247135 255 255 255 255 0.151927 0.755405
-22.1677 2.025825 -1.527065 0.9053269 -7.846035e-07 -0.4247154 255 255 255 255 0.151927 0.770949
-25 -2.5e-07 -1.527065 7.487823e-07 -2.47046e-07 -1 255 255 255 255 0.01038 0.756049
-22.1677 11.8742 -1.527065 2.164857e-06 -5.163737e-07 -1 255 255 255 255 0.101491 0.777781
-22.46445 8.634851 -1.527065 0 0 -1 255 255 255 255 0.076635 0.775504
-22.1677 -2.5e-07 -1.527065 0 0 -1 255 255 255 255 0.01038 0.777781
-22.1677 2.025825 -1.527065 0 0 -1 255 255 255 255 0.025924 0.777781
-21.84765 8.3963 0.663325 1 0 0 255 255 255 255 0.13512 0.81983
-21.84765 -1.5e-07 -0.84484 1 0 0 255 255 255 255 0.146692 0.755405
-21.84765 8.51925 -0.84484 1 0 0 255 255 255 255 0.146692 0.820774
-25.01295 25 -1.52707 -0.9999999 -0.0005180053 0 255 255 255 255 0.014839 0.94723
-25 2.5e-07 1.527065 -0.9999999 -0.0005180053 0 255 255 255 255 0.038274 0.755405
-25.01295 25 1.52706 -0.9999999 -0.0005180053 0 255 255 255 255 0.038274 0.94723
-25 2.5e-07 1.527065 -3.902696e-07 6.591926e-08 1 255 255 255 255 0.232534 0.755505
-22.44505 4.662675 1.527065 0 0 1 255 255 255 255 0.196757 0.775109
-22.1677 2.5e-07 1.527065 0 0 1 255 255 255 255 0.232534 0.777237
-22.44505 4.662675 1.527065 0.794967 0.01311182 0.6065111 255 255 255 255 0.128493 0.791182
-21.84765 1.5e-07 0.84484 0.794967 0.01311182 0.6065111 255 255 255 255 0.133727 0.755405
-21.84765 8.3963 0.663325 0.794967 0.01311182 0.6065111 255 255 255 255 0.13512 0.81983
-2.50348 10.8394 -1.527065 -0.7777343 0.006997855 -0.6285542 255 255 255 255 0.154362 0.838576
-3.152375 -1.5e-07 -0.84484 -0.7777343 0.006997855 -0.6285542 255 255 255 255 0.159596 0.755405
-3.152375 13.56655 -0.6938 -0.7777343 0.006997855 -0.6285542 255 255 255 255 0.160755 0.859501
-7.5e-07 -2.5e-07 -1.527065 -1.423328e-06 -4.413637e-07 -1 255 255 255 255 0.01038 0.947874
-2.50348 10.8394 -1.527065 -2.42879e-06 -5.60956e-07 -1 255 255 255 255 0.093551 0.928665
-2.832315 -2.5e-07 -1.527065 0 0 -1 255 255 255 255 0.01038 0.926142
-7.5e-07 2.5e-07 1.527065 2.935984e-07 4.959107e-08 1 255 255 255 255 0.232534 0.94733
-2.832315 15.3423 1.527065 0 0 1 255 255 255 255 0.114812 0.925597
-2.832315 15.3423 1.527065 0 0 1 255 255 255 255 0.114812 0.925597
-2.386085 12.62025 1.527065 0 0 1 255 255 255 255 0.135699 0.929022
-7.5e-07 2.5e-07 1.527065 0 0 1 255 255 255 255 0.232534 0.94733
-2.386085 12.62025 1.527065 0 0 1 255 255 255 255 0.135699 0.929022
-2.832315 9.743251 1.527065 0 0 1 255 255 255 255 0.157774 0.925597
-2.832315 2.5e-07 1.527065 0 0 1 255 255 255 255 0.232534 0.925597
-3.00522 12.538 1.158505 -0.9053234 3.538904e-07 0.424723 255 255 255 255 0.174968 0.85161
-3.152375 12.4673 0.844835 -0.9053234 3.538904e-07 0.424723 255 255 255 255 0.172561 0.851067
-2.832315 9.743251 1.527065 -0.9053234 3.538904e-07 0.424723 255 255 255 255 0.177796 0.830165
-3.152375 12.4673 0.844835 -0.9053237 1.689414e-07 0.4247223 255 255 255 255 0.172561 0.851067
-3.152375 1.5e-07 0.84484 -0.9053232 8.447071e-08 0.4247233 255 255 255 255 0.172561 0.755405
-2.832315 9.743251 1.527065 -0.9053232 8.447071e-08 0.4247233 255 255 255 255 0.177796 0.830165
-2.832315 2.5e-07 1.527065 -0.9053227 0 0.4247243 255 255 255 255 0.177796 0.755405
-8e-07 25 1.52706 1 2.000001e-09 0 255 255 255 255 0.180231 0.94723
-7.5e-07 -2.5e-07 -1.527065 1 2.000001e-09 0 255 255 255 255 0.203665 0.755405
-8e-07 25 -1.52707 1 2.000001e-09 0 255 255 255 255 0.203665 0.94723
-3.152375 12.4673 0.844835 -1 0 0 255 255 255 255 0.172561 0.851067
-3.152375 -1.5e-07 -0.84484 -1 0 0 255 255 255 255 0.159596 0.755405
-3.152375 1.5e-07 0.84484 -1 0 0 255 255 255 255 0.172561 0.755405
-13.22365 18.2133 -1.52707 0 -0.8951685 -0.4457279 255 255 255 255 0.126058 0.812144
-4.650495 17.8736 -0.84484 0 -0.8951685 -0.4457279 255 255 255 255 0.120823 0.877926
-16.3299 17.8736 -0.84484 0 -0.8951685 -0.4457279 255 255 255 255 0.120823 0.78831
-20.3495 17.8736 -0.84484 0 -0.8951685 -0.445728 255 255 255 255 0.120823 0.757467
-17.96575 18.2133 -1.52707 0 -0.8951685 -0.445728 255 255 255 255 0.126058 0.775758
-16.3299 17.8736 -0.84484 0 -0.8951685 -0.445728 255 255 255 255 0.120823 0.78831
-16.3299 17.8736 -0.84484 -0.1077364 -0.6027228 -0.7906441 255 255 255 255 0.147525 0.822574
-15.8852 18.68905 -1.52707 -0.1077364 -0.6027228 -0.7906441 255 255 255 255 0.153781 0.825987
-13.22365 18.2133 -1.52707 -0.1077364 -0.6027228 -0.7906441 255 255 255 255 0.150131 0.846409
-16.3299 17.8736 -0.84484 0 0 0 255 255 255 255 0.070743 0.961466
-17.96575 18.2133 -1.52707 0 0 0 255 255 255 255 0.065509 0.948914
-16.3299 17.8736 -0.84484 0 0 0 255 255 255 255 0.070743 0.961466
-17.96575 18.2133 -1.52707 0.1560626 -0.6824919 -0.7140374 255 255 255 255 0.150131 0.810023
-15.8852 18.68905 -1.52707 0.1560626 -0.6824919 -0.7140374 255 255 255 255 0.153781 0.825987
-16.3299 17.8736 -0.84484 0.1560626 -0.6824919 -0.7140374 255 255 255 255 0.147525 0.822574
-21.94745 8.515201 -1.057605 0.6632639 -0.06076019 -0.745915 255 255 255 255 0.075717 0.779471
-22.46445 8.634851 -1.527065 0.6632639 -0.06076019 -0.745915 255 255 255 255 0.076635 0.775504
-22.1677 11.8742 -1.527065 0.6632639 -0.06076019 -0.745915 255 255 255 255 0.101491 0.777781
-22.1677 11.8742 -1.527065 0 0 0 255 255 255 255 0.167194 0.89674
-21.94745 8.515201 -1.057605 0 0 0 255 255 255 255 0.165504 0.922514
-21.94745 8.515201 -1.057605 0 0 0 255 255 255 255 0.165504 0.922514
-21.94745 8.515201 -1.057605 0 0 0 255 255 255 255 0.165504 0.922514
-21.94745 8.515201 -1.057605 0 0 0 255 255 255 255 0.165504 0.922514
-22.1677 2.025825 -1.527065 0 0 0 255 255 255 255 0.167194 0.972307
-22.1677 2.025825 -1.527065 0.6757797 0.03034298 -0.7364789 255 255 255 255 0.025924 0.777781
-22.46445 8.634851 -1.527065 0.6757797 0.03034298 -0.7364789 255 255 255 255 0.076635 0.775504
-21.94745 8.515201 -1.057605 0.6757797 0.03034298 -0.7364789 255 255 255 255 0.075717 0.779471
-21.64545 19.70215 -1.71775 -0.05587634 -0.2882877 -0.9559122 255 255 255 255 0.076168 0.907312
-22.14015 20.56835 -1.950065 -0.05587634 -0.2882877 -0.9559122 255 255 255 255 0.082814 0.903516
-19.25115 20.0084 -1.950065 -0.05587634 -0.2882877 -0.9559122 255 255 255 255 0.078518 0.925683
-23.63525 20.0084 -1.950065 0.08053681 -0.2150378 -0.9732793 255 255 255 255 0.078518 0.892044
-22.14015 20.56835 -1.950065 0.08053681 -0.2150378 -0.9732793 255 255 255 255 0.082814 0.903516
-21.64545 19.70215 -1.71775 0.08053681 -0.2150378 -0.9732793 255 255 255 255 0.076168 0.907312
-3.00522 12.538 1.158505 -0.5016893 -0.08224273 0.8611295 255 255 255 255 0.174968 0.85161
-2.386085 12.62025 1.527065 -0.5016893 -0.08224273 0.8611295 255 255 255 255 0.177796 0.85224
-2.832315 15.3423 1.527065 -0.5016893 -0.08224273 0.8611295 255 255 255 255 0.177796 0.873127
-2.832315 9.743251 1.527065 -0.5177149 0.08029892 0.8517767 255 255 255 255 0.177796 0.830165
-2.386085 12.62025 1.527065 -0.5177149 0.08029892 0.8517767 255 255 255 255 0.177796 0.85224
-3.00522 12.538 1.158505 -0.5177149 0.08029892 0.8517767 255 255 255 255 0.174968 0.85161
-15.48215 17.99705 1.09269 0.0683003 -0.6235441 0.7787989 255 255 255 255 0.105956 0.794815
-15.1989 18.5706 1.52706 0.0683003 -0.6235441 0.7787989 255 255 255 255 0.102623 0.796988
-18.46085 18.2133 1.52706 0.0683003 -0.6235441 0.7787989 255 255 255 255 0.102623 0.771959
-13.10745 18.2133 1.52706 -0.09735539 -0.5698687 0.8159483 255 255 255 255 0.102623 0.813036
-15.1989 18.5706 1.52706 -0.09735539 -0.5698687 0.8159483 255 255 255 255 0.102623 0.796988
-15.48215 17.99705 1.09269 -0.09735539 -0.5698687 0.8159483 255 255 255 255 0.105956 0.794815
-18.42665 19.45075 1.52706 0 -0.604373 0.7967016 255 255 255 255 0.162451 0.947177
-18.56725 19.73125 1.739845 0 -0.604373 0.7967016 255 255 255 255 0.160299 0.946099
-25 19.45075 1.52706 0 -0.604373 0.7967016 255 255 255 255 0.162451 0.89674
-18.56725 19.73125 1.739845 -2.858841e-06 -0.6043313 0.7967331 255 255 255 255 0.160299 0.946099
-20.37425 20.0084 1.95006 -2.858841e-06 -0.6043313 0.7967331 255 255 255 255 0.158172 0.932234
-25 19.45075 1.52706 -2.858841e-06 -0.6043313 0.7967331 255 255 255 255 0.162451 0.89674
-25 19.45075 1.52706 0 -0.6043465 0.7967217 255 255 255 255 0.162451 0.89674
-20.37425 20.0084 1.95006 0 -0.6043465 0.7967217 255 255 255 255 0.158172 0.932234
-25 20.0084 1.95006 0 -0.6043465 0.7967217 255 255 255 255 0.158172 0.89674
-15.07085 22.22535 1.52706 0.3639672 -0.4402082 0.8208195 255 255 255 255 0.141162 0.972926
-16.0248 22.22535 1.95006 0.3639672 -0.4402082 0.8208195 255 255 255 255 0.141162 0.965607
-18.42665 19.45075 1.52706 0.3639672 -0.4402082 0.8208195 255 255 255 255 0.162451 0.947177
-18.42665 19.45075 1.52706 0.3639787 -0.4402167 0.8208098 255 255 255 255 0.162451 0.947177
-16.0248 22.22535 1.95006 0.3639787 -0.4402167 0.8208098 255 255 255 255 0.141162 0.965607
-18.56725 19.73125 1.739845 0.3639787 -0.4402167 0.8208098 255 255 255 255 0.160299 0.946099
-16.0248 22.22535 1.95006 0.363969 -0.4402076 0.8208191 255 255 255 255 0.141162 0.965607
-18.0746 20.53055 1.95006 0.363969 -0.4402076 0.8208191 255 255 255 255 0.154166 0.949879
-18.56725 19.73125 1.739845 0.363969 -0.4402076 0.8208191 255 255 255 255 0.160299 0.946099
-18.7061 20.7293 1.950055 -5.404037e-06 6.243113e-06 1 255 255 255 255 0.403195 0.937345
-16.0248 22.22535 1.95006 -5.404037e-06 6.243113e-06 1 255 255 255 255 0.391716 0.957919
-18.7061 24.4423 1.950035 -4.901493e-06 5.342425e-06 1 255 255 255 255 0.374705 0.937345
-18.7061 24.4423 1.950035 0 5.342424e-06 1 255 255 255 255 0.374705 0.937345
-25 24.4423 1.950035 1.497604e-07 5.693901e-06 1 255 255 255 255 0.374705 0.889052
-18.7061 20.7293 1.950055 2.246405e-07 5.723212e-06 1 255 255 255 255 0.403195 0.937345
-20.37425 20.0084 1.95006 2.246405e-07 5.86964e-06 1 255 255 255 255 0.408727 0.924546
-25 20.0084 1.95006 0 5.63528e-06 1 255 255 255 255 0.408727 0.889052
-0.577145 20.00845 1.950035 -0.05985718 -0.1952222 0.9789308 255 255 255 255 0.066829 0.905332
-2.96886 20.7418 1.95004 -0.05985718 -0.1952222 0.9789308 255 255 255 255 0.061202 0.88698
-3.22185 19.71915 1.73063 -0.05985718 -0.1952222 0.9789308 255 255 255 255 0.069049 0.885039
-3.22185 19.71915 1.73063 0.07096231 -0.2259994 0.9715393 255 255 255 255 0.069049 0.885039
-2.96886 20.7418 1.95004 0.07096231 -0.2259994 0.9715393 255 255 255 255 0.061202 0.88698
-5.30435 20.00845 1.950035 0.07096231 -0.2259994 0.9715393 255 255 255 255 0.066829 0.86906
-2.832315 16.7684 1.527065 -0.9053239 0 0.4247218 255 255 255 255 0.177796 0.884069
-3.152375 16.5005 0.844835 -0.9053239 0 0.4247218 255 255 255 255 0.172561 0.882013
-2.832315 15.3423 1.527065 -0.9053239 0 0.4247218 255 255 255 255 0.177796 0.873127
-3.152375 12.4673 0.844835 -0.9053234 0 0.424723 255 255 255 255 0.172561 0.851067
-3.00522 12.538 1.158505 -0.9053234 0 0.424723 255 255 255 255 0.174968 0.85161
-3.152375 16.5005 0.844835 -0.9053234 0 0.424723 255 255 255 255 0.172561 0.882013
-3.152375 16.5005 0.844835 -0.905324 -1.365155e-07 0.4247216 255 255 255 255 0.172561 0.882013
-3.00522 12.538 1.158505 -0.905324 -1.365155e-07 0.4247216 255 255 255 255 0.174968 0.85161
-2.832315 15.3423 1.527065 -0.905324 -1.365155e-07 0.4247216 255 255 255 255 0.177796 0.873127
-3.152375 16.5005 0.844835 -1 0 0 255 255 255 255 0.172561 0.882013
-3.152375 13.56655 -0.6938 -1 0 0 255 255 255 255 0.160755 0.859501
-2.832315 16.7684 -1.52707 -0.901716 -0.02222689 -0.4317573 255 255 255 255 0.154362 0.884069
-3.152375 13.56655 -0.6938 -0.901716 -0.02222689 -0.4317573 255 255 255 255 0.160755 0.859501
-3.152375 16.5005 -0.84484 -0.901716 -0.02222689 -0.4317573 255 255 255 255 0.159596 0.882013
-22.1677 16.7684 -1.52707 0.905329 -4.386193e-07 -0.424711 255 255 255 255 0.151927 0.884069
-21.84765 16.5005 -0.84484 0.905334 4.840653e-07 -0.4247003 255 255 255 255 0.146692 0.882013
-22.1677 11.8742 -1.527065 0.9053259 7.260979e-07 -0.4247176 255 255 255 255 0.151927 0.846516
-21.84765 16.5005 0.844835 1 0 0 255 255 255 255 0.133727 0.882013
-21.84765 16.5005 -0.84484 1 0 0 255 255 255 255 0.146692 0.882013
-22.1677 16.7684 1.527065 0.9038356 -0.009580832 0.4277726 255 255 255 255 0.128493 0.884069
-21.84765 8.3963 0.663325 0.9038356 -0.009580832 0.4277726 255 255 255 255 0.13512 0.81983
-21.84765 16.5005 0.844835 0.9038356 -0.009580832 0.4277726 255 255 255 255 0.133727 0.882013
-7.5e-07 20.00845 -1.95004 0 -5.635343e-06 -1 255 255 255 255 0.312443 0.824103
-6.59925 25 -1.52707 -0.4276276 0.4004397 -0.8104213 255 255 255 255 0.100189 0.781154
-6.31985 24.4423 -1.950065 -0.4276276 0.4004397 -0.8104213 255 255 255 255 0.095909 0.783298
-8.6072 21.99965 -1.950065 -0.4276276 0.4004397 -0.8104213 255 255 255 255 0.077167 0.765747
-8.6072 21.99965 -1.950065 -0.3765869 -0.4326067 -0.8191665 255 255 255 255 0.077167 0.765747
-6.31985 20.00845 -1.95004 -0.3765869 -0.4326067 -0.8191665 255 255 255 255 0.061888 0.783298
-6.59925 19.45075 -1.52707 -0.3765869 -0.4326067 -0.8191665 255 255 255 255 0.057609 0.781154
-7.5e-07 20.00845 -1.95004 0 -0.6042845 -0.7967686 255 255 255 255 0.061888 0.83179
-7.5e-07 24.4423 -1.950065 0 0.6043072 -0.7967514 255 255 255 255 0.095909 0.83179
-7.5e-07 24.4423 -1.950065 1 6.661194e-13 1.182039e-07 255 255 255 255 0.044004 0.987214
-13.9491 25 -1.950065 6.910326e-06 0 -1 255 255 255 255 0.445734 0.984359
-14.3136 21.8767 -1.52707 -0.5700328 -0.426742 -0.7021068 255 255 255 255 0.197976 0.968081
-13.9491 22.08575 -1.950065 -0.5700328 -0.426742 -0.7021068 255 255 255 255 0.195179 0.969686
-12.6405 20.33775 -1.950065 -0.5700328 -0.426742 -0.7021068 255 255 255 255 0.185139 0.956273
-12.6405 20.33775 -1.950065 0.5310138 -0.4828714 -0.6963186 255 255 255 255 0.185139 0.956273
-11.05095 22.08575 -1.950045 0.5310138 -0.4828714 -0.6963186 255 255 255 255 0.172942 0.969686
-10.6864 21.8767 -1.52707 0.5310138 -0.4828714 -0.6963186 255 255 255 255 0.170145 0.968081
-11.05095 25 -1.950045 0.757484 0 -0.6528537 255 255 255 255 0.172942 0.992047
-13.9491 25 -1.950065 -0.7575432 0 -0.6527851 255 255 255 255 0.195179 0.992047
-11.05095 25 -1.950045 0 1 0 255 255 255 255 0.073243 0.973949
-13.9491 25 -1.950065 0 1 0 255 255 255 255 0.073243 0.951711
-14.3136 25 -1.52707 0 1 0 255 255 255 255 0.076489 0.948914
-18.42665 19.45075 -1.52707 0.368196 -0.4376952 -0.8202772 255 255 255 255 0.074239 0.932009
-18.7061 20.0084 -1.950065 0.368196 -0.4376952 -0.8202772 255 255 255 255 0.078518 0.929865
-16.26065 22.06555 -1.950065 0.368196 -0.4376952 -0.8202772 255 255 255 255 0.094302 0.948629
-16.26065 22.06555 -1.950065 0.4039522 0.4156352 -0.8149049 255 255 255 255 0.094302 0.948629
-18.7061 24.4423 -1.950045 0.4039522 0.4156352 -0.8149049 255 255 255 255 0.112539 0.929865
-18.42665 25 -1.52707 0.4039522 0.4156352 -0.8149049 255 255 255 255 0.116819 0.932009
-25 24.4423 -1.950045 0 0.6042891 -0.7967653 255 255 255 255 0.112539 0.881572
-25 20.0084 -1.950065 -1 0 0 255 255 255 255 0.046946 0.953193
-4.38173 18.2133 -1.52707 -0.5829738 -0.6251428 -0.518978 255 255 255 255 0.154362 0.895156
-2.832315 16.7684 -1.52707 -0.5829738 -0.6251428 -0.518978 255 255 255 255 0.154362 0.884069
-3.152375 16.5005 -0.84484 -0.5829738 -0.6251428 -0.518978 255 255 255 255 0.159596 0.882013
-20.61825 18.2133 -1.52707 0.5708429 -0.622831 -0.5349953 255 255 255 255 0.151927 0.895156
-20.3495 17.8736 -0.84484 0.5708429 -0.622831 -0.5349953 255 255 255 255 0.146692 0.892549
-21.84765 16.5005 -0.84484 0.5708429 -0.622831 -0.5349953 255 255 255 255 0.146692 0.882013
-8e-07 25 -1.52707 0 1 0 255 255 255 255 0.205363 0.947874
-6.59925 25 1.52706 -0.2827587 0.3419824 0.896156 255 255 255 255 0.028529 0.859124
-9.95505 22.22535 1.52706 -0.2827587 0.3419824 0.896156 255 255 255 255 0.049819 0.833375
-8.696 22.1579 1.95006 -0.2827587 0.3419824 0.896156 255 255 255 255 0.050336 0.843036
-6.59925 19.45075 1.52706 -0.3860813 -0.4268105 0.817786 255 255 255 255 0.071109 0.859124
-6.31985 20.00845 1.950035 -0.3860813 -0.4268105 0.817786 255 255 255 255 0.066829 0.861268
-8.696 22.1579 1.95006 -0.3860813 -0.4268105 0.817786 255 255 255 255 0.050336 0.843036
-8e-07 25 1.52706 0 0.6043118 0.796748 255 255 255 255 0.028529 0.90976
-6.59925 25 1.52706 0 0.6043118 0.796748 255 255 255 255 0.028529 0.859124
-6.31985 24.4423 1.95006 0 0.6043118 0.796748 255 255 255 255 0.032808 0.861268
-7.5e-07 19.45075 1.52706 1 9.01023e-09 -1.188014e-08 255 255 255 255 0.056379 0.948914
-11.05095 22.08575 1.950035 8.621454e-06 0 1 255 255 255 255 0.454434 0.963487
-14.3136 21.8767 1.52706 -0.505262 -0.3649172 0.782014 255 255 255 255 0.037653 0.97278
-12.5 19.3656 1.52706 -0.505262 -0.3649172 0.782014 255 255 255 255 0.023737 0.992047
-12.56855 20.367 1.95006 -0.505262 -0.3649172 0.782014 255 255 255 255 0.024263 0.984363
-10.6864 21.8767 1.52706 0.5372099 -0.4743287 0.6974366 255 255 255 255 0.009821 0.97278
-11.05095 22.08575 1.950035 0.5372099 -0.4743287 0.6974366 255 255 255 255 0.012619 0.971175
-12.56855 20.367 1.95006 0.5372099 -0.4743287 0.6974366 255 255 255 255 0.024263 0.984363
-11.05095 25 1.950035 0.7574841 0 0.6528537 255 255 255 255 0.012619 0.948814
-14.3136 21.8767 1.52706 -0.7575471 0 0.6527806 255 255 255 255 0.037653 0.97278
-11.05095 25 1.950035 0 1 0 255 255 255 255 0.082676 0.973949
-10.6864 25 1.52706 0 1 0 255 255 255 255 0.079431 0.976746
-14.3136 25 1.52706 0 1 0 255 255 255 255 0.079431 0.948914
-18.42665 25 1.52706 0.3639455 0.4401845 0.8208418 255 255 255 255 0.119872 0.947177
-18.7061 24.4423 1.950035 0.3639455 0.4401845 0.8208418 255 255 255 255 0.124151 0.945033
-16.0248 22.22535 1.95006 0.3639455 0.4401845 0.8208418 255 255 255 255 0.141162 0.965607
-25 24.4423 1.950035 0 0.6042891 0.7967651 255 255 255 255 0.124151 0.89674
-25 25 1.52706 -1 0 0 255 255 255 255 0.059321 0.991493
-4.38173 18.2133 1.52706 -0.5708442 -0.6228198 0.535007 255 255 255 255 0.177796 0.895156
-4.650495 17.8736 0.844835 -0.5708442 -0.6228198 0.535007 255 255 255 255 0.172561 0.892549
-3.152375 16.5005 0.844835 -0.5708442 -0.6228198 0.535007 255 255 255 255 0.172561 0.882013
-21.84765 16.5005 0.844835 0.5708416 -0.6228298 0.5349981 255 255 255 255 0.133727 0.882013
-20.3495 17.8736 0.844835 0.5708416 -0.6228298 0.5349981 255 255 255 255 0.133727 0.892549
-20.61825 18.2133 1.52706 0.5708416 -0.6228298 0.5349981 255 255 255 255 0.128493 0.895156
-4.650495 17.8736 0.844835 -0.6756771 -0.7371978 0 255 255 255 255 0.172561 0.892549
-21.84765 16.5005 0.844835 0.6756696 -0.7372047 0 255 255 255 255 0.133727 0.882013
-21.84765 1.5e-07 0.84484 1 0 0 255 255 255 255 0.133727 0.755405
-25 -2.5e-07 -1.527065 -0.9999999 -0.0005180053 0 255 255 255 255 0.014839 0.755405
-22.44505 4.662675 1.527065 0.9040179 0.05377369 0.4240991 255 255 255 255 0.128493 0.791182
-22.1677 2.5e-07 1.527065 0.9040179 0.05377369 0.4240991 255 255 255 255 0.128493 0.755405
-21.84765 1.5e-07 0.84484 0.9040179 0.05377369 0.4240991 255 255 255 255 0.133727 0.755405
-2.50348 10.8394 -1.527065 -0.9049815 0.02745445 -0.4245642 255 255 255 255 0.154362 0.838576
-2.832315 -2.5e-07 -1.527065 -0.9049815 0.02745445 -0.4245642 255 255 255 255 0.154362 0.755405
-3.152375 -1.5e-07 -0.84484 -0.9049815 0.02745445 -0.4245642 255 255 255 255 0.159596 0.755405
-7.5e-07 2.5e-07 1.527065 1 2.000001e-09 0 255 255 255 255 0.180231 0.755405
-13.22365 18.2133 -1.52707 0 -0.8951685 -0.445728 255 255 255 255 0.126058 0.812144
-4.38173 18.2133 -1.52707 0 -0.8951685 -0.445728 255 255 255 255 0.126058 0.879988
-4.650495 17.8736 -0.84484 0 -0.8951685 -0.445728 255 255 255 255 0.120823 0.877926
-20.3495 17.8736 -0.84484 0 -0.8951685 -0.445728 255 255 255 255 0.120823 0.757467
-20.61825 18.2133 -1.52707 0 -0.8951685 -0.445728 255 255 255 255 0.126058 0.755405
-17.96575 18.2133 -1.52707 0 -0.8951685 -0.445728 255 255 255 255 0.126058 0.775758
-18.0746 20.53055 1.95006 -5.906582e-06 7.143802e-06 1 255 255 255 255 0.40472 0.942191
-3.152375 16.5005 -0.84484 -1 0 0 255 255 255 255 0.159596 0.882013
-2.832315 16.7684 -1.52707 -0.8575735 -0.0475633 -0.5121576 255 255 255 255 0.154362 0.884069
-2.50348 10.8394 -1.527065 -0.8575735 -0.0475633 -0.5121576 255 255 255 255 0.154362 0.838576
-3.152375 13.56655 -0.6938 -0.8575735 -0.0475633 -0.5121576 255 255 255 255 0.160755 0.859501
-22.1677 16.7684 1.527065 0.8601183 -0.01970586 0.5097139 255 255 255 255 0.128493 0.884069
-22.44505 4.662675 1.527065 0.8601183 -0.01970586 0.5097139 255 255 255 255 0.128493 0.791182
-21.84765 8.3963 0.663325 0.8601183 -0.01970586 0.5097139 255 255 255 255 0.13512 0.81983
3 0 1 2 
3 3 4 5 
3 6 7 8 
3 9 10 11 
3 12 13 14 
3 15 16 17 
3 18 19 20 
3 21 22 23 
3 24 25 26 
3 27 28 29 
3 30 31 32 
3 33 34 35 
3 36 37 38 
3 39 40 41 
3 42 43 44 
3 45 46 47 
3 47 46 48 
3 46 49 48 
3 49 50 48 
3 50 51 48 
3 52 53 54 
3 55 56 57 
3 58 59 60 
3 61 62 63 
3 64 65 66 
3 66 65 67 
3 68 69 70 
3 63 62 67 
3 71 72 73 
3 74 75 76 
3 77 78 79 
3 80 81 82 
3 83 84 85 
3 86 87 88 
3 89 90 91 
3 92 93 94 
3 93 74 94 
3 94 74 95 
3 95 74 96 
3 96 74 97 
3 74 76 97 
3 98 99 100 
3 87 101 88 
3 102 103 104 
3 105 106 107 
3 106 108 107 
3 108 109 107 
3 110 107 111 
3 109 111 107 
3 112 113 114 
3 115 116 117 
3 118 119 120 
3 121 122 123 
3 124 125 126 
3 127 128 129 
3 130 125 131 
3 132 133 134 
3 135 136 137 
3 138 139 140 
3 141 142 143 
3 144 145 146 
3 147 148 149 
3 150 151 152 
3 153 154 155 
3 156 157 158 
3 159 160 161 
3 162 163 164 
3 165 166 167 
3 168 169 170 
3 171 172 173 
3 174 175 176 
3 177 178 179 
3 180 181 182 
3 183 101 184 
3 185 186 187 
3 188 189 190 
3 174 190 175 
3 175 190 191 
3 191 190 192 
3 192 190 193 
3 189 193 190 
3 194 195 196 
3 197 198 199 
3 200 201 202 
3 203 204 205 
3 196 195 206 
3 207 208 209 
3 210 211 212 
3 186 89 91 
3 213 214 215 
3 215 214 216 
3 214 217 216 
3 218 219 220 
3 221 222 219 
3 220 219 222 
3 93 92 223 
3 92 224 223 
3 224 225 223 
3 226 223 227 
3 225 227 223 
3 228 229 230 
3 231 232 233 
3 190 234 188 
3 188 234 235 
3 234 236 235 
3 237 238 239 
3 240 241 242 
3 74 243 75 
3 75 243 244 
3 243 245 244 
3 174 176 246 
3 176 247 246 
3 248 249 250 
3 251 252 246 
3 252 253 246 
3 254 255 256 
3 257 258 259 
3 258 260 259 
3 261 262 263 
3 264 265 266 
3 267 268 269 
3 270 271 272 
3 273 274 275 
3 276 277 278 
3 279 280 281 
3 282 283 284 
3 285 286 287 
3 288 289 290 
3 291 292 293 
3 294 295 296 
3 297 298 299 
3 300 301 302 
3 303 304 305 
3 306 307 308 
3 309 310 311 
3 312 313 314 
3 315 316 317 
3 318 319 320 
3 321 322 323 
3 324 325 326 
3 327 328 329 
3 330 331 332 
3 333 334 335 
3 335 334 336 
3 336 334 337 
3 338 339 340 
3 341 342 343 
3 344 345 346 
3 347 348 349 
3 350 351 352 
3 353 354 264 
3 355 356 357 
3 358 359 360 
3 218 220 359 
3 359 220 360 
3 361 230 362 
3 363 364 365 
3 3 366 4 
3 367 368 369 
3 370 371 372 
3 12 373 13 
3 15 374 16 
3 18 375 19 
3 24 376 25 
3 377 378 379 
3 380 381 382 
3 33 383 34 
3 36 384 37 
3 385 386 387 
3 388 389 390 
3 391 392 393 
3 58 394 59 
3 71 395 72 
3 396 397 398 
3 399 400 401 
3 98 402 99 
3 87 184 101 
3 403 404 405 
3 406 407 408 
3 409 410 411 
3 135 412 136 
3 141 413 142 
3 414 415 416 
3 417 418 419 
3 150 420 151 
3 153 421 154 
3 422 423 424 
3 425 426 427 
3 168 428 169 
3 171 429 172 
3 430 431 432 
3 433 434 435 
3 207 436 208 
3 210 437 211 
3 186 185 89 
3 228 438 229 
3 231 439 232 
3 440 441 442 
3 443 444 445 
3 261 446 262 
3 264 354 265 
3 447 448 449 
3 450 451 452 
3 330 453 331 
3 353 454 354 
3 455 456 457 
3 361 228 230 
3 458 459 460 
