ply
format ascii 1.0
comment VCGLIB generated
comment TextureFile dummy.png
element vertex 458
property float x
property float y
property float z
property float nx
property float ny
property float nz
property uchar red
property uchar green
property uchar blue
property uchar alpha
property float texture_u
property float texture_v
element face 206
property list uchar int vertex_indices
end_header
-3.98041 -3.1e-06 -0.83256 -0.622059 -0.06095338 -0.7805942 255 255 255 255 0.048639 0.850379
-3.304195 3.325775 -1.631135 -0.622059 -0.06095338 -0.7805942 255 255 255 255 0.0485 0.850376
-2.551785 1.754315 -2.108025 -0.622059 -0.06095338 -0.7805942 255 255 255 255 0.048536 0.850078
-2.551785 1.754315 -2.108025 -0.6659888 0 -0.7459618 255 255 255 255 0.048536 0.850078
-2.551785 -3.3e-06 -2.108025 -0.6659888 0 -0.7459618 255 255 255 255 0.048618 0.849959
-3.98041 -3.1e-06 -0.83256 -0.6659888 0 -0.7459618 255 255 255 255 0.048639 0.850379
-0.00052865 -3.1e-06 -0.83256 0 -1 1.568056e-07 255 255 255 255 0.048902 0.850463
-2.551785 -3.3e-06 -2.108025 0 -1 1.568056e-07 255 255 255 255 0.048618 0.849959
-0.00052865 -3.3e-06 -2.108025 0 -1 1.568056e-07 255 255 255 255 0.048908 0.850043
-2.551785 1.754315 -2.108025 0 0 -1 255 255 255 255 0.048536 0.850078
-0.00052865 -3.3e-06 -2.108025 0 0 -1 255 255 255 255 0.048908 0.850043
-2.551785 -3.3e-06 -2.108025 0 0 -1 255 255 255 255 0.048618 0.849959
-3.98041 3.71203 -0.83256 0 0.9002266 -0.4354217 255 255 255 255 0.048516 0.850575
-0.00052865 3.71203 -0.83256 0 0.9002266 -0.4354217 255 255 255 255 0.048788 0.850665
-3.304195 3.325775 -1.631135 0 0.9002266 -0.4354217 255 255 255 255 0.0485 0.850376
-2.35875 2.896 -2.108025 0 0.8423516 -0.5389284 255 255 255 255 0.04852 0.850167
-0.00052865 3.71203 -0.83256 0 0.8423516 -0.5389284 255 255 255 255 0.048788 0.850665
-0.00052865 2.896 -2.108025 0 0.8423516 -0.5389284 255 255 255 255 0.048782 0.850247
-0.00052865 -3.1e-06 -0.83256 1 0 0 255 255 255 255 0.048902 0.850463
-0.00052865 2.896 -2.108025 1 0 0 255 255 255 255 0.048782 0.850247
-0.00052865 3.71203 -0.83256 1 0 0 255 255 255 255 0.048788 0.850665
-16.4804 3.71203 -0.83256 -0.7150711 0 -0.6990518 255 255 255 255 0.048516 0.850575
-15.52165 3.137605 -1.81328 -0.7150711 0 -0.6990518 255 255 255 255 0.048492 0.850279
-16.4804 -3.1e-06 -0.83256 -0.7150711 0 -0.6990518 255 255 255 255 0.048639 0.850379
-16.4804 -3.1e-06 -0.83256 -0.683539 0 -0.729914 255 255 255 255 0.048639 0.850379
-15.1184 2.253385 -2.108025 -0.683539 0 -0.729914 255 255 255 255 0.048514 0.850111
-15.1184 -3.3e-06 -2.108025 -0.683539 0 -0.729914 255 255 255 255 0.048618 0.849959
-8.52065 -3.1e-06 -0.83256 0 -1 1.568056e-07 255 255 255 255 0.049165 0.850546
-15.1184 -3.3e-06 -2.108025 0 -1 1.568056e-07 255 255 255 255 0.048618 0.849959
-9.88265 -3.3e-06 -2.108025 0 -1 1.568056e-07 255 255 255 255 0.049197 0.850127
-9.88265 2.628815 -2.108025 0.27095 0.3355188 -0.9022268 255 255 255 255 0.049093 0.850318
-10.2135 2.895995 -2.108025 0.27095 0.3355188 -0.9022268 255 255 255 255 0.049045 0.850327
-9.205501 3.301705 -1.654435 0.27095 0.3355188 -0.9022268 255 255 255 255 0.049071 0.850547
-22.44925 2.896 -2.108025 0.6659954 0 -0.7459559 255 255 255 255 0.049082 0.850339
-21.02065 -3.1e-06 -0.83256 0.6659954 0 -0.7459559 255 255 255 255 0.049165 0.850546
-22.44925 -3.3e-06 -2.108025 0.6659954 0 -0.7459559 255 255 255 255 0.049197 0.850127
-22.44925 -3.3e-06 -2.108025 0 0 -1 255 255 255 255 0.049197 0.850127
-25.00055 2.896 -2.108025 0 0 -1 255 255 255 255 0.048782 0.850247
-22.44925 2.896 -2.108025 0 0 -1 255 255 255 255 0.049082 0.850339
-22.44925 -3.3e-06 -2.108025 0 -1 1.568056e-07 255 255 255 255 0.049197 0.850127
-25.00055 -3.1e-06 -0.83256 0 -1 1.568056e-07 255 255 255 255 0.048902 0.850463
-25.00055 -3.3e-06 -2.108025 0 -1 1.568056e-07 255 255 255 255 0.048908 0.850043
-22.44925 2.896 -2.108025 0 0.8423516 -0.5389284 255 255 255 255 0.049082 0.850339
-25.00055 3.71203 -0.83256 0 0.8423516 -0.5389284 255 255 255 255 0.048788 0.850665
-21.02065 3.71203 -0.83256 0 0.8423516 -0.5389284 255 255 255 255 0.04906 0.850756
-25.00055 -3.1e-06 -0.83256 -1 0 0 255 255 255 255 0.048902 0.850463
-25.00055 2.896 -2.108025 -1 0 0 255 255 255 255 0.048782 0.850247
-25.00055 -3.3e-06 -2.108025 -1 0 0 255 255 255 255 0.048908 0.850043
-15.5473 21.42705 -1.55977 -0.8263467 0 -0.5631618 255 255 255 255 0.148346 0.723947
-16.0429 25 -0.83256 -0.8263467 0 -0.5631618 255 255 255 255 0.151251 0.739053
-15.5473 25 -1.55977 -0.8263467 0 -0.5631618 255 255 255 255 0.148346 0.739053
-8.9571 25 -0.83256 0.8263201 0 -0.5632008 255 255 255 255 0.088051 0.739053
-9.45275 21.42705 -1.55977 0.8263201 0 -0.5632008 255 255 255 255 0.090956 0.723947
-9.45275 25 -1.55977 0.8263201 0 -0.5632008 255 255 255 255 0.090956 0.739053
-15.5473 21.42705 -1.55977 0 0 -1 255 255 255 255 0.148346 0.973947
-9.45275 25 -1.55977 0 0 -1 255 255 255 255 0.090956 0.989053
-9.45275 21.42705 -1.55977 0 0 -1 255 255 255 255 0.090956 0.973947
-8.9571 21.05075 -0.83256 0.5082554 -0.5730029 -0.6429185 255 255 255 255 0.088051 0.720403
-12.4347 18.78205 -1.55977 0.5082554 -0.5730029 -0.6429185 255 255 255 255 0.119055 0.699039
-9.45275 21.42705 -1.55977 0.5082554 -0.5730029 -0.6429185 255 255 255 255 0.090956 0.723947
-16.0429 21.05075 -0.83256 -0.4693975 -0.5171267 -0.7157136 255 255 255 255 0.151251 0.720403
-12.4347 18.78205 -1.55977 -0.4693975 -0.5171267 -0.7157136 255 255 255 255 0.119055 0.699039
-12.5 17.83485 -0.83256 -0.4693975 -0.5171267 -0.7157136 255 255 255 255 0.119651 0.69012
-9.45275 25 -1.55977 0 1 0 255 255 255 255 0.090956 0.989053
-16.0429 25 -0.83256 0 1 0 255 255 255 255 0.151251 0.989053
-8.9571 25 -0.83256 0 1 0 255 255 255 255 0.088051 0.989053
-12.4347 18.78205 -1.55977 0 0 -1 255 255 255 255 0.119036 0.949039
-14.34495 21.96875 -2.108025 -0.7793434 0 -0.626597 255 255 255 255 0.137025 0.727254
-14.78575 25 -1.55977 -0.7793434 0 -0.626597 255 255 255 255 0.141175 0.739053
-14.34495 25 -2.108025 -0.7793434 0 -0.626597 255 255 255 255 0.137025 0.739053
-10.21425 25 -1.55977 0.779344 0 -0.6265964 255 255 255 255 0.098127 0.739053
-10.65505 21.96875 -2.108025 0.779344 0 -0.6265964 255 255 255 255 0.102278 0.727254
-10.65505 25 -2.108025 0.7793439 0 -0.6265964 255 255 255 255 0.102278 0.739053
-14.34495 21.96875 -2.108025 0 0 -1 255 255 255 255 0.137025 0.977254
-10.65505 25 -2.108025 0 0 -1 255 255 255 255 0.102278 0.989053
-10.65505 21.96875 -2.108025 0 0 -1 255 255 255 255 0.102278 0.977254
-11.8485 20.9467 -2.108025 0.03428106 -0.279125 -0.9596427 255 255 255 255 0.113516 0.718119
-12.5 20.0671 -1.875455 0.03428106 -0.279125 -0.9596427 255 255 255 255 0.119651 0.71081
-12.988 20.80675 -2.108025 0.03428106 -0.279125 -0.9596427 255 255 255 255 0.124247 0.717022
-14.34495 25 -2.108025 0 1 0 255 255 255 255 0.137025 0.989053
-10.21425 25 -1.55977 0 1 0 255 255 255 255 0.098127 0.989053
-10.65505 25 -2.108025 0 1 0 255 255 255 255 0.102278 0.989053
-21.45715 21.05075 -0.83256 0.9685406 0 -0.2488558 255 255 255 255 0.151251 0.720403
-21.60345 21.16185 -1.401955 0.9685406 0 -0.2488558 255 255 255 255 0.150393 0.721449
-21.45715 25 -0.83256 0.9685406 0 -0.2488558 255 255 255 255 0.151251 0.739053
-21.45715 25 -0.83256 0.8263467 0 -0.5631618 255 255 255 255 0.151251 0.739053
-21.95275 22.2409 -1.55977 0.8263467 0 -0.5631618 255 255 255 255 0.148346 0.727086
-21.95275 25 -1.55977 0.8263467 0 -0.5631618 255 255 255 255 0.148346 0.739053
-25 17.83485 -0.83256 0.4837808 -0.5329649 -0.6941934 255 255 255 255 0.119651 0.69012
-25 18.78205 -1.55977 0.4837808 -0.5329649 -0.6941934 255 255 255 255 0.119651 0.699039
-21.45715 21.05075 -0.83256 0.4837808 -0.5329649 -0.6941934 255 255 255 255 0.151251 0.720403
-21.45715 21.05075 -0.83256 0.0958615 -0.9720535 -0.2142957 255 255 255 255 0.151251 0.720403
-22.29695 21.12825 -1.55977 0.0958615 -0.9720535 -0.2142957 255 255 255 255 0.145105 0.721133
-21.60345 21.16185 -1.401955 0.0958615 -0.9720535 -0.2142957 255 255 255 255 0.150393 0.721449
-23.15505 22.24985 -2.108025 0.7793434 0 -0.626597 255 255 255 255 0.137025 0.72853
-22.71425 25 -1.55977 0.7793434 0 -0.626597 255 255 255 255 0.141175 0.739053
-22.71425 21.7783 -1.55977 0.7793434 0 -0.626597 255 255 255 255 0.141175 0.727254
-25 20.3888 -2.108025 0.5161274 -0.6130099 -0.5981901 255 255 255 255 0.119651 0.713342
-22.71425 21.7783 -1.55977 0.5161274 -0.6130099 -0.5981901 255 255 255 255 0.141175 0.727254
-25 19.8538 -1.55977 0.5161274 -0.6130099 -0.5981901 255 255 255 255 0.119651 0.709132
-23.15505 22.24985 -2.108025 0 0 -1 255 255 255 255 0.137025 0.976897
-25 25 -2.108025 0 0 -1 255 255 255 255 0.119651 0.989053
-23.15505 25 -2.108025 0 0 -1 255 255 255 255 0.137025 0.989053
-25 25 -1.55977 0 1 0 255 255 255 255 0.119651 0.989053
-23.15505 25 -2.108025 0 1 0 255 255 255 255 0.137025 0.989053
-25 25 -2.108025 0 1 0 255 255 255 255 0.119651 0.989053
-22.29695 21.12825 -1.55977 0 0 -1 255 255 255 255 0.145105 0.970615
-25 25 -1.55977 0 0 -1 255 255 255 255 0.119651 0.989053
-21.95275 22.2409 -1.55977 0 0 -1 255 255 255 255 0.148346 0.97668
-21.95275 25 -1.55977 0 0 -1 255 255 255 255 0.148346 0.989053
-25 25 -0.83256 0 1 0 255 255 255 255 0.119651 0.989053
-21.95275 25 -1.55977 0 1 0 255 255 255 255 0.148346 0.989053
-25 25 -1.55977 -1 0 0 255 255 255 255 0.119651 0.989053
-25 20.3888 -2.108025 -1 0 0 255 255 255 255 0.119651 0.963342
-25 19.8538 -1.55977 -1 0 0 255 255 255 255 0.119651 0.959132
-25 25 -0.83256 -1 0 0 255 255 255 255 0.119651 0.989053
-25 18.78205 -1.55977 -1 0 0 255 255 255 255 0.119651 0.949039
-25 17.83485 -0.83256 -1 0 0 255 255 255 255 0.119651 0.94012
-2.869405 21.31525 -1.55977 -0.8256924 -0.03985887 -0.5627109 255 255 255 255 0.146507 0.722507
-3.542875 25 -0.83256 -0.8256924 -0.03985887 -0.5627109 255 255 255 255 0.151251 0.739053
-3.04728 25 -1.55977 -0.8256924 -0.03985887 -0.5627109 255 255 255 255 0.148346 0.739053
-3.542875 21.05075 -0.83256 -0.4837783 -0.5329659 -0.6941945 255 255 255 255 0.151251 0.720403
-7.5e-07 18.78205 -1.55977 -0.4837783 -0.5329659 -0.6941945 255 255 255 255 0.119651 0.699039
-7.5e-07 17.83485 -0.83256 -0.4837783 -0.5329659 -0.6941945 255 255 255 255 0.119651 0.69012
-1.93844 21.96875 -2.108025 -0.7791258 0.02402471 -0.6264072 255 255 255 255 0.137905 0.7279
-2.28576 25 -1.55977 -0.7791258 0.02402471 -0.6264072 255 255 255 255 0.141175 0.739053
-1.84497 25 -2.108025 -0.7791258 0.02402471 -0.6264072 255 255 255 255 0.137025 0.739053
-2.28576 21.7783 -1.55977 -0.5161259 -0.6130105 -0.5981908 255 255 255 255 0.141175 0.727254
-7.5e-07 20.3888 -2.108025 -0.5161259 -0.6130105 -0.5981908 255 255 255 255 0.119651 0.713342
-7.5e-07 19.8538 -1.55977 -0.5161259 -0.6130105 -0.5981908 255 255 255 255 0.119651 0.709132
-1.93844 21.96875 -2.108025 0 0 -1 255 255 255 255 0.137905 0.975622
-7.5e-07 25 -2.108025 0 0 -1 255 255 255 255 0.119651 0.989053
-7.5e-07 20.3888 -2.108025 0 0 -1 255 255 255 255 0.119651 0.963342
-2.3e-06 25 -1.55977 0 1 0 255 255 255 255 0.119651 0.989053
-1.84497 25 -2.108025 0 1 0 255 255 255 255 0.137025 0.989053
-2.28576 25 -1.55977 0 1 0 255 255 255 255 0.141175 0.989053
-2.869405 21.31525 -1.55977 0 0 -1 255 255 255 255 0.146671 0.970052
-2.3e-06 25 -1.55977 0 0 -1 255 255 255 255 0.119651 0.989053
-7.5e-07 18.78205 -1.55977 0 0 -1 255 255 255 255 0.119651 0.949039
-8e-07 25 -0.83256 0 1 0 255 255 255 255 0.119651 0.989053
-3.04728 25 -1.55977 0 1 0 255 255 255 255 0.148346 0.989053
-3.542875 25 -0.83256 0 1 0 255 255 255 255 0.151251 0.989053
-7.5e-07 20.3888 -2.108025 1 3.011931e-07 2.939116e-07 255 255 255 255 0.119651 0.963342
-2.3e-06 25 -1.55977 1 3.011931e-07 2.939116e-07 255 255 255 255 0.119651 0.989053
-7.5e-07 19.8538 -1.55977 1 3.011931e-07 2.939116e-07 255 255 255 255 0.119651 0.959132
-7.5e-07 18.78205 -1.55977 1 6.978222e-09 9.089221e-09 255 255 255 255 0.119651 0.949039
-8e-07 25 -0.83256 1 6.978222e-09 9.089221e-09 255 255 255 255 0.119651 0.989053
-7.5e-07 17.83485 -0.83256 1 6.978222e-09 9.089221e-09 255 255 255 255 0.119651 0.94012
-25 1e-07 0.71196 -1 0 0 255 255 255 255 0.237346 0.753493
-25 15.76805 -1.55977 -1 0 0 255 255 255 255 0.237346 0.90208
-25 -2.5e-07 -1.559765 -1 0 0 255 255 255 255 0.237346 0.753493
-8e-07 15.76805 -1.55977 1 -1.585489e-09 -1.100486e-08 255 255 255 255 0.001764 0.90208
-8e-07 1e-07 0.71196 1 -1.056992e-09 -7.336572e-09 255 255 255 255 0.001764 0.753493
-8.5e-07 -2.5e-07 -1.559765 1 -3.170977e-09 -2.200971e-08 255 255 255 255 0.001764 0.753493
-8e-07 25 -0.83256 0 1 0 255 255 255 255 0.001764 0.989076
-25 25 0.711955 0 1 0 255 255 255 255 0.237346 0.989076
-8e-07 25 0.711955 0 1 0 255 255 255 255 0.001764 0.989076
-8.5e-07 -2.5e-07 -1.559765 0 -1 1.540679e-07 255 255 255 255 0.001764 0.753493
-8e-07 1e-07 0.71196 1.39707e-09 -1 1.574222e-07 255 255 255 255 0.001764 0.753493
-2.15054 -2.5e-07 -1.559765 3.492675e-09 -1 1.507616e-07 255 255 255 255 0.022029 0.753493
-22.84945 -2.5e-07 -1.559765 -3.492663e-09 -1 1.507616e-07 255 255 255 255 0.217081 0.753493
-25 1e-07 0.71196 -1.746332e-09 -1 1.563121e-07 255 255 255 255 0.237346 0.753493
-25 -2.5e-07 -1.559765 0 -1 1.540679e-07 255 255 255 255 0.237346 0.753493
-25 15.76805 -1.55977 0 0.4100212 -0.912076 255 255 255 255 0.237346 0.90208
-18.93405 17.3857 -0.83256 0 0.4100212 -0.912076 255 255 255 255 0.180185 0.917324
-18.7097 15.76805 -1.55977 0 0.4100212 -0.912076 255 255 255 255 0.178071 0.90208
-6.29035 15.76805 -1.55977 0.0001645246 0.4535104 -0.891251 255 255 255 255 0.061039 0.90208
-10.23555 16.2584 -1.310985 0.0001645246 0.4535104 -0.891251 255 255 255 255 0.098216 0.907064
-8e-07 17.1949 -0.83256 0.0001645246 0.4535104 -0.891251 255 255 255 255 0.001764 0.915526
-8e-07 17.1949 -0.83256 0 0.4540862 -0.8909577 255 255 255 255 0.001764 0.915526
-8e-07 15.76805 -1.55977 0 0.4540862 -0.8909577 255 255 255 255 0.001764 0.90208
-6.29035 15.76805 -1.55977 0 0.4540862 -0.8909577 255 255 255 255 0.061039 0.90208
-6.29035 15.76805 -1.55977 0 -1.122269e-06 -1 255 255 255 255 0.061039 0.90208
-8e-07 15.76805 -1.55977 -1.097727e-06 -5.585329e-07 -1 255 255 255 255 0.001764 0.90208
-2.15054 11.26425 -1.559765 -6.209431e-07 -4.516824e-07 -1 255 255 255 255 0.022029 0.85964
-10.4301 11.26425 -1.559765 5.587747e-07 -7.678454e-07 -1 255 255 255 255 0.10005 0.85964
-8.0249 15.76805 -1.55977 2.43606e-07 -1.252364e-06 -1 255 255 255 255 0.077385 0.90208
-25 15.76805 -1.55977 8.395003e-07 -7.214102e-07 -1 255 255 255 255 0.237346 0.90208
-18.7097 15.76805 -1.55977 0 -5.611344e-07 -1 255 255 255 255 0.178071 0.90208
-22.84945 11.26425 -1.559765 5.596669e-07 -4.809402e-07 -1 255 255 255 255 0.217081 0.85964
-8e-07 17.1949 -0.83256 1 0 0 255 255 255 255 0.001764 0.915526
-8e-07 25 0.711955 1 0 0 255 255 255 255 0.001764 0.989076
-8e-07 25 0.711955 0 1.983643e-07 1 255 255 255 255 0.001764 0.989076
-25 1e-07 0.71196 0 1.983643e-07 1 255 255 255 255 0.237346 0.753493
-8e-07 1e-07 0.71196 0 1.983643e-07 1 255 255 255 255 0.001764 0.753493
-25 17.1949 -0.83256 -1 0 0 255 255 255 255 0.237346 0.915526
-25 25 0.711955 -1 0 0 255 255 255 255 0.237346 0.989076
-25 25 -0.83256 -1 0 0 255 255 255 255 0.237346 0.989076
-25 25 -0.83256 0 0 -1 255 255 255 255 0.237346 0.989076
-11.83335 17.1949 -0.83256 0 0 -1 255 255 255 255 0.113273 0.915526
-18.93405 17.3857 -0.83256 0 0 -1 255 255 255 255 0.180185 0.917324
-8e-07 25 -0.83256 0 0 -1 255 255 255 255 0.001764 0.989076
-8e-07 17.1949 -0.83256 0 0 -1 255 255 255 255 0.001764 0.915526
-1.679355 7.49355 -1.559765 -8.232956e-07 -1.383325e-07 -1 255 255 255 255 0.017589 0.824107
-8.5e-07 -2.5e-07 -1.559765 -4.767844e-07 -1.068505e-07 -1 255 255 255 255 0.001764 0.753493
-2.15054 6.31775 -1.559765 0 0 -1 255 255 255 255 0.022029 0.813027
-2.15054 8.55665 -1.559765 0 0 -1 255 255 255 255 0.022029 0.834125
-3.18559 10.9488 -0.83256 0 0 -1 255 255 255 255 0.031782 0.856667
-9.39505 10.9488 -0.83256 0 0 -1 255 255 255 255 0.090296 0.856667
-6.1357 14.2877 -0.83256 0 0 -1 255 255 255 255 0.059582 0.88813
-10.5595 7.3237 -1.559765 5.363862e-07 -2.841447e-07 -1 255 255 255 255 0.101269 0.822507
-14.5699 11.6121 -1.55977 7.062292e-07 -2.285434e-07 -1 255 255 255 255 0.13906 0.862917
-15.60495 10.9488 -0.83256 0 0 -1 255 255 255 255 0.148814 0.856667
-21.64275 10.9488 -0.83256 0 0 -1 255 255 255 255 0.20571 0.856667
-18.7097 14.3265 -0.83256 0 0 -1 255 255 255 255 0.178071 0.888496
-25 -2.5e-07 -1.559765 8.395003e-07 -1.602758e-07 -1 255 255 255 255 0.237346 0.753493
-21.8144 -1.5e-07 -0.83256 -3.492663e-09 -1 1.546589e-07 255 255 255 255 0.207327 0.753493
-14.5699 11.6121 -1.55977 -0.411998 -0.410397 -0.8135306 255 255 255 255 0.13908 0.612317
-18.7097 14.3265 -0.83256 -0.411998 -0.410397 -0.8135306 255 255 255 255 0.178071 0.638496
-18.7097 15.76805 -1.55977 -0.411998 -0.410397 -0.8135306 255 255 255 255 0.178071 0.65208
-14.4405 5.4532 -1.559765 -0.5696927 -0.01197012 -0.8217707 255 255 255 255 0.138071 0.56465
-15.60495 10.9488 -0.83256 -0.5696927 -0.01197012 -0.8217707 255 255 255 255 0.148814 0.606667
-14.5699 11.6121 -1.55977 -0.5696927 -0.01197012 -0.8217707 255 255 255 255 0.13908 0.612317
-22.84945 11.26425 -1.559765 0.4117098 -0.3575112 -0.8382606 255 255 255 255 0.217081 0.60964
-18.7097 14.3265 -0.83256 0.4117098 -0.3575112 -0.8382606 255 255 255 255 0.178071 0.638496
-21.64275 10.9488 -0.83256 0.4117098 -0.3575112 -0.8382606 255 255 255 255 0.20571 0.606989
-21.8144 9.04465 -0.83256 0.5068294 -0.04568803 -0.8608348 255 255 255 255 0.207327 0.592139
-22.84945 11.26425 -1.559765 0.5068294 -0.04568803 -0.8608348 255 255 255 255 0.217081 0.60964
-21.64275 10.9488 -0.83256 0.5068294 -0.04568803 -0.8608348 255 255 255 255 0.20571 0.606989
-15.60495 -1.5e-07 -0.83256 0 -1 1.557751e-07 255 255 255 255 0.148814 0.753493
-3.18559 -1.5e-07 -0.83256 3.492675e-09 -1 1.546589e-07 255 255 255 255 0.031782 0.753493
-14.5699 -2.5e-07 -1.559765 0 -1 1.375128e-07 255 255 255 255 0.13906 0.753493
-9.39505 -1.5e-07 -0.83256 0 -1 1.496877e-07 255 255 255 255 0.090296 0.753493
-2.15054 11.26425 -1.559765 -0.466483 -0.4287835 -0.7736526 255 255 255 255 0.022029 0.60964
-6.1357 14.2877 -0.83256 -0.466483 -0.4287835 -0.7736526 255 255 255 255 0.059582 0.638131
-6.29035 15.76805 -1.55977 -0.466483 -0.4287835 -0.7736526 255 255 255 255 0.061039 0.65208
-3.18559 10.9488 -0.83256 -0.5767049 0 -0.8169526 255 255 255 255 0.031782 0.606667
-2.427475 7.76915 -1.36773 -0.5767049 0 -0.8169526 255 255 255 255 0.024638 0.582457
-3.18559 -1.5e-07 -0.83256 -0.5767049 0 -0.8169526 255 255 255 255 0.031782 0.522365
-10.4301 11.26425 -1.559765 0.4317933 -0.4215058 -0.7974255 255 255 255 255 0.10005 0.60964
-6.1357 14.2877 -0.83256 0.4317933 -0.4215058 -0.7974255 255 255 255 255 0.059582 0.638131
-9.39505 10.9488 -0.83256 0.4317933 -0.4215058 -0.7974255 255 255 255 255 0.090296 0.606667
-9.39505 7.9576 -0.83256 0.574878 0 -0.8182392 255 255 255 255 0.090296 0.583636
-10.4301 11.26425 -1.559765 0.574878 0 -0.8182392 255 255 255 255 0.10005 0.60964
-9.39505 10.9488 -0.83256 0.574878 0 -0.8182392 255 255 255 255 0.090296 0.606667
-9.39505 7.9576 -0.83256 0 0 -1 255 255 255 255 0.090296 0.82848
-21.8144 9.04465 -0.83256 0 0 -1 255 255 255 255 0.207327 0.838724
-15.52165 3.137605 -1.81328 -0.1165081 0.2658541 -0.956947 255 255 255 255 0.048492 0.850279
-13.65205 2.896 -2.108025 -0.1165081 0.2658541 -0.956947 255 255 255 255 0.048656 0.850208
-15.1184 2.253385 -2.108025 -0.1165081 0.2658541 -0.956947 255 255 255 255 0.048514 0.850111
-2.35875 2.896 -2.108025 -0.4230922 0.07153607 -0.9032583 255 255 255 255 0.04852 0.850167
-2.551785 1.754315 -2.108025 -0.4230922 0.07153607 -0.9032583 255 255 255 255 0.048536 0.850078
-3.304195 3.325775 -1.631135 -0.4230922 0.07153607 -0.9032583 255 255 255 255 0.0485 0.850376
-0.00052865 2.896 -2.108025 0 0 -1 255 255 255 255 0.048782 0.850247
-2.35875 2.896 -2.108025 0 0 -1 255 255 255 255 0.04852 0.850167
-3.18559 -1.5e-07 -0.83256 0 0 -1 255 255 255 255 0.031782 0.753493
-10.5595 7.3237 -1.559765 0.5748484 0.01015679 -0.818197 255 255 255 255 0.101038 0.579115
-9.39505 -1.5e-07 -0.83256 0.5748484 0.01015679 -0.818197 255 255 255 255 0.090296 0.522365
-10.4301 -2.5e-07 -1.559765 0.5748484 0.01015679 -0.818197 255 255 255 255 0.10005 0.522365
-14.4405 5.4532 -1.559765 1.305239e-07 -2.70817e-07 -1 255 255 255 255 0.137841 0.80488
-10.4301 -2.5e-07 -1.559765 0 0 -1 255 255 255 255 0.10005 0.753493
-14.5699 -2.5e-07 -1.559765 0 0 -1 255 255 255 255 0.13906 0.753493
-14.4405 5.4532 -1.559765 -0.5296971 0 -0.848187 255 255 255 255 0.138071 0.56465
-15.60495 -1.5e-07 -0.83256 -0.5296971 0 -0.8481869 255 255 255 255 0.148814 0.522365
-15.60495 5.9375 -0.83256 -0.5296971 0 -0.848187 255 255 255 255 0.148814 0.568082
-9.45485 15.2641 -1.55977 -0.06762379 0.1918818 -0.9790855 255 255 255 255 0.09086 0.897332
-10.23555 16.2584 -1.310985 -0.06762379 0.1918818 -0.9790855 255 255 255 255 0.098216 0.907064
-8.0249 15.76805 -1.55977 -0.06762379 0.1918818 -0.9790855 255 255 255 255 0.077385 0.90208
-14.35885 15.76805 -1.55977 3.630249e-07 -4.315057e-07 -1 255 255 255 255 0.137071 0.90208
-14.35885 15.76805 -1.55977 0.02697763 0.2625232 -0.9645485 255 255 255 255 0.137071 0.90208
-10.23555 16.2584 -1.310985 0.02697763 0.2625232 -0.9645485 255 255 255 255 0.098216 0.907064
-9.45485 15.2641 -1.55977 0.02697763 0.2625232 -0.9645485 255 255 255 255 0.09086 0.897332
-21.8144 -1.5e-07 -0.83256 0 0 -1 255 255 255 255 0.207327 0.753493
-15.60495 5.9375 -0.83256 0 0 -1 255 255 255 255 0.148814 0.809444
-15.60495 -1.5e-07 -0.83256 0 0 -1 255 255 255 255 0.148814 0.753493
-22.84945 -2.5e-07 -1.559765 0.5748777 0 -0.8182393 255 255 255 255 0.217081 0.522365
-21.8144 9.04465 -0.83256 0.5748777 0 -0.8182393 255 255 255 255 0.207327 0.592139
-21.8144 -1.5e-07 -0.83256 0.5748777 0 -0.8182393 255 255 255 255 0.207327 0.522365
-1.679355 7.49355 -1.559765 -0.2908421 -0.1289065 -0.9480475 255 255 255 255 0.018429 0.580508
-2.427475 7.76915 -1.36773 -0.2908421 -0.1289065 -0.9480475 255 255 255 255 0.024638 0.582457
-2.15054 8.55665 -1.559765 -0.2908421 -0.1289065 -0.9480475 255 255 255 255 0.022029 0.588632
-2.15054 6.31775 -1.559765 -0.2174466 0.08713859 -0.9721748 255 255 255 255 0.022029 0.571315
-2.427475 7.76915 -1.36773 -0.2174466 0.08713859 -0.9721748 255 255 255 255 0.024638 0.582457
-1.679355 7.49355 -1.559765 -0.2174466 0.08713859 -0.9721748 255 255 255 255 0.018429 0.580508
-2.15054 8.55665 -1.559765 -0.5748781 0 -0.8182391 255 255 255 255 0.022029 0.588632
-3.18559 10.9488 -0.83256 -0.5748781 0 -0.8182391 255 255 255 255 0.031782 0.606667
-2.15054 11.26425 -1.559765 -0.5748781 0 -0.8182391 255 255 255 255 0.022029 0.60964
-3.18559 -1.5e-07 -0.83256 -0.5748781 0 -0.8182392 255 255 255 255 0.031782 0.522365
-2.15054 6.31775 -1.559765 -0.5748781 0 -0.8182392 255 255 255 255 0.022029 0.571315
-2.15054 -2.5e-07 -1.559765 -0.5748781 0 -0.8182392 255 255 255 255 0.022029 0.522365
-8.52065 3.71203 -0.83256 0.7682422 0 -0.6401593 255 255 255 255 0.04906 0.850756
-8.52065 -3.1e-06 -0.83256 0.7682422 0 -0.6401593 255 255 255 255 0.049165 0.850546
-9.205501 3.301705 -1.654435 0.7682422 0 -0.6401593 255 255 255 255 0.049071 0.850547
-9.88265 2.628815 -2.108025 0.6835388 0 -0.7299142 255 255 255 255 0.049093 0.850318
-8.52065 -3.1e-06 -0.83256 0.6835388 0 -0.7299142 255 255 255 255 0.049165 0.850546
-9.88265 -3.3e-06 -2.108025 0.6835388 0 -0.7299142 255 255 255 255 0.049197 0.850127
-9.88265 -3.3e-06 -2.108025 0 0 -1 255 255 255 255 0.049197 0.850127
-10.2135 2.895995 -2.108025 0 0 -1 255 255 255 255 0.049045 0.850327
-9.88265 2.628815 -2.108025 0 0 -1 255 255 255 255 0.049093 0.850318
-15.1184 -3.3e-06 -2.108025 0 0 -1 255 255 255 255 0.048618 0.849959
-13.65205 2.896 -2.108025 0 0 -1 255 255 255 255 0.048656 0.850208
-16.4804 3.71203 -0.83256 0.03829523 0.8781251 -0.476896 255 255 255 255 0.048516 0.850575
-13.65205 2.896 -2.108025 0.03829523 0.8781251 -0.476896 255 255 255 255 0.048656 0.850208
-15.52165 3.137605 -1.81328 0.03829523 0.8781251 -0.476896 255 255 255 255 0.048492 0.850279
-8.52065 3.71203 -0.83256 6.081164e-07 0.8423505 -0.5389301 255 255 255 255 0.04906 0.850756
-10.2135 2.895995 -2.108025 1.216233e-06 0.8423494 -0.5389318 255 255 255 255 0.049045 0.850327
-13.65205 2.896 -2.108025 6.081164e-07 0.8423505 -0.5389301 255 255 255 255 0.048656 0.850208
-22.29695 21.12825 -1.55977 0.224553 -0.06946588 -0.9719827 255 255 255 255 0.145105 0.721133
-21.95275 22.2409 -1.55977 0.224553 -0.06946588 -0.9719827 255 255 255 255 0.148346 0.727086
-21.60345 21.16185 -1.401955 0.224553 -0.06946588 -0.9719827 255 255 255 255 0.150393 0.721449
-12.5 19.8538 -1.55977 -0.7032052 -0.5891156 -0.3980518 255 255 255 255 0.119651 0.709132
-12.988 20.80675 -2.108025 -0.7032052 -0.5891156 -0.3980518 255 255 255 255 0.124247 0.717022
-12.5 20.0671 -1.875455 -0.7032052 -0.5891156 -0.3980518 255 255 255 255 0.119651 0.71081
-14.83425 21.6508 -1.55977 -0.4551272 -0.5314842 -0.7144114 255 255 255 255 0.141632 0.726811
-14.34495 21.96875 -2.108025 -0.4551272 -0.5314842 -0.7144114 255 255 255 255 0.137025 0.727254
-12.988 20.80675 -2.108025 -0.4551272 -0.5314842 -0.7144114 255 255 255 255 0.124247 0.717022
-11.8485 20.9467 -2.108025 0 0 -1 255 255 255 255 0.113516 0.968254
-12.5 19.8538 -1.55977 0.5128968 -0.6091729 -0.6048515 255 255 255 255 0.119651 0.709132
-11.8485 20.9467 -2.108025 0.5128968 -0.6091729 -0.6048515 255 255 255 255 0.113516 0.718119
-10.21425 21.7783 -1.55977 0.5128968 -0.6091729 -0.6048515 255 255 255 255 0.098127 0.727254
-10.21425 21.7783 -1.55977 0.5111935 -0.5969217 -0.6183572 255 255 255 255 0.098127 0.727254
-11.8485 20.9467 -2.108025 0.5111935 -0.5969217 -0.6183572 255 255 255 255 0.113516 0.718119
-10.65505 21.96875 -2.108025 0.5111935 -0.5969217 -0.6183572 255 255 255 255 0.102278 0.727254
-11.83335 17.1949 -0.83256 0.01175478 0.4374612 -0.8991605 255 255 255 255 0.113273 0.915526
-14.35885 15.76805 -1.55977 0.01175478 0.4374612 -0.8991605 255 255 255 255 0.137071 0.90208
-18.93405 17.3857 -0.83256 0.01175478 0.4374612 -0.8991605 255 255 255 255 0.180185 0.917324
-25 17.1949 -0.83256 0 0 -1 255 255 255 255 0.237346 0.915526
-14.35885 15.76805 -1.55977 0 0.4100213 -0.9120759 255 255 255 255 0.137071 0.90208
-8e-07 17.1949 -0.83256 0 0.454937 -0.8905236 255 255 255 255 0.001764 0.915526
-10.23555 16.2584 -1.310985 0 0.454937 -0.8905236 255 255 255 255 0.098216 0.907064
-11.83335 17.1949 -0.83256 0 0.454937 -0.8905236 255 255 255 255 0.113273 0.915526
-3.98041 -3.1e-06 -0.83256 -0.7631517 0 -0.6462194 255 255 255 255 0.048639 0.850379
-3.98041 3.71203 -0.83256 -0.7631517 0 -0.6462194 255 255 255 255 0.048516 0.850575
-3.304195 3.325775 -1.631135 -0.7631517 0 -0.6462194 255 255 255 255 0.0485 0.850376
-3.98041 -3.1e-06 -0.83256 0 -1 1.568056e-07 255 255 255 255 0.048639 0.850379
-2.35875 2.896 -2.108025 0.05408649 0.7927231 -0.6071777 255 255 255 255 0.04852 0.850167
-3.304195 3.325775 -1.631135 0.05408649 0.7927231 -0.6071777 255 255 255 255 0.0485 0.850376
-0.00052865 3.71203 -0.83256 0.05408649 0.7927231 -0.6071777 255 255 255 255 0.048788 0.850665
-0.00052865 -3.3e-06 -2.108025 1 0 0 255 255 255 255 0.048908 0.850043
-16.4804 -3.1e-06 -0.83256 -0.6462587 -0.04071242 -0.7620317 255 255 255 255 0.048639 0.850379
-15.52165 3.137605 -1.81328 -0.6462587 -0.04071242 -0.7620317 255 255 255 255 0.048492 0.850279
-15.1184 2.253385 -2.108025 -0.6462587 -0.04071242 -0.7620317 255 255 255 255 0.048514 0.850111
-16.4804 -3.1e-06 -0.83256 0 -1 1.568056e-07 255 255 255 255 0.048639 0.850379
-21.02065 3.71203 -0.83256 0.6659954 0 -0.7459559 255 255 255 255 0.04906 0.850756
-25.00055 -3.3e-06 -2.108025 0 0 -1 255 255 255 255 0.048908 0.850043
-21.02065 -3.1e-06 -0.83256 0 -1 1.568056e-07 255 255 255 255 0.049165 0.850546
-25.00055 2.896 -2.108025 0 0.8423516 -0.5389284 255 255 255 255 0.048782 0.850247
-25.00055 3.71203 -0.83256 -1 0 0 255 255 255 255 0.048788 0.850665
-16.0429 21.05075 -0.83256 -0.8263467 0 -0.5631618 255 255 255 255 0.151251 0.720403
-8.9571 21.05075 -0.83256 0.8263201 0 -0.5632009 255 255 255 255 0.088051 0.720403
-15.5473 25 -1.55977 0 0 -1 255 255 255 255 0.148346 0.989053
-8.9571 21.05075 -0.83256 0.4985591 -0.5492535 -0.6706412 255 255 255 255 0.088051 0.720403
-12.5 17.83485 -0.83256 0.4985591 -0.5492535 -0.6706412 255 255 255 255 0.119651 0.69012
-12.4347 18.78205 -1.55977 0.4985591 -0.5492535 -0.6706412 255 255 255 255 0.119055 0.699039
-16.0429 21.05075 -0.83256 -0.4968998 -0.5847452 -0.6412205 255 255 255 255 0.151251 0.720403
-15.5473 21.42705 -1.55977 -0.4968998 -0.5847452 -0.6412205 255 255 255 255 0.148346 0.723947
-12.4347 18.78205 -1.55977 -0.4968998 -0.5847452 -0.6412205 255 255 255 255 0.119055 0.699039
-15.5473 25 -1.55977 0 1 0 255 255 255 255 0.148346 0.989053
-14.34495 21.96875 -2.108025 -0.7491549 0.01084858 -0.6623061 255 255 255 255 0.137025 0.727254
-14.83425 21.6508 -1.55977 -0.7491549 0.01084858 -0.6623061 255 255 255 255 0.141632 0.726811
-14.78575 25 -1.55977 -0.7491549 0.01084858 -0.6623061 255 255 255 255 0.141175 0.739053
-10.21425 21.7783 -1.55977 0.779344 0 -0.6265964 255 255 255 255 0.098127 0.727254
-14.34495 25 -2.108025 0 0 -1 255 255 255 255 0.137025 0.989053
-14.78575 25 -1.55977 0 1 0 255 255 255 255 0.141175 0.989053
-21.45715 25 -0.83256 0.6287962 0.09059995 -0.7722739 255 255 255 255 0.151251 0.739053
-21.60345 21.16185 -1.401955 0.6287962 0.09059995 -0.7722739 255 255 255 255 0.150393 0.721449
-21.95275 22.2409 -1.55977 0.6287962 0.09059995 -0.7722739 255 255 255 255 0.148346 0.727086
-21.45715 21.05075 -0.83256 0.5025444 -0.5789798 -0.6420526 255 255 255 255 0.151251 0.720403
-25 18.78205 -1.55977 0.5025444 -0.5789798 -0.6420526 255 255 255 255 0.119651 0.699039
-22.29695 21.12825 -1.55977 0.5025444 -0.5789798 -0.6420526 255 255 255 255 0.145105 0.721133
-23.15505 25 -2.108025 0.7793434 0 -0.626597 255 255 255 255 0.137025 0.739053
-25 20.3888 -2.108025 0.4599325 -0.4559533 -0.7619506 255 255 255 255 0.119651 0.713342
-23.15505 22.24985 -2.108025 0.4599325 -0.4559533 -0.7619506 255 255 255 255 0.137025 0.72853
-22.71425 21.7783 -1.55977 0.4599325 -0.4559533 -0.7619506 255 255 255 255 0.141175 0.727254
-25 20.3888 -2.108025 0 0 -1 255 255 255 255 0.119651 0.963342
-22.71425 25 -1.55977 0 1 0 255 255 255 255 0.141175 0.989053
-25 18.78205 -1.55977 0 0 -1 255 255 255 255 0.119651 0.949039
-21.45715 25 -0.83256 0 1 0 255 255 255 255 0.151251 0.989053
-25 25 -1.55977 -1 0 0 255 255 255 255 0.119651 0.989053
-25 25 -2.108025 -1 0 0 255 255 255 255 0.119651 0.989053
-25 20.3888 -2.108025 -1 0 0 255 255 255 255 0.119651 0.963342
-25 25 -0.83256 -1 0 0 255 255 255 255 0.119651 0.989053
-25 25 -1.55977 -1 0 0 255 255 255 255 0.119651 0.989053
-25 18.78205 -1.55977 -1 0 0 255 255 255 255 0.119651 0.949039
-2.869405 21.31525 -1.55977 -0.7336966 0 -0.6794772 255 255 255 255 0.146507 0.722507
-3.542875 21.05075 -0.83256 -0.7336966 0 -0.6794772 255 255 255 255 0.151251 0.720403
-3.542875 25 -0.83256 -0.7336966 0 -0.6794772 255 255 255 255 0.151251 0.739053
-3.542875 21.05075 -0.83256 -0.4954662 -0.5612241 -0.6629787 255 255 255 255 0.151251 0.720403
-2.869405 21.31525 -1.55977 -0.4954662 -0.5612241 -0.6629787 255 255 255 255 0.146507 0.722507
-7.5e-07 18.78205 -1.55977 -0.4954662 -0.5612241 -0.6629787 255 255 255 255 0.119651 0.699039
-1.93844 21.96875 -2.108025 -0.8447552 0 -0.5351531 255 255 255 255 0.137905 0.7279
-2.28576 21.7783 -1.55977 -0.8447552 0 -0.5351531 255 255 255 255 0.141175 0.727254
-2.28576 25 -1.55977 -0.8447552 0 -0.5351531 255 255 255 255 0.141175 0.739053
-2.28576 21.7783 -1.55977 -0.5249918 -0.6441119 -0.5563304 255 255 255 255 0.141175 0.727254
-1.93844 21.96875 -2.108025 -0.5249918 -0.6441119 -0.5563304 255 255 255 255 0.137905 0.7279
-7.5e-07 20.3888 -2.108025 -0.5249918 -0.6441119 -0.5563304 255 255 255 255 0.119651 0.713342
-1.84497 25 -2.108025 0 0 -1 255 255 255 255 0.137025 0.989053
-7.5e-07 25 -2.108025 0 1 0 255 255 255 255 0.119651 0.989053
-3.04728 25 -1.55977 0 0 -1 255 255 255 255 0.148346 0.989053
-7.5e-07 20.3888 -2.108025 1 0 2.827152e-06 255 255 255 255 0.119651 0.963342
-7.5e-07 25 -2.108025 1 0 2.827152e-06 255 255 255 255 0.119651 0.989053
-2.3e-06 25 -1.55977 1 0 2.827152e-06 255 255 255 255 0.119651 0.989053
-7.5e-07 18.78205 -1.55977 1 2.492783e-07 -2.062678e-06 255 255 255 255 0.119651 0.949039
-2.3e-06 25 -1.55977 1 2.492783e-07 -2.062678e-06 255 255 255 255 0.119651 0.989053
-8e-07 25 -0.83256 1 2.492783e-07 -2.062678e-06 255 255 255 255 0.119651 0.989053
-25 17.1949 -0.83256 -1 0 0 255 255 255 255 0.237346 0.915526
-25 25 -0.83256 0 1 0 255 255 255 255 0.237346 0.989076
-25 15.76805 -1.55977 -0.01428142 0.45404 -0.8908669 255 255 255 255 0.237346 0.90208
-25 17.1949 -0.83256 -0.01428142 0.45404 -0.8908669 255 255 255 255 0.237346 0.915526
-18.93405 17.3857 -0.83256 -0.01428142 0.45404 -0.8908669 255 255 255 255 0.180185 0.917324
-6.29035 15.76805 -1.55977 0 0.452458 -0.8917857 255 255 255 255 0.061039 0.90208
-8.0249 15.76805 -1.55977 0 0.452458 -0.8917857 255 255 255 255 0.077385 0.90208
-10.23555 16.2584 -1.310985 0 0.452458 -0.8917857 255 255 255 255 0.098216 0.907064
-9.45485 15.2641 -1.55977 1.802641e-07 -1.307618e-06 -1 255 255 255 255 0.09086 0.897332
-8e-07 25 -0.83256 1 0 0 255 255 255 255 0.001764 0.989076
-25 25 0.711955 0 1.983643e-07 1 255 255 255 255 0.237346 0.989076
-25 1e-07 0.71196 -1 0 0 255 255 255 255 0.237346 0.753493
-2.15054 -2.5e-07 -1.559765 0 0 -1 255 255 255 255 0.022029 0.753493
-22.84945 -2.5e-07 -1.559765 0 0 -1 255 255 255 255 0.217081 0.753493
-14.5699 11.6121 -1.55977 -0.3790406 -0.3484105 -0.8572854 255 255 255 255 0.13908 0.612317
-15.60495 10.9488 -0.83256 -0.3790406 -0.3484105 -0.8572854 255 255 255 255 0.148814 0.606667
-18.7097 14.3265 -0.83256 -0.3790406 -0.3484105 -0.8572854 255 255 255 255 0.178071 0.638496
-15.60495 10.9488 -0.83256 -0.5296971 0 -0.848187 255 255 255 255 0.148814 0.606667
-22.84945 11.26425 -1.559765 0.4400197 -0.4044532 -0.8017482 255 255 255 255 0.217081 0.60964
-18.7097 15.76805 -1.55977 0.4400197 -0.4044532 -0.8017482 255 255 255 255 0.178071 0.65208
-18.7097 14.3265 -0.83256 0.4400197 -0.4044532 -0.8017482 255 255 255 255 0.178071 0.638496
-10.4301 -2.5e-07 -1.559765 0 -1 1.375128e-07 255 255 255 255 0.10005 0.753493
-2.15054 11.26425 -1.559765 -0.4452377 -0.3933931 -0.8043664 255 255 255 255 0.022029 0.60964
-3.18559 10.9488 -0.83256 -0.4452377 -0.3933931 -0.8043664 255 255 255 255 0.031782 0.606667
-6.1357 14.2877 -0.83256 -0.4452377 -0.3933931 -0.8043664 255 255 255 255 0.059582 0.638131
-10.4301 11.26425 -1.559765 0.4020312 -0.3695353 -0.8377438 255 255 255 255 0.10005 0.60964
-6.29035 15.76805 -1.55977 0.4020312 -0.3695353 -0.8377438 255 255 255 255 0.061039 0.65208
-6.1357 14.2877 -0.83256 0.4020312 -0.3695353 -0.8377438 255 255 255 255 0.059582 0.638131
-9.39505 7.9576 -0.83256 0.536497 -0.01761751 -0.8437183 255 255 255 255 0.090296 0.583636
-10.5595 7.3237 -1.559765 0.536497 -0.01761751 -0.8437183 255 255 255 255 0.101038 0.579115
-10.4301 11.26425 -1.559765 0.536497 -0.01761751 -0.8437183 255 255 255 255 0.10005 0.60964
-9.39505 -1.5e-07 -0.83256 0 0 -1 255 255 255 255 0.090296 0.753493
-10.5595 7.3237 -1.559765 0.5296971 0 -0.848187 255 255 255 255 0.101038 0.579115
-9.39505 7.9576 -0.83256 0.5296971 0 -0.848187 255 255 255 255 0.090296 0.583636
-9.39505 -1.5e-07 -0.83256 0.5296971 0 -0.848187 255 255 255 255 0.090296 0.522365
-14.4405 5.4532 -1.559765 -0.5748248 0.01364019 -0.8181629 255 255 255 255 0.138071 0.56465
-14.5699 -2.5e-07 -1.559765 -0.5748248 0.01364019 -0.8181629 255 255 255 255 0.13906 0.522365
-15.60495 -1.5e-07 -0.83256 -0.5748248 0.01364019 -0.8181629 255 255 255 255 0.148814 0.522365
-22.84945 11.26425 -1.559765 0.5748777 0 -0.8182393 255 255 255 255 0.217081 0.60964
-2.15054 8.55665 -1.559765 -0.5726236 0.001455223 -0.8198172 255 255 255 255 0.022029 0.588632
-2.427475 7.76915 -1.36773 -0.5726236 0.001455223 -0.8198172 255 255 255 255 0.024638 0.582457
-3.18559 10.9488 -0.83256 -0.5726236 0.001455223 -0.8198172 255 255 255 255 0.031782 0.606667
-3.18559 -1.5e-07 -0.83256 -0.5721716 -0.0006614772 -0.8201337 255 255 255 255 0.031782 0.522365
-2.427475 7.76915 -1.36773 -0.5721716 -0.0006614772 -0.8201337 255 255 255 255 0.024638 0.582457
-2.15054 6.31775 -1.559765 -0.5721716 -0.0006614772 -0.8201337 255 255 255 255 0.022029 0.571315
-9.88265 2.628815 -2.108025 0.6037293 -0.07239246 -0.7938956 255 255 255 255 0.049093 0.850318
-9.205501 3.301705 -1.654435 0.6037293 -0.07239246 -0.7938956 255 255 255 255 0.049071 0.850547
-8.52065 -3.1e-06 -0.83256 0.6037293 -0.07239246 -0.7938956 255 255 255 255 0.049165 0.850546
-15.1184 2.253385 -2.108025 0 0 -1 255 255 255 255 0.048514 0.850111
-16.4804 3.71203 -0.83256 0 0.8423516 -0.5389284 255 255 255 255 0.048516 0.850575
-8.52065 3.71203 -0.83256 -0.2653471 0.9326329 -0.2445133 255 255 255 255 0.04906 0.850756
-9.205501 3.301705 -1.654435 -0.2653471 0.9326329 -0.2445133 255 255 255 255 0.049071 0.850547
-10.2135 2.895995 -2.108025 -0.2653471 0.9326329 -0.2445133 255 255 255 255 0.049045 0.850327
-12.5 19.8538 -1.55977 -0.4683977 -0.6084348 -0.640633 255 255 255 255 0.119651 0.709132
-14.83425 21.6508 -1.55977 -0.4683977 -0.6084348 -0.640633 255 255 255 255 0.141632 0.726811
-12.988 20.80675 -2.108025 -0.4683977 -0.6084348 -0.640633 255 255 255 255 0.124247 0.717022
-12.988 20.80675 -2.108025 0 0 -1 255 255 255 255 0.124247 0.967022
-12.5 19.8538 -1.55977 0.676591 -0.6101388 -0.4122566 255 255 255 255 0.119651 0.709132
-12.5 20.0671 -1.875455 0.676591 -0.6101388 -0.4122566 255 255 255 255 0.119651 0.71081
-11.8485 20.9467 -2.108025 0.676591 -0.6101388 -0.4122566 255 255 255 255 0.113516 0.718119
-11.83335 17.1949 -0.83256 -0.0003084539 0.4545196 -0.8907367 255 255 255 255 0.113273 0.915526
-10.23555 16.2584 -1.310985 -0.0003084539 0.4545196 -0.8907367 255 255 255 255 0.098216 0.907064
-14.35885 15.76805 -1.55977 -0.0003084539 0.4545196 -0.8907367 255 255 255 255 0.137071 0.90208
3 0 1 2 
3 3 4 5 
3 6 7 8 
3 9 10 11 
3 12 13 14 
3 15 16 17 
3 18 19 20 
3 21 22 23 
3 24 25 26 
3 27 28 29 
3 30 31 32 
3 33 34 35 
3 36 37 38 
3 39 40 41 
3 42 43 44 
3 45 46 47 
3 48 49 50 
3 51 52 53 
3 54 55 56 
3 57 58 59 
3 60 61 62 
3 63 64 65 
3 56 66 54 
3 67 68 69 
3 70 71 72 
3 73 74 75 
3 76 77 78 
3 79 80 81 
3 82 83 84 
3 85 86 87 
3 88 89 90 
3 91 92 93 
3 94 95 96 
3 97 98 99 
3 100 101 102 
3 103 104 105 
3 106 107 108 
3 108 107 109 
3 110 111 103 
3 112 113 114 
3 115 116 117 
3 118 119 120 
3 121 122 123 
3 124 125 126 
3 127 128 129 
3 130 131 132 
3 133 134 135 
3 136 137 138 
3 139 140 141 
3 142 143 144 
3 145 146 147 
3 148 149 150 
3 151 152 153 
3 154 155 156 
3 157 158 159 
3 160 161 162 
3 163 164 165 
3 166 167 168 
3 169 170 171 
3 172 173 174 
3 175 176 172 
3 177 178 179 
3 180 181 152 
3 182 183 184 
3 185 186 187 
3 188 189 190 
3 191 192 189 
3 173 193 174 
3 194 195 193 
3 193 196 174 
3 197 198 199 
3 200 201 175 
3 202 203 204 
3 179 205 177 
3 161 160 206 
3 207 208 209 
3 210 211 212 
3 213 214 215 
3 216 217 218 
3 219 161 206 
3 159 158 220 
3 221 222 219 
3 223 224 225 
3 226 227 228 
3 229 230 231 
3 232 233 234 
3 197 235 198 
3 202 236 203 
3 158 219 222 
3 220 158 222 
3 237 238 239 
3 240 241 242 
3 243 9 244 
3 245 235 197 
3 246 247 248 
3 249 250 251 
3 252 253 254 
3 255 256 257 
3 178 258 201 
3 258 175 201 
3 259 260 261 
3 262 263 264 
3 265 266 267 
3 268 269 270 
3 271 272 273 
3 274 275 276 
3 277 278 279 
3 280 281 282 
3 283 284 285 
3 286 287 288 
3 289 290 287 
3 291 292 293 
3 294 295 296 
3 297 298 299 
3 300 301 302 
3 303 304 305 
3 306 73 75 
3 307 308 309 
3 310 311 312 
3 313 314 315 
3 316 188 190 
3 164 317 165 
3 318 319 320 
3 321 322 323 
3 6 324 7 
3 325 326 327 
3 18 328 19 
3 329 330 331 
3 27 332 28 
3 33 333 34 
3 36 334 37 
3 39 335 40 
3 42 336 43 
3 45 337 46 
3 48 338 49 
3 51 339 52 
3 54 340 55 
3 341 342 343 
3 344 345 346 
3 63 347 64 
3 348 349 350 
3 70 351 71 
3 73 352 74 
3 79 353 80 
3 354 355 356 
3 357 358 359 
3 94 360 95 
3 361 362 363 
3 100 364 101 
3 103 365 104 
3 106 366 107 
3 110 367 111 
3 368 369 370 
3 371 372 373 
3 374 375 376 
3 377 378 379 
3 380 381 382 
3 383 384 385 
3 130 386 131 
3 133 387 134 
3 136 388 137 
3 139 133 140 
3 389 390 391 
3 392 393 394 
3 148 395 149 
3 151 180 152 
3 154 396 155 
3 397 398 399 
3 400 401 402 
3 175 403 176 
3 180 404 181 
3 182 405 183 
3 185 406 186 
3 188 191 189 
3 173 194 193 
3 194 407 195 
3 200 249 201 
3 179 408 205 
3 409 410 411 
3 252 254 412 
3 413 414 415 
3 221 416 222 
3 417 418 419 
3 420 421 422 
3 423 424 425 
3 202 263 236 
3 158 161 219 
3 243 10 9 
3 245 426 235 
3 427 428 429 
3 249 200 250 
3 430 431 432 
3 258 403 175 
3 262 236 263 
3 265 433 266 
3 434 435 436 
3 437 438 439 
3 440 441 442 
3 286 289 287 
3 289 443 290 
3 444 294 296 
3 445 446 447 
3 448 449 450 
3 306 451 73 
3 452 453 454 
3 455 456 457 
