ply
format ascii 1.0
comment VCGLIB generated
comment TextureFile dummy.png
element vertex 483
property float x
property float y
property float z
property float nx
property float ny
property float nz
property uchar red
property uchar green
property uchar blue
property uchar alpha
property float texture_u
property float texture_v
element face 248
property list uchar int vertex_indices
end_header
-0.095593 0.38932 -1.578705 0 -0.4999987 -0.8660262 255 255 255 255 0.079792 0.281112
0.095593 1.24215 -2.071085 0 -0.4999987 -0.8660262 255 255 255 255 0.079824 0.280692
0.095593 0.38932 -1.578705 0 -0.4999987 -0.8660262 255 255 255 255 0.079829 0.281151
-0.095593 2.00596 -2.691495 0 0.7802151 -0.6255113 255 255 255 255 0.079698 0.28016
0.095593 2.06479 -2.618115 0 0.7802151 -0.6255113 255 255 255 255 0.079802 0.280159
0.095593 2.00596 -2.691495 0 0.7802151 -0.6255113 255 255 255 255 0.079736 0.280169
-0.095593 1.289045 -1.989865 0 0.4999974 0.8660269 255 255 255 255 0.079846 0.280662
0.095593 0.436212 -1.497485 0 0.4999974 0.8660269 255 255 255 255 0.07989 0.281142
0.095593 1.289045 -1.989865 0 0.4999974 0.8660269 255 255 255 255 0.079887 0.280687
-0.095593 0.436212 -1.497485 0 -0.8660272 0.4999968 255 255 255 255 0.07985 0.281104
0.095593 0.38932 -1.578705 0 -0.8660272 0.4999968 255 255 255 255 0.079829 0.281151
0.095593 0.436212 -1.497485 0 -0.8660272 0.4999968 255 255 255 255 0.07989 0.281142
-0.095593 0.436212 -1.497485 -1 0 0 255 255 255 255 0.07985 0.281104
-0.095593 1.24215 -2.071085 -1 0 0 255 255 255 255 0.079785 0.280667
-0.095593 0.38932 -1.578705 -1 0 0 255 255 255 255 0.079792 0.281112
0.095593 0.38932 -1.578705 1 0 0 255 255 255 255 0.079829 0.281151
0.095593 1.289045 -1.989865 1 0 0 255 255 255 255 0.079887 0.280687
0.095593 0.436212 -1.497485 1 0 0 255 255 255 255 0.07989 0.281142
-0.095593 1.24215 -2.071085 0 -0.630479 -0.7762064 255 255 255 255 0.079785 0.280667
0.095593 2.00596 -2.691495 0 -0.630479 -0.7762064 255 255 255 255 0.079736 0.280169
0.095593 1.24215 -2.071085 0 -0.630479 -0.7762064 255 255 255 255 0.079824 0.280692
-0.095593 2.06479 -2.618115 -1 0 0 255 255 255 255 0.079762 0.280151
-0.095593 2.00596 -2.691495 -1 0 0 255 255 255 255 0.079698 0.28016
0.095593 1.289045 -1.989865 0 0.6293592 0.7771145 255 255 255 255 0.079887 0.280687
-0.095593 2.06479 -2.618115 0 0.6293592 0.7771145 255 255 255 255 0.079762 0.280151
-0.095593 1.289045 -1.989865 0 0.6293592 0.7771145 255 255 255 255 0.079846 0.280662
0.095593 1.24215 -2.071085 1 0 0 255 255 255 255 0.079824 0.280692
0.095593 2.06479 -2.618115 1 0 0 255 255 255 255 0.079802 0.280159
0.457114 2.043945 -2.000965 -0.8631315 0.3198985 0.3907289 255 255 255 255 0.080182 0.278844
0.2355625 1.96817 -2.42834 -0.8631315 0.3198985 0.3907289 255 255 255 255 0.080304 0.278689
0.228557 1.846005 -2.3438 -0.8631338 0.3198885 0.3907319 255 255 255 255 0.080304 0.278803
0.228557 2.24188 -1.65813 -0.863133 -0.1784386 -0.4723994 255 255 255 255 0.080277 0.278891
0.4711245 2.17217 -2.075 -0.863133 -0.1784386 -0.4723994 255 255 255 255 0.080181 0.278728
0.457114 2.043945 -2.000965 -0.8631324 -0.1784446 -0.4723981 255 255 255 255 0.080182 0.278844
-0.2355625 2.376175 -1.721655 0 -0.4276005 -0.9039678 255 255 255 255 0.080502 0.278775
0.228557 2.24188 -1.65813 0 -0.4276005 -0.9039678 255 255 255 255 0.080277 0.278891
-0.228557 2.24188 -1.65813 0 -0.4276005 -0.9039678 255 255 255 255 0.080501 0.278895
-0.4711245 2.17217 -2.075 0.863133 -0.1784385 -0.4723994 255 255 255 255 0.08062 0.278734
-0.228557 2.24188 -1.65813 0.863133 -0.1784385 -0.4723994 255 255 255 255 0.080501 0.278895
-0.457114 2.043945 -2.000965 0.8631325 -0.1784446 -0.472398 255 255 255 255 0.080619 0.27885
-0.228557 1.846005 -2.3438 0.8631324 0.319906 0.3907208 255 255 255 255 0.080518 0.278806
-0.4711245 2.17217 -2.075 0.8631324 0.319906 0.3907208 255 255 255 255 0.08062 0.278734
-0.457114 2.043945 -2.000965 0.8631324 0.319906 0.3907208 255 255 255 255 0.080619 0.27885
0.2355625 1.96817 -2.42834 0 0.5690475 0.8223047 255 255 255 255 0.080304 0.278689
-0.228557 1.846005 -2.3438 0 0.5690475 0.8223047 255 255 255 255 0.080518 0.278806
0.228557 1.846005 -2.3438 0 0.5690475 0.8223047 255 255 255 255 0.080304 0.278803
0.276403 1.80457 -2.41557 0.8618033 -0.3341969 -0.3815855 255 255 255 255 0.080304 0.278803
0.56975 2.17217 -2.075 0.8618033 -0.3341969 -0.3815855 255 255 255 255 0.080181 0.278728
0.552805 2.043945 -2.000965 0.8618038 -0.3342046 -0.3815777 255 255 255 255 0.080182 0.278844
0.552805 2.043945 -2.000965 0.8618044 0.1633767 0.4802097 255 255 255 255 0.080182 0.278844
0.284874 2.41888 -1.647685 0.8618044 0.1633767 0.4802097 255 255 255 255 0.080276 0.278772
0.2764025 2.283315 -1.58636 0.8618043 0.1633764 0.4802099 255 255 255 255 0.080277 0.278891
0.2764025 2.283315 -1.58636 0 0.412157 0.9111128 255 255 255 255 0.080277 0.278891
-0.2848745 2.41888 -1.647685 0 0.412157 0.9111128 255 255 255 255 0.080502 0.278775
-0.2764025 2.283315 -1.58636 0 0.412157 0.9111128 255 255 255 255 0.080501 0.278895
-0.2764025 2.283315 -1.58636 -0.8618044 0.1633753 0.4802101 255 255 255 255 0.080501 0.278895
-0.56975 2.17217 -2.075 -0.8618044 0.1633753 0.4802101 255 255 255 255 0.08062 0.278734
-0.552805 2.043945 -2.000965 -0.8618044 0.1633771 0.4802096 255 255 255 255 0.080619 0.27885
-0.552805 2.043945 -2.000965 -0.8618029 -0.334197 -0.3815863 255 255 255 255 0.080619 0.27885
-0.284874 1.92546 -2.50231 -0.8618029 -0.334197 -0.3815863 255 255 255 255 0.080518 0.278692
-0.2764025 1.80457 -2.41557 -0.8618053 -0.3341869 -0.3815899 255 255 255 255 0.080518 0.278806
-0.2764025 1.80457 -2.41557 0 -0.582972 -0.8124923 255 255 255 255 0.080518 0.278806
0.2848745 1.92546 -2.50231 0 -0.582972 -0.8124923 255 255 255 255 0.080304 0.278689
0.276403 1.80457 -2.41557 0 -0.582972 -0.8124923 255 255 255 255 0.080304 0.278803
0.457114 2.043945 -2.000965 0 -0.8660231 0.500004 255 255 255 255 0.080182 0.278844
0.276403 1.80457 -2.41557 0 -0.8660231 0.500004 255 255 255 255 0.080304 0.278803
0.552805 2.043945 -2.000965 0 -0.8660231 0.500004 255 255 255 255 0.080182 0.278844
0.2848745 1.92546 -2.50231 0 0.8660233 -0.5000038 255 255 255 255 0.080304 0.278689
0.4711245 2.17217 -2.075 0 0.8660233 -0.5000038 255 255 255 255 0.080181 0.278728
0.56975 2.17217 -2.075 0 0.8660233 -0.5000038 255 255 255 255 0.080181 0.278728
0.2764025 2.283315 -1.58636 0 -0.8660274 0.4999967 255 255 255 255 0.080277 0.278891
0.457114 2.043945 -2.000965 0 -0.8660274 0.4999967 255 255 255 255 0.080182 0.278844
0.552805 2.043945 -2.000965 0 -0.8660274 0.4999967 255 255 255 255 0.080182 0.278844
0.4711245 2.17217 -2.075 7.465497e-06 0.8660271 -0.499997 255 255 255 255 0.080181 0.278728
0.284874 2.41888 -1.647685 7.465497e-06 0.8660271 -0.499997 255 255 255 255 0.080276 0.278772
0.56975 2.17217 -2.075 0 0.8660257 -0.4999994 255 255 255 255 0.080181 0.278728
-0.2764025 2.283315 -1.58636 0 -0.8660329 0.499987 255 255 255 255 0.080501 0.278895
0.228557 2.24188 -1.65813 0 -0.8660329 0.499987 255 255 255 255 0.080277 0.278891
0.2764025 2.283315 -1.58636 0 -0.8660329 0.499987 255 255 255 255 0.080277 0.278891
0.2355625 2.376175 -1.721655 0 0.8660328 -0.4999871 255 255 255 255 0.080276 0.278772
-0.2848745 2.41888 -1.647685 0 0.8660328 -0.4999871 255 255 255 255 0.080502 0.278775
0.284874 2.41888 -1.647685 0 0.8660328 -0.4999871 255 255 255 255 0.080276 0.278772
-0.457114 2.043945 -2.000965 0 -0.8660252 0.5000004 255 255 255 255 0.080619 0.27885
-0.2764025 2.283315 -1.58636 0 -0.8660274 0.4999967 255 255 255 255 0.080501 0.278895
-0.552805 2.043945 -2.000965 0 -0.8660252 0.5000004 255 255 255 255 0.080619 0.27885
-0.2848745 2.41888 -1.647685 0 0.8660257 -0.4999994 255 255 255 255 0.080502 0.278775
-0.4711245 2.17217 -2.075 0 0.8660245 -0.5000015 255 255 255 255 0.08062 0.278734
-0.56975 2.17217 -2.075 0 0.8660245 -0.5000015 255 255 255 255 0.08062 0.278734
-0.2764025 1.80457 -2.41557 0 -0.8660231 0.500004 255 255 255 255 0.080518 0.278806
-0.284874 1.92546 -2.50231 0 0.8660232 -0.5000038 255 255 255 255 0.080518 0.278692
0.276403 1.80457 -2.41557 0 -0.866033 0.499987 255 255 255 255 0.080304 0.278803
-0.228557 1.846005 -2.3438 0 -0.866033 0.499987 255 255 255 255 0.080518 0.278806
-0.2764025 1.80457 -2.41557 0 -0.866033 0.499987 255 255 255 255 0.080518 0.278806
-0.235562 1.96817 -2.42834 0 0.8660086 -0.500029 255 255 255 255 0.080518 0.278692
0.2848745 1.92546 -2.50231 0 0.8660086 -0.500029 255 255 255 255 0.080304 0.278689
-0.284874 1.92546 -2.50231 0 0.8660086 -0.500029 255 255 255 255 0.080518 0.278692
0.461622 0.572335 -1.261715 1 0 0 255 255 255 255 0.079792 0.281112
0.461622 1.52076 -1.588525 1 0 0 255 255 255 255 0.079824 0.280692
0.461622 0.66793 -1.09614 1 0 0 255 255 255 255 0.079829 0.281151
0.6170101 2.36226 -2.074365 0.1516079 0.8560221 -0.4942077 255 255 255 255 0.079736 0.280169
0.524045 2.27902 -2.247065 0.1516079 0.8560221 -0.4942077 255 255 255 255 0.079762 0.280151
0.524045 2.37461 -2.081495 0.1516213 0.8560171 -0.4942124 255 255 255 255 0.079802 0.280159
0.3678375 1.52076 -1.588525 -1 0 0 255 255 255 255 0.079887 0.280687
0.3678375 0.572335 -1.261715 -1 0 0 255 255 255 255 0.07985 0.281104
0.3678375 0.66793 -1.09614 -1 0 0 255 255 255 255 0.07989 0.281142
0.3678375 0.572335 -1.261715 0 -0.866025 0.5000008 255 255 255 255 0.07985 0.281104
0.461622 0.66793 -1.09614 0 -0.866025 0.5000008 255 255 255 255 0.079829 0.281151
0.3678375 0.66793 -1.09614 0 -0.866025 0.5000008 255 255 255 255 0.07989 0.281142
0.3678375 0.572335 -1.261715 0 -0.4999988 -0.8660261 255 255 255 255 0.07985 0.281104
0.461622 1.425165 -1.754095 -1.215943e-05 -0.4999974 -0.8660269 255 255 255 255 0.079785 0.280667
0.461622 0.572335 -1.261715 0 -0.4999988 -0.8660261 255 255 255 255 0.079792 0.281112
0.461622 0.66793 -1.09614 0 0.5000026 0.8660239 255 255 255 255 0.079829 0.281151
0.3678375 1.52076 -1.588525 0 0.5000016 0.8660245 255 255 255 255 0.079887 0.280687
0.3678375 0.66793 -1.09614 0 0.5000026 0.8660239 255 255 255 255 0.07989 0.281142
0.461622 1.52076 -1.588525 0.9874536 -0.1367542 0.0789544 255 255 255 255 0.079824 0.280692
0.6170101 2.26667 -2.23994 0.9874536 -0.1367542 0.0789544 255 255 255 255 0.079698 0.28016
0.6170101 2.36226 -2.074365 0.9874535 -0.1367561 0.07895225 255 255 255 255 0.079736 0.280169
0.524045 2.27902 -2.247065 -2.431885e-05 -0.499996 -0.8660277 255 255 255 255 0.079762 0.280151
0.6170101 2.26667 -2.23994 -4.86377e-05 -0.4999946 -0.8660285 255 255 255 255 0.079698 0.28016
0.3678375 1.52076 -1.588525 -0.9876807 0.1355179 -0.0782418 255 255 255 255 0.079887 0.280687
0.524045 2.27902 -2.247065 -0.9876807 0.1355179 -0.0782418 255 255 255 255 0.079762 0.280151
0.3678375 1.425165 -1.754095 -0.9876808 0.1355167 -0.07824312 255 255 255 255 0.079846 0.280662
0.461622 1.52076 -1.588525 5.4958e-07 0.5000007 0.866025 255 255 255 255 0.079824 0.280692
0.524045 2.37461 -2.081495 8.243699e-07 0.4999996 0.8660257 255 255 255 255 0.079802 0.280159
0.095593 0.85094 -0.77915 0 0.5000004 0.8660252 255 255 255 255 0.079792 0.281112
-0.095593 1.703775 -1.271535 0 0.5000004 0.8660252 255 255 255 255 0.079824 0.280692
-0.095593 0.85094 -0.77915 0 0.5000004 0.8660252 255 255 255 255 0.079829 0.281151
0.095593 2.62297 -1.622805 0 0.9318148 -0.3629342 255 255 255 255 0.079698 0.28016
-0.095593 2.588835 -1.710445 0 0.9318148 -0.3629342 255 255 255 255 0.079802 0.280159
-0.095593 2.62297 -1.622805 0 0.9318148 -0.3629342 255 255 255 255 0.079736 0.280169
0.095593 1.65688 -1.35275 0 -0.4999988 -0.8660261 255 255 255 255 0.079846 0.280662
-0.095593 0.80405 -0.86037 0 -0.4999988 -0.8660261 255 255 255 255 0.07989 0.281142
-0.095593 1.65688 -1.35275 0 -0.4999988 -0.8660261 255 255 255 255 0.079887 0.280687
0.095593 0.80405 -0.86037 0 -0.866036 0.4999816 255 255 255 255 0.07985 0.281104
-0.095593 0.85094 -0.77915 0 -0.866036 0.4999816 255 255 255 255 0.079829 0.281151
-0.095593 0.80405 -0.86037 0 -0.866036 0.4999816 255 255 255 255 0.07989 0.281142
0.095593 0.85094 -0.77915 1 0 0 255 255 255 255 0.079792 0.281112
0.095593 1.65688 -1.35275 1 0 0 255 255 255 255 0.079846 0.280662
0.095593 1.703775 -1.271535 1 0 0 255 255 255 255 0.079785 0.280667
-0.095593 0.85094 -0.77915 -1 0 0 255 255 255 255 0.079829 0.281151
-0.095593 1.65688 -1.35275 -1 0 0 255 255 255 255 0.079887 0.280687
-0.095593 0.80405 -0.86037 -1 0 0 255 255 255 255 0.07989 0.281142
0.095593 1.703775 -1.271535 0 0.3569718 0.9341152 255 255 255 255 0.079785 0.280667
-0.095593 2.62297 -1.622805 0 0.3569718 0.9341152 255 255 255 255 0.079736 0.280169
-0.095593 1.703775 -1.271535 0 0.3569718 0.9341152 255 255 255 255 0.079824 0.280692
0.095593 2.588835 -1.710445 1 0 0 255 255 255 255 0.079762 0.280151
0.095593 2.62297 -1.622805 1 0 0 255 255 255 255 0.079698 0.28016
-0.095593 1.65688 -1.35275 0 -0.3583252 -0.9335968 255 255 255 255 0.079887 0.280687
0.095593 2.588835 -1.710445 0 -0.3583252 -0.9335968 255 255 255 255 0.079762 0.280151
0.095593 1.65688 -1.35275 0 -0.3583252 -0.9335968 255 255 255 255 0.079846 0.280662
-0.095593 1.703775 -1.271535 -1 0 0 255 255 255 255 0.079824 0.280692
-0.095593 2.588835 -1.710445 -1 0 0 255 255 255 255 0.079802 0.280159
-0.1596 0.073913 -1.099065 0 1 0 255 255 255 255 0.080518 0.278692
0.3192005 0.073913 -0.82263 0 1 0 255 255 255 255 0.080181 0.278728
0.1596 0.073913 -1.099065 0 1 0 255 255 255 255 0.080304 0.278689
0.1596 -0.067894 -1.099065 0.8660245 0 -0.5000015 255 255 255 255 0.080304 0.278803
0.3192005 0.073913 -0.82263 0.8660245 0 -0.5000015 255 255 255 255 0.080181 0.278728
0.3192005 -0.0678935 -0.82263 0.8660245 0 -0.5000015 255 255 255 255 0.080182 0.278844
0.3192005 -0.0678935 -0.82263 0.847408 0 0.5309423 255 255 255 255 0.080182 0.278844
0.1460005 0.073913 -0.546195 0.847408 0 0.5309423 255 255 255 255 0.080276 0.278772
0.1460005 -0.0678935 -0.546195 0.847408 0 0.5309423 255 255 255 255 0.080277 0.278891
0.1460005 -0.0678935 0.144017 0 0 1 255 255 255 255 0.080277 0.278891
-0.146001 0.073913 0.144017 0 0 1 255 255 255 255 0.080502 0.278775
-0.146001 -0.0678935 0.144017 0 0 1 255 255 255 255 0.080501 0.278895
-0.146001 -0.0678935 -0.546195 -0.8474087 0 0.5309412 255 255 255 255 0.080501 0.278895
-0.3192005 0.073913 -0.82263 -0.8474087 0 0.5309412 255 255 255 255 0.08062 0.278734
-0.3192005 -0.0678935 -0.82263 -0.8474087 0 0.5309412 255 255 255 255 0.080619 0.27885
-0.3192005 -0.0678935 -0.82263 -0.8660245 0 -0.5000017 255 255 255 255 0.080619 0.27885
-0.1596 0.073913 -1.099065 -0.8660245 0 -0.5000017 255 255 255 255 0.080518 0.278692
-0.1596 -0.067894 -1.099065 -0.8660245 0 -0.5000017 255 255 255 255 0.080518 0.278806
-0.1596 -0.067894 -1.099065 0 0 -1 255 255 255 255 0.080518 0.278806
0.1596 0.073913 -1.099065 0 0 -1 255 255 255 255 0.080304 0.278689
0.1596 -0.067894 -1.099065 0 0 -1 255 255 255 255 0.080304 0.278803
-0.1596 -0.067894 -1.099065 0 -1 1.8112e-06 255 255 255 255 0.080518 0.278806
0.3192005 -0.0678935 -0.82263 0 -1 9.055999e-07 255 255 255 255 0.080182 0.278844
-0.3192005 -0.0678935 -0.82263 0 -1 9.056e-07 255 255 255 255 0.080619 0.27885
-0.146001 -0.0678935 -0.546195 0 -1 0 255 255 255 255 0.080501 0.278895
0.1460005 -0.0678935 -0.546195 0 -1 0 255 255 255 255 0.080277 0.278891
-0.146001 0.073913 -0.546195 0 1 0 255 255 255 255 0.080502 0.278775
0.1460005 0.073913 -0.546195 0 1 0 255 255 255 255 0.080276 0.278772
-0.146001 -0.0678935 0.144017 0 -1 0 255 255 255 255 0.080501 0.278895
0.1460005 0.073913 -0.546195 1 0 0 255 255 255 255 0.080276 0.278772
0.1460005 -0.0678935 0.144017 1 0 0 255 255 255 255 0.080277 0.278891
0.1460005 -0.0678935 -0.546195 1 0 0 255 255 255 255 0.080277 0.278891
0.1460005 0.073913 0.144017 0 1 0 255 255 255 255 0.080276 0.278772
-0.146001 -0.0678935 -0.546195 -1 0 0 255 255 255 255 0.080501 0.278895
-0.146001 0.073913 0.144017 -1 0 0 255 255 255 255 0.080502 0.278775
-0.146001 0.073913 -0.546195 -1 0 0 255 255 255 255 0.080502 0.278775
-0.461622 0.66793 -1.09614 -1 0 0 255 255 255 255 0.079792 0.281112
-0.461622 1.425165 -1.754095 -1 0 0 255 255 255 255 0.079824 0.280692
-0.461622 0.572335 -1.261715 -1 0 0 255 255 255 255 0.079829 0.281151
-0.6170101 2.36226 -2.074365 -0.1516079 0.8560221 -0.4942077 255 255 255 255 0.079698 0.28016
-0.524045 2.27902 -2.247065 -0.1516079 0.8560221 -0.4942077 255 255 255 255 0.079802 0.280159
-0.6170101 2.26667 -2.23994 -0.1515945 0.8560272 -0.4942029 255 255 255 255 0.079736 0.280169
-0.3678375 1.52076 -1.588525 1 0 0 255 255 255 255 0.079846 0.280662
-0.3678375 0.572335 -1.261715 1 0 0 255 255 255 255 0.07989 0.281142
-0.3678375 1.425165 -1.754095 1 0 0 255 255 255 255 0.079887 0.280687
-0.3678375 0.66793 -1.09614 0 -0.866025 0.5000008 255 255 255 255 0.07985 0.281104
-0.461622 0.572335 -1.261715 0 -0.866025 0.5000008 255 255 255 255 0.079829 0.281151
-0.3678375 0.572335 -1.261715 0 -0.866025 0.5000008 255 255 255 255 0.07989 0.281142
-0.3678375 0.66793 -1.09614 0 0.5000026 0.8660239 255 255 255 255 0.07985 0.281104
-0.461622 1.52076 -1.588525 -4.12185e-07 0.5000011 0.8660248 255 255 255 255 0.079785 0.280667
-0.461622 0.66793 -1.09614 0 0.5000026 0.8660239 255 255 255 255 0.079792 0.281112
-0.461622 0.572335 -1.261715 0 -0.4999988 -0.8660261 255 255 255 255 0.079829 0.281151
-0.3678375 1.425165 -1.754095 0 -0.4999983 -0.8660264 255 255 255 255 0.079887 0.280687
-0.3678375 0.572335 -1.261715 0 -0.4999988 -0.8660261 255 255 255 255 0.07989 0.281142
-0.461622 1.52076 -1.588525 -0.9874536 -0.1367542 0.0789544 255 255 255 255 0.079785 0.280667
-0.6170101 2.26667 -2.23994 -0.9874536 -0.1367542 0.0789544 255 255 255 255 0.079736 0.280169
-0.461622 1.425165 -1.754095 -0.9874536 -0.1367524 0.07895654 255 255 255 255 0.079824 0.280692
-0.524045 2.37461 -2.081495 -8.243699e-07 0.4999996 0.8660257 255 255 255 255 0.079762 0.280151
-0.6170101 2.36226 -2.074365 -1.64874e-06 0.4999996 0.8660257 255 255 255 255 0.079698 0.28016
-0.3678375 1.425165 -1.754095 0.9876807 0.1355179 -0.0782418 255 255 255 255 0.079887 0.280687
-0.524045 2.37461 -2.081495 0.9876807 0.1355179 -0.0782418 255 255 255 255 0.079762 0.280151
-0.3678375 1.52076 -1.588525 0.9876807 0.1355173 -0.07824344 255 255 255 255 0.079846 0.280662
-0.461622 1.425165 -1.754095 1.621257e-05 -0.4999969 -0.8660272 255 255 255 255 0.079824 0.280692
-0.524045 2.27902 -2.247065 2.431885e-05 -0.499996 -0.8660277 255 255 255 255 0.079802 0.280159
0.3323665 1.45288 -1.659715 -0.8660262 0.2499977 0.4330124 255 255 255 255 0.080181 0.278728
0.1661835 1.180735 -1.83496 -0.8660262 0.2499977 0.4330124 255 255 255 255 0.080304 0.278803
0.3323665 1.324655 -1.585685 -0.8660262 0.2499977 0.4330124 255 255 255 255 0.080182 0.278844
0.1661835 1.46857 -1.33641 -0.8660243 -0.2499993 -0.4330153 255 255 255 255 0.080277 0.278891
0.3323665 1.45288 -1.659715 -0.8660243 -0.2499993 -0.4330153 255 255 255 255 0.080181 0.278728
0.3323665 1.324655 -1.585685 -0.8660243 -0.2499993 -0.4330153 255 255 255 255 0.080182 0.278844
-0.1661835 1.5968 -1.41044 0 -0.4999813 -0.8660362 255 255 255 255 0.080502 0.278775
0.1661835 1.46857 -1.33641 0 -0.4999813 -0.8660362 255 255 255 255 0.080277 0.278891
-0.1661835 1.46857 -1.33641 0 -0.4999813 -0.8660362 255 255 255 255 0.080501 0.278895
-0.3323665 1.324655 -1.585685 0.8660253 -0.2499946 -0.433016 255 255 255 255 0.080619 0.27885
-0.1661835 1.5968 -1.41044 0.8660253 -0.2499946 -0.433016 255 255 255 255 0.080502 0.278775
-0.1661835 1.46857 -1.33641 0.8660244 -0.2499916 -0.4330197 255 255 255 255 0.080501 0.278895
-0.166183 1.180735 -1.83496 0.8660256 0.2499982 0.4330134 255 255 255 255 0.080518 0.278806
-0.3323665 1.45288 -1.659715 0.8660256 0.2499982 0.4330134 255 255 255 255 0.08062 0.278734
-0.3323665 1.324655 -1.585685 0.8660256 0.2499982 0.4330134 255 255 255 255 0.080619 0.27885
0.1661835 1.30896 -1.90899 0 0.499996 0.8660277 255 255 255 255 0.080304 0.278689
-0.166183 1.180735 -1.83496 0 0.499996 0.8660277 255 255 255 255 0.080518 0.278806
0.1661835 1.180735 -1.83496 0 0.499996 0.8660277 255 255 255 255 0.080304 0.278803
0.2123715 1.140735 -1.90424 0.866025 -0.2499985 -0.4330144 255 255 255 255 0.080304 0.278803
0.4247425 1.45288 -1.659715 0.866025 -0.2499985 -0.4330144 255 255 255 255 0.080181 0.278728
0.4247425 1.324655 -1.585685 0.866025 -0.2499987 -0.4330142 255 255 255 255 0.080182 0.278844
0.4247425 1.324655 -1.585685 0.8660256 0.2500008 0.4330119 255 255 255 255 0.080182 0.278844
0.2123715 1.6368 -1.34116 0.8660256 0.2500008 0.4330119 255 255 255 255 0.080276 0.278772
0.2123715 1.50857 -1.267125 0.8660261 0.2500029 0.4330097 255 255 255 255 0.080277 0.278891
0.2123715 1.50857 -1.267125 0 0.5000069 0.8660215 255 255 255 255 0.080277 0.278891
-0.2123715 1.6368 -1.34116 0 0.5000069 0.8660215 255 255 255 255 0.080502 0.278775
-0.2123715 1.50857 -1.267125 0 0.5000069 0.8660215 255 255 255 255 0.080501 0.278895
-0.4247425 1.324655 -1.585685 -0.8660256 0.2500008 0.4330119 255 255 255 255 0.080619 0.27885
-0.2123715 1.6368 -1.34116 -0.8660256 0.2500008 0.4330119 255 255 255 255 0.080502 0.278775
-0.4247425 1.45288 -1.659715 -0.866025 0.2499987 0.4330142 255 255 255 255 0.08062 0.278734
-0.4247425 1.324655 -1.585685 -0.866025 -0.2499985 -0.4330144 255 255 255 255 0.080619 0.27885
-0.2123715 1.26896 -1.97827 -0.866025 -0.2499985 -0.4330144 255 255 255 255 0.080518 0.278692
-0.2123715 1.140735 -1.90424 -0.8660251 -0.2499982 -0.4330145 255 255 255 255 0.080518 0.278806
-0.2123715 1.140735 -1.90424 0 -0.4999958 -0.8660279 255 255 255 255 0.080518 0.278806
0.2123715 1.26896 -1.97827 0 -0.4999958 -0.8660279 255 255 255 255 0.080304 0.278689
0.2123715 1.140735 -1.90424 0 -0.4999958 -0.8660279 255 255 255 255 0.080304 0.278803
0.4247425 1.324655 -1.585685 -2.292107e-06 -0.8660256 0.4999996 255 255 255 255 0.080182 0.278844
0.1661835 1.180735 -1.83496 -1.71908e-06 -0.8660207 0.5000082 255 255 255 255 0.080304 0.278803
0.2123715 1.140735 -1.90424 -3.43816e-06 -0.8660199 0.5000095 255 255 255 255 0.080304 0.278803
0.1661835 1.30896 -1.90899 2.876829e-06 0.8660203 -0.5000089 255 255 255 255 0.080304 0.278689
0.4247425 1.45288 -1.659715 5.753658e-06 0.8660211 -0.5000075 255 255 255 255 0.080181 0.278728
0.2123715 1.26896 -1.97827 1.917886e-06 0.86602 -0.5000094 255 255 255 255 0.080304 0.278689
0.2123715 1.50857 -1.267125 -2.151984e-06 -0.8660333 0.4999863 255 255 255 255 0.080277 0.278891
0.3323665 1.324655 -1.585685 -2.151984e-06 -0.8660297 0.4999926 255 255 255 255 0.080182 0.278844
0.3323665 1.45288 -1.659715 0 0.8660229 -0.5000044 255 255 255 255 0.080181 0.278728
0.2123715 1.6368 -1.34116 0 0.8660229 -0.5000044 255 255 255 255 0.080276 0.278772
0.4247425 1.45288 -1.659715 0 0.8660229 -0.5000044 255 255 255 255 0.080181 0.278728
-0.2123715 1.50857 -1.267125 1.613988e-06 -0.8660337 0.4999856 255 255 255 255 0.080501 0.278895
0.1661835 1.46857 -1.33641 -2.151984e-06 -0.8660343 0.4999846 255 255 255 255 0.080277 0.278891
0.1661835 1.5968 -1.41044 0 0.8660191 -0.5000109 255 255 255 255 0.080276 0.278772
-0.2123715 1.6368 -1.34116 0 0.8660191 -0.5000109 255 255 255 255 0.080502 0.278775
0.2123715 1.6368 -1.34116 0 0.8660191 -0.5000109 255 255 255 255 0.080276 0.278772
-0.3323665 1.324655 -1.585685 5.081118e-06 -0.8660288 0.499994 255 255 255 255 0.080619 0.27885
-0.4247425 1.324655 -1.585685 0 -0.866032 0.4999886 255 255 255 255 0.080619 0.27885
-0.2123715 1.6368 -1.34116 0 0.8660229 -0.5000044 255 255 255 255 0.080502 0.278775
-0.3323665 1.45288 -1.659715 0 0.8660229 -0.5000044 255 255 255 255 0.08062 0.278734
-0.4247425 1.45288 -1.659715 0 0.8660229 -0.5000044 255 255 255 255 0.08062 0.278734
-0.2123715 1.140735 -1.90424 0 -0.8660229 0.5000044 255 255 255 255 0.080518 0.278806
-0.3323665 1.324655 -1.585685 0 -0.8660229 0.5000044 255 255 255 255 0.080619 0.27885
-0.4247425 1.324655 -1.585685 0 -0.8660229 0.5000044 255 255 255 255 0.080619 0.27885
-0.3323665 1.45288 -1.659715 0 0.8660228 -0.5000046 255 255 255 255 0.08062 0.278734
-0.2123715 1.26896 -1.97827 0 0.8660228 -0.5000046 255 255 255 255 0.080518 0.278692
-0.4247425 1.45288 -1.659715 0 0.8660228 -0.5000046 255 255 255 255 0.08062 0.278734
-0.2123715 1.140735 -1.90424 2.929134e-06 -0.8660198 0.5000098 255 255 255 255 0.080518 0.278806
-0.166183 1.30896 -1.90899 -2.450909e-06 0.8660201 -0.5000091 255 255 255 255 0.080518 0.278692
-0.2123715 1.26896 -1.97827 -3.676364e-06 0.8660205 -0.5000085 255 255 255 255 0.080518 0.278692
-0.085207 -1.29939 -0.241104 0 -0.5000011 -0.8660249 255 255 255 255 0.080457 0.279627
0.085207 0.60898 -1.342905 0 -0.5000011 -0.8660249 255 255 255 255 0.080353 0.278825
0.085207 -1.29939 -0.241104 0 -0.5000011 -0.8660249 255 255 255 255 0.080354 0.279625
-0.170414 -1.2256 -0.1132935 -0.866026 -0.2499998 -0.4330115 255 255 255 255 0.080504 0.279659
-0.085207 0.60898 -1.342905 -0.866026 -0.2499998 -0.4330115 255 255 255 255 0.080458 0.278827
-0.085207 -1.29939 -0.241104 -0.8660244 -0.2500014 -0.4330139 255 255 255 255 0.080457 0.279627
-0.085207 -1.15181 0.01451705 -0.8660241 0.2500013 0.4330146 255 255 255 255 0.080447 0.279689
-0.170414 0.682775 -1.215095 -0.8660241 0.2500013 0.4330146 255 255 255 255 0.080507 0.278849
-0.170414 -1.2256 -0.1132935 -0.8660244 0.250001 0.4330141 255 255 255 255 0.080504 0.279659
0.085207 -1.15181 0.01451705 0 0.5000004 0.8660251 255 255 255 255 0.080342 0.279687
-0.085207 0.756565 -1.087285 0 0.5000004 0.8660251 255 255 255 255 0.080449 0.27887
-0.085207 -1.15181 0.01451705 0 0.5000004 0.8660251 255 255 255 255 0.080447 0.279689
0.170414 -1.2256 -0.1132935 0.866024 0.2500014 0.4330147 255 255 255 255 0.080297 0.279655
0.085207 0.756565 -1.087285 0.866024 0.2500014 0.4330147 255 255 255 255 0.08034 0.278869
0.085207 -1.15181 0.01451705 0.8660244 0.2500011 0.4330141 255 255 255 255 0.080342 0.279687
0.085207 -1.29939 -0.241104 0.866026 -0.2499999 -0.4330117 255 255 255 255 0.080354 0.279625
0.170414 0.682775 -1.215095 0.866026 -0.2499999 -0.4330117 255 255 255 255 0.080293 0.278846
0.170414 -1.2256 -0.1132935 0.8660244 -0.250001 -0.4330142 255 255 255 255 0.080297 0.279655
0.085207 -1.15181 0.01451705 1.599723e-07 -0.8660296 0.4999927 255 255 255 255 0.080342 0.279687
-0.085207 -1.15181 0.01451705 -3.317944e-07 -0.8660296 0.4999928 255 255 255 255 0.080447 0.279689
-0.085207 -1.29939 -0.241104 -8.591104e-08 -0.8660296 0.4999928 255 255 255 255 0.080457 0.279627
-0.2123715 0.66227 -1.627995 0 0.8660287 -0.4999944 255 255 255 255 0.080518 0.278692
0.4247425 0.846185 -1.30944 0 0.8660257 -0.4999994 255 255 255 255 0.080181 0.278728
0.2123715 0.66227 -1.627995 0 0.8660287 -0.4999944 255 255 255 255 0.080304 0.278689
0.4247425 0.682775 -1.215095 0.8660235 -0.2500021 -0.4330154 255 255 255 255 0.080182 0.278844
0.2123715 0.66227 -1.627995 0.8660235 -0.2500021 -0.4330154 255 255 255 255 0.080304 0.278689
0.4247425 0.846185 -1.30944 0.8660235 -0.2500021 -0.4330154 255 255 255 255 0.080181 0.278728
0.2123715 0.86669 -0.896535 0.8660256 0.2500022 0.4330111 255 255 255 255 0.080277 0.278891
0.4247425 0.846185 -1.30944 0.8660256 0.2500022 0.4330111 255 255 255 255 0.080181 0.278728
0.2123715 1.030105 -0.990885 0.866025 0.2500047 0.4330107 255 255 255 255 0.080276 0.278772
0.2123715 0.86669 -0.896535 0 0.5000089 0.8660203 255 255 255 255 0.080277 0.278891
-0.2123715 1.030105 -0.990885 0 0.5000089 0.8660203 255 255 255 255 0.080502 0.278775
-0.2123715 0.86669 -0.896535 0 0.5000089 0.8660203 255 255 255 255 0.080501 0.278895
-0.2123715 0.86669 -0.896535 -0.8660256 0.2500022 0.4330111 255 255 255 255 0.080501 0.278895
-0.4247425 0.846185 -1.30944 -0.8660256 0.2500022 0.4330111 255 255 255 255 0.08062 0.278734
-0.4247425 0.682775 -1.215095 -0.8660261 0.2499997 0.4330114 255 255 255 255 0.080619 0.27885
-0.4247425 0.682775 -1.215095 -0.8660244 -0.2499977 -0.4330161 255 255 255 255 0.080619 0.27885
-0.2123715 0.66227 -1.627995 -0.8660244 -0.2499977 -0.4330161 255 255 255 255 0.080518 0.278692
-0.2123715 0.498854 -1.53365 -0.8660253 -0.2499934 -0.4330167 255 255 255 255 0.080518 0.278806
-0.2123715 0.498854 -1.53365 0 -0.4999866 -0.8660331 255 255 255 255 0.080518 0.278806
0.2123715 0.66227 -1.627995 0 -0.4999866 -0.8660331 255 255 255 255 0.080304 0.278689
0.2123715 0.498854 -1.53365 0 -0.4999866 -0.8660331 255 255 255 255 0.080304 0.278803
0.170414 0.682775 -1.215095 3.080707e-06 -0.8660265 0.4999982 255 255 255 255 0.080293 0.278846
0.2123715 0.498854 -1.53365 7.368288e-06 -0.8660229 0.5000042 255 255 255 255 0.080304 0.278803
0.4247425 0.682775 -1.215095 0 -0.8660269 0.4999974 255 255 255 255 0.080182 0.278844
0.2123715 0.86669 -0.896535 -2.445509e-06 -0.8660332 0.4999865 255 255 255 255 0.080277 0.278891
0.085207 0.756565 -1.087285 -4.891019e-06 -0.8660331 0.4999868 255 255 255 255 0.08034 0.278869
-0.085207 0.756565 -1.087285 3.260679e-06 -0.8660336 0.499986 255 255 255 255 0.080449 0.27887
-0.2123715 0.86669 -0.896535 3.260679e-06 -0.8660328 0.4999873 255 255 255 255 0.080501 0.278895
-0.170414 0.682775 -1.215095 -3.080707e-06 -0.8660265 0.4999982 255 255 255 255 0.080507 0.278849
-0.4247425 0.682775 -1.215095 0 -0.8660269 0.4999974 255 255 255 255 0.080619 0.27885
-0.2123715 0.498854 -1.53365 -7.368289e-06 -0.8660229 0.5000044 255 255 255 255 0.080518 0.278806
-0.085207 0.60898 -1.342905 -2.210487e-05 -0.8660204 0.5000088 255 255 255 255 0.080458 0.278827
0.085207 0.60898 -1.342905 1.105243e-05 -0.8660236 0.5000032 255 255 255 255 0.080353 0.278825
-0.2123715 1.030105 -0.990885 0 0.8660229 -0.5000044 255 255 255 255 0.080502 0.278775
0.2123715 1.030105 -0.990885 0 0.8660229 -0.5000044 255 255 255 255 0.080276 0.278772
-0.095593 1.24215 -2.071085 0 -0.4999987 -0.8660262 255 255 255 255 0.079785 0.280667
-0.095593 2.06479 -2.618115 0 0.7802151 -0.6255113 255 255 255 255 0.079762 0.280151
-0.095593 0.436212 -1.497485 0 0.4999974 0.8660269 255 255 255 255 0.07985 0.281104
-0.095593 0.38932 -1.578705 0 -0.8660272 0.4999968 255 255 255 255 0.079792 0.281112
-0.095593 1.289045 -1.989865 -1 0 0 255 255 255 255 0.079846 0.280662
-0.095593 2.00596 -2.691495 0 -0.630479 -0.7762064 255 255 255 255 0.079698 0.28016
0.095593 2.06479 -2.618115 0 0.6293592 0.7771145 255 255 255 255 0.079802 0.280159
0.095593 2.00596 -2.691495 1 0 0 255 255 255 255 0.079736 0.280169
0.4711245 2.17217 -2.075 -0.8631291 0.3199085 0.3907259 255 255 255 255 0.080181 0.278728
0.2355625 2.376175 -1.721655 -0.8631335 -0.1784325 -0.4724007 255 255 255 255 0.080276 0.278772
-0.2355625 2.376175 -1.721655 0 -0.4276005 -0.9039678 255 255 255 255 0.080502 0.278775
0.2355625 2.376175 -1.721655 0 -0.4276005 -0.9039678 255 255 255 255 0.080276 0.278772
0.228557 2.24188 -1.65813 0 -0.4276005 -0.9039678 255 255 255 255 0.080277 0.278891
-0.2355625 2.376175 -1.721655 0.8631335 -0.1784325 -0.4724007 255 255 255 255 0.080502 0.278775
-0.228557 1.846005 -2.3438 0.8631303 0.3198895 0.3907388 255 255 255 255 0.080518 0.278806
-0.235562 1.96817 -2.42834 0.8631303 0.3198895 0.3907388 255 255 255 255 0.080518 0.278692
-0.4711245 2.17217 -2.075 0.8631303 0.3198895 0.3907388 255 255 255 255 0.08062 0.278734
-0.235562 1.96817 -2.42834 0 0.5690475 0.8223047 255 255 255 255 0.080518 0.278692
0.2848745 1.92546 -2.50231 0.8618028 -0.3341893 -0.3815934 255 255 255 255 0.080304 0.278689
0.56975 2.17217 -2.075 0.8618044 0.163377 0.4802094 255 255 255 255 0.080181 0.278728
0.284874 2.41888 -1.647685 0 0.412157 0.9111128 255 255 255 255 0.080276 0.278772
-0.2848745 2.41888 -1.647685 -0.8618045 0.1633735 0.4802105 255 255 255 255 0.080502 0.278775
-0.56975 2.17217 -2.075 -0.8618006 -0.334207 -0.3815827 255 255 255 255 0.08062 0.278734
-0.284874 1.92546 -2.50231 0 -0.582972 -0.8124923 255 255 255 255 0.080518 0.278692
0.457114 2.043945 -2.000965 2.039164e-05 -0.8660269 0.4999973 255 255 255 255 0.080182 0.278844
0.228557 1.846005 -2.3438 2.039164e-05 -0.8660269 0.4999973 255 255 255 255 0.080304 0.278803
0.276403 1.80457 -2.41557 2.039164e-05 -0.8660269 0.4999973 255 255 255 255 0.080304 0.278803
0.2848745 1.92546 -2.50231 3.054303e-05 0.8660175 -0.5000138 255 255 255 255 0.080304 0.278689
0.2355625 1.96817 -2.42834 3.054303e-05 0.8660175 -0.5000138 255 255 255 255 0.080304 0.278689
0.4711245 2.17217 -2.075 3.054303e-05 0.8660175 -0.5000138 255 255 255 255 0.080181 0.278728
0.2764025 2.283315 -1.58636 -1.167494e-05 -0.8660296 0.4999929 255 255 255 255 0.080277 0.278891
0.228557 2.24188 -1.65813 -1.167494e-05 -0.8660296 0.4999929 255 255 255 255 0.080277 0.278891
0.457114 2.043945 -2.000965 -1.167494e-05 -0.8660296 0.4999929 255 255 255 255 0.080182 0.278844
0.2355625 2.376175 -1.721655 1.493099e-05 0.8660285 -0.4999945 255 255 255 255 0.080276 0.278772
-0.2764025 2.283315 -1.58636 0 -0.8660329 0.499987 255 255 255 255 0.080501 0.278895
-0.228557 2.24188 -1.65813 0 -0.8660329 0.499987 255 255 255 255 0.080501 0.278895
0.228557 2.24188 -1.65813 0 -0.8660329 0.499987 255 255 255 255 0.080277 0.278891
0.2355625 2.376175 -1.721655 0 0.8660329 -0.4999872 255 255 255 255 0.080276 0.278772
-0.2355625 2.376175 -1.721655 0 0.8660329 -0.4999872 255 255 255 255 0.080502 0.278775
-0.2848745 2.41888 -1.647685 0 0.8660329 -0.4999872 255 255 255 255 0.080502 0.278775
-0.457114 2.043945 -2.000965 1.183228e-05 -0.8660296 0.4999928 255 255 255 255 0.080619 0.27885
-0.228557 2.24188 -1.65813 1.183228e-05 -0.8660296 0.4999928 255 255 255 255 0.080501 0.278895
-0.2764025 2.283315 -1.58636 1.183228e-05 -0.8660296 0.4999928 255 255 255 255 0.080501 0.278895
-0.2848745 2.41888 -1.647685 -1.484204e-05 0.8660285 -0.4999946 255 255 255 255 0.080502 0.278775
-0.2355625 2.376175 -1.721655 -1.484204e-05 0.8660285 -0.4999946 255 255 255 255 0.080502 0.278775
-0.4711245 2.17217 -2.075 -1.484204e-05 0.8660285 -0.4999946 255 255 255 255 0.08062 0.278734
-0.2764025 1.80457 -2.41557 -2.048615e-05 -0.866027 0.4999973 255 255 255 255 0.080518 0.278806
-0.228557 1.846005 -2.3438 -2.048615e-05 -0.866027 0.4999973 255 255 255 255 0.080518 0.278806
-0.457114 2.043945 -2.000965 -2.048615e-05 -0.866027 0.4999973 255 255 255 255 0.080619 0.27885
-0.4711245 2.17217 -2.075 -3.057262e-05 0.8660175 -0.5000137 255 255 255 255 0.08062 0.278734
-0.235562 1.96817 -2.42834 -3.057262e-05 0.8660175 -0.5000137 255 255 255 255 0.080518 0.278692
-0.284874 1.92546 -2.50231 -3.057262e-05 0.8660175 -0.5000137 255 255 255 255 0.080518 0.278692
0.228557 1.846005 -2.3438 0 -0.8660329 0.499987 255 255 255 255 0.080304 0.278803
0.2355625 1.96817 -2.42834 0 0.8660087 -0.500029 255 255 255 255 0.080304 0.278689
0.461622 1.425165 -1.754095 1 0 0 255 255 255 255 0.079785 0.280667
0.6170101 2.26667 -2.23994 0.1515945 0.8560272 -0.4942029 255 255 255 255 0.079698 0.28016
0.3678375 1.425165 -1.754095 -1 0 0 255 255 255 255 0.079846 0.280662
0.461622 0.572335 -1.261715 0 -0.866025 0.5000008 255 255 255 255 0.079792 0.281112
0.3678375 1.425165 -1.754095 0 -0.4999981 -0.8660265 255 255 255 255 0.079846 0.280662
0.461622 1.425165 -1.754095 0.9874536 -0.1367524 0.07895654 255 255 255 255 0.079785 0.280667
0.524045 2.37461 -2.081495 -0.9876807 0.135519 -0.07824048 255 255 255 255 0.079802 0.280159
0.6170101 2.36226 -2.074365 1.64874e-06 0.4999996 0.8660257 255 255 255 255 0.079736 0.280169
0.095593 1.703775 -1.271535 0 0.5000004 0.8660252 255 255 255 255 0.079785 0.280667
0.095593 2.588835 -1.710445 0 0.9318148 -0.3629342 255 255 255 255 0.079762 0.280151
0.095593 0.80405 -0.86037 0 -0.4999988 -0.8660261 255 255 255 255 0.07985 0.281104
0.095593 0.85094 -0.77915 0 -0.866036 0.4999816 255 255 255 255 0.079792 0.281112
0.095593 0.80405 -0.86037 1 0 0 255 255 255 255 0.07985 0.281104
0.095593 2.62297 -1.622805 0 0.3569718 0.9341152 255 255 255 255 0.079698 0.28016
-0.095593 2.588835 -1.710445 0 -0.3583252 -0.9335968 255 255 255 255 0.079802 0.280159
-0.095593 2.62297 -1.622805 -1 0 0 255 255 255 255 0.079736 0.280169
-0.3192005 0.073913 -0.82263 0 1 0 255 255 255 255 0.08062 0.278734
0.1596 0.073913 -1.099065 0.8660245 0 -0.5000015 255 255 255 255 0.080304 0.278689
0.3192005 0.073913 -0.82263 0.847408 0 0.5309423 255 255 255 255 0.080181 0.278728
0.1460005 0.073913 0.144017 0 0 1 255 255 255 255 0.080276 0.278772
-0.146001 0.073913 -0.546195 -0.8474087 0 0.5309412 255 255 255 255 0.080502 0.278775
-0.3192005 0.073913 -0.82263 -0.8660245 0 -0.5000016 255 255 255 255 0.08062 0.278734
-0.1596 0.073913 -1.099065 0 0 -1 255 255 255 255 0.080518 0.278692
0.1596 -0.067894 -1.099065 0 -1 1.8112e-06 255 255 255 255 0.080304 0.278803
0.1460005 -0.0678935 0.144017 0 -1 0 255 255 255 255 0.080277 0.278891
0.1460005 0.073913 0.144017 1 0 0 255 255 255 255 0.080276 0.278772
-0.146001 0.073913 0.144017 0 1 0 255 255 255 255 0.080502 0.278775
-0.146001 -0.0678935 0.144017 -1 0 0 255 255 255 255 0.080501 0.278895
-0.461622 1.52076 -1.588525 -1 0 0 255 255 255 255 0.079785 0.280667
-0.524045 2.37461 -2.081495 -0.1516213 0.8560171 -0.4942124 255 255 255 255 0.079762 0.280151
-0.3678375 0.66793 -1.09614 1 0 0 255 255 255 255 0.07985 0.281104
-0.461622 0.66793 -1.09614 0 -0.866025 0.5000008 255 255 255 255 0.079792 0.281112
-0.3678375 1.52076 -1.588525 0 0.5000012 0.8660248 255 255 255 255 0.079846 0.280662
-0.6170101 2.36226 -2.074365 -0.9874535 -0.1367561 0.07895225 255 255 255 255 0.079698 0.28016
-0.524045 2.27902 -2.247065 0.9876807 0.1355184 -0.07824015 255 255 255 255 0.079802 0.280159
-0.6170101 2.26667 -2.23994 4.86377e-05 -0.4999946 -0.8660285 255 255 255 255 0.079736 0.280169
0.3323665 1.45288 -1.659715 -0.8660262 0.2499974 0.4330128 255 255 255 255 0.080181 0.278728
0.1661835 1.30896 -1.90899 -0.8660262 0.2499974 0.4330128 255 255 255 255 0.080304 0.278689
0.1661835 1.180735 -1.83496 -0.8660262 0.2499974 0.4330128 255 255 255 255 0.080304 0.278803
0.1661835 1.46857 -1.33641 -0.8660263 -0.2499898 -0.4330167 255 255 255 255 0.080277 0.278891
0.1661835 1.5968 -1.41044 -0.8660263 -0.2499898 -0.4330167 255 255 255 255 0.080276 0.278772
0.3323665 1.45288 -1.659715 -0.8660263 -0.2499898 -0.4330167 255 255 255 255 0.080181 0.278728
-0.1661835 1.5968 -1.41044 0 -0.4999813 -0.8660362 255 255 255 255 0.080502 0.278775
0.1661835 1.5968 -1.41044 0 -0.4999813 -0.8660362 255 255 255 255 0.080276 0.278772
0.1661835 1.46857 -1.33641 0 -0.4999813 -0.8660362 255 255 255 255 0.080277 0.278891
-0.3323665 1.45288 -1.659715 0.8660263 -0.2499976 -0.4330122 255 255 255 255 0.08062 0.278734
-0.166183 1.180735 -1.83496 0.8660255 0.249998 0.4330138 255 255 255 255 0.080518 0.278806
-0.166183 1.30896 -1.90899 0.8660255 0.249998 0.4330138 255 255 255 255 0.080518 0.278692
-0.3323665 1.45288 -1.659715 0.8660255 0.249998 0.4330138 255 255 255 255 0.08062 0.278734
-0.166183 1.30896 -1.90899 0 0.499996 0.8660277 255 255 255 255 0.080518 0.278692
0.2123715 1.26896 -1.97827 0.866025 -0.2499983 -0.4330146 255 255 255 255 0.080304 0.278689
0.4247425 1.45288 -1.659715 0.866025 0.2499987 0.4330142 255 255 255 255 0.080181 0.278728
0.2123715 1.50857 -1.267125 0 0.5000069 0.8660215 255 255 255 255 0.080277 0.278891
0.2123715 1.6368 -1.34116 0 0.5000069 0.8660215 255 255 255 255 0.080276 0.278772
-0.2123715 1.6368 -1.34116 0 0.5000069 0.8660215 255 255 255 255 0.080502 0.278775
-0.2123715 1.50857 -1.267125 -0.8660261 0.2500029 0.4330097 255 255 255 255 0.080501 0.278895
-0.4247425 1.45288 -1.659715 -0.866025 -0.2499987 -0.4330143 255 255 255 255 0.08062 0.278734
-0.2123715 1.26896 -1.97827 0 -0.4999958 -0.8660279 255 255 255 255 0.080518 0.278692
0.1661835 1.30896 -1.90899 0 0.8660237 -0.500003 255 255 255 255 0.080304 0.278689
0.3323665 1.45288 -1.659715 0 0.8660237 -0.500003 255 255 255 255 0.080181 0.278728
0.4247425 1.45288 -1.659715 0 0.8660237 -0.500003 255 255 255 255 0.080181 0.278728
0.3323665 1.45288 -1.659715 -8.24946e-06 0.8660216 -0.5000067 255 255 255 255 0.080181 0.278728
0.1661835 1.5968 -1.41044 -8.24946e-06 0.8660216 -0.5000067 255 255 255 255 0.080276 0.278772
0.2123715 1.6368 -1.34116 -8.24946e-06 0.8660216 -0.5000067 255 255 255 255 0.080276 0.278772
-0.1661835 1.46857 -1.33641 3.227976e-06 -0.866034 0.4999851 255 255 255 255 0.080501 0.278895
0.1661835 1.5968 -1.41044 0 0.8660191 -0.5000109 255 255 255 255 0.080276 0.278772
-0.1661835 1.5968 -1.41044 4.147147e-06 0.8660203 -0.5000088 255 255 255 255 0.080502 0.278775
-0.2123715 1.6368 -1.34116 4.147147e-06 0.8660203 -0.5000088 255 255 255 255 0.080502 0.278775
-0.3323665 1.45288 -1.659715 4.707827e-07 0.8660216 -0.5000067 255 255 255 255 0.08062 0.278734
-0.166183 1.180735 -1.83496 4.393701e-06 -0.8660202 0.5000091 255 255 255 255 0.080518 0.278806
-0.085207 0.60898 -1.342905 0 -0.5000011 -0.8660249 255 255 255 255 0.080458 0.278827
-0.170414 0.682775 -1.215095 -0.8660277 -0.2499982 -0.4330092 255 255 255 255 0.080507 0.278849
-0.085207 0.756565 -1.087285 -0.8660237 0.2500017 0.4330152 255 255 255 255 0.080449 0.27887
0.085207 0.756565 -1.087285 0 0.5000004 0.8660251 255 255 255 255 0.08034 0.278869
0.170414 0.682775 -1.215095 0.8660236 0.2500016 0.4330153 255 255 255 255 0.080293 0.278846
0.085207 0.60898 -1.342905 0.8660275 -0.2499987 -0.4330093 255 255 255 255 0.080353 0.278825
0.085207 -1.29939 -0.241104 0 -0.8660294 0.4999931 255 255 255 255 0.080354 0.279625
0.170414 -1.2256 -0.1132935 1.599723e-07 -0.8660295 0.4999929 255 255 255 255 0.080297 0.279655
-0.170414 -1.2256 -0.1132935 -6.635887e-07 -0.8660296 0.4999928 255 255 255 255 0.080504 0.279659
-0.4247425 0.846185 -1.30944 0 0.8660258 -0.4999994 255 255 255 255 0.08062 0.278734
0.4247425 0.682775 -1.215095 0.8660253 -0.2499934 -0.4330167 255 255 255 255 0.080182 0.278844
0.2123715 0.498854 -1.53365 0.8660253 -0.2499934 -0.4330167 255 255 255 255 0.080304 0.278803
0.2123715 0.66227 -1.627995 0.8660253 -0.2499934 -0.4330167 255 255 255 255 0.080304 0.278689
0.4247425 0.682775 -1.215095 0.8660261 0.2499997 0.4330114 255 255 255 255 0.080182 0.278844
0.2123715 1.030105 -0.990885 0 0.5000089 0.8660203 255 255 255 255 0.080276 0.278772
-0.2123715 1.030105 -0.990885 -0.866025 0.2500047 0.4330107 255 255 255 255 0.080502 0.278775
-0.4247425 0.846185 -1.30944 -0.8660235 -0.2500021 -0.4330154 255 255 255 255 0.08062 0.278734
-0.2123715 0.66227 -1.627995 0 -0.4999866 -0.8660331 255 255 255 255 0.080518 0.278692
0.085207 0.60898 -1.342905 0 -0.8660268 0.4999976 255 255 255 255 0.080353 0.278825
-0.085207 0.60898 -1.342905 0 -0.8660268 0.4999976 255 255 255 255 0.080458 0.278827
-0.2123715 0.498854 -1.53365 0 -0.8660268 0.4999976 255 255 255 255 0.080518 0.278806
3 0 1 2 
3 3 4 5 
3 6 7 8 
3 9 10 11 
3 12 13 14 
3 15 16 17 
3 18 19 20 
3 13 21 22 
3 23 24 25 
3 26 27 16 
3 28 29 30 
3 31 32 33 
3 34 35 36 
3 37 38 39 
3 40 41 42 
3 43 44 45 
3 46 47 48 
3 49 50 51 
3 52 53 54 
3 55 56 57 
3 58 59 60 
3 61 62 63 
3 64 65 66 
3 67 68 69 
3 70 71 72 
3 73 74 75 
3 76 77 78 
3 79 80 81 
3 82 83 84 
3 85 86 87 
3 88 82 84 
3 86 89 87 
3 90 91 92 
3 93 94 95 
3 96 97 98 
3 99 100 101 
3 102 103 104 
3 105 106 107 
3 108 109 110 
3 111 112 113 
3 114 115 116 
3 109 117 118 
3 119 120 121 
3 122 123 112 
3 124 125 126 
3 127 128 129 
3 130 131 132 
3 133 134 135 
3 136 137 138 
3 139 140 141 
3 142 143 144 
3 138 145 146 
3 147 148 149 
3 150 151 140 
3 152 153 154 
3 155 156 157 
3 158 159 160 
3 161 162 163 
3 164 165 166 
3 167 168 169 
3 170 171 172 
3 173 174 175 
3 176 174 177 
3 153 178 179 
3 177 180 176 
3 181 182 183 
3 178 184 179 
3 185 186 187 
3 188 189 190 
3 191 192 193 
3 194 195 196 
3 197 198 199 
3 200 201 202 
3 203 204 205 
3 206 207 208 
3 201 209 210 
3 211 212 213 
3 214 215 204 
3 216 217 218 
3 219 220 221 
3 222 223 224 
3 225 226 227 
3 228 229 230 
3 231 232 233 
3 234 235 236 
3 237 238 239 
3 240 241 242 
3 243 244 245 
3 246 247 248 
3 249 250 251 
3 252 253 254 
3 255 256 257 
3 258 259 252 
3 260 261 262 
3 263 264 258 
3 265 266 267 
3 268 263 269 
3 270 271 272 
3 273 274 275 
3 276 277 278 
3 253 279 254 
3 280 257 281 
3 282 283 284 
3 285 286 287 
3 288 289 290 
3 291 292 293 
3 294 295 296 
3 297 298 299 
3 300 301 302 
3 303 304 305 
3 306 307 308 
3 309 310 311 
3 312 313 314 
3 315 316 317 
3 318 319 320 
3 321 322 323 
3 324 325 326 
3 324 327 328 
3 329 327 330 
3 331 330 332 
3 331 333 334 
3 335 333 325 
3 304 336 337 
3 0 338 1 
3 3 339 4 
3 6 340 7 
3 9 341 10 
3 12 342 13 
3 15 26 16 
3 18 343 19 
3 13 342 21 
3 23 344 24 
3 26 345 27 
3 28 346 29 
3 31 347 32 
3 348 349 350 
3 37 351 38 
3 352 353 354 
3 43 355 44 
3 46 356 47 
3 49 357 50 
3 52 358 53 
3 55 359 56 
3 58 360 59 
3 61 361 62 
3 362 363 364 
3 365 366 367 
3 368 369 370 
3 73 371 74 
3 372 373 374 
3 375 376 377 
3 378 379 380 
3 381 382 383 
3 384 385 386 
3 387 388 389 
3 90 390 91 
3 93 391 94 
3 96 392 97 
3 99 393 100 
3 102 394 103 
3 105 395 106 
3 108 396 109 
3 111 122 112 
3 114 397 115 
3 109 396 117 
3 119 398 120 
3 122 399 123 
3 124 400 125 
3 127 401 128 
3 130 402 131 
3 133 403 134 
3 136 404 137 
3 139 150 140 
3 142 405 143 
3 138 137 145 
3 147 406 148 
3 150 407 151 
3 152 408 153 
3 155 409 156 
3 158 410 159 
3 161 411 162 
3 164 412 165 
3 167 413 168 
3 170 414 171 
3 173 415 174 
3 176 175 174 
3 153 408 178 
3 177 416 180 
3 181 417 182 
3 178 418 184 
3 185 419 186 
3 188 420 189 
3 191 421 192 
3 194 422 195 
3 197 423 198 
3 200 424 201 
3 203 214 204 
3 206 425 207 
3 201 424 209 
3 211 426 212 
3 214 427 215 
3 428 429 430 
3 431 432 433 
3 434 435 436 
3 225 437 226 
3 438 439 440 
3 231 441 232 
3 234 442 235 
3 237 443 238 
3 444 445 446 
3 243 447 244 
3 246 448 247 
3 249 449 250 
3 252 259 253 
3 450 451 452 
3 258 264 259 
3 453 454 455 
3 263 456 264 
3 457 458 459 
3 268 456 263 
3 459 458 460 
3 279 461 268 
3 460 280 281 
3 253 461 279 
3 280 255 257 
3 282 462 283 
3 285 463 286 
3 288 464 289 
3 291 465 292 
3 294 466 295 
3 297 467 298 
3 302 468 469 
3 469 300 302 
3 301 470 302 
3 303 471 304 
3 472 473 474 
3 309 475 310 
3 312 476 313 
3 315 477 316 
3 318 478 319 
3 321 479 322 
3 324 335 325 
3 324 326 327 
3 329 328 327 
3 331 329 330 
3 331 332 333 
3 480 481 482 
3 304 471 336 
