ply
format ascii 1.0
comment VCGLIB generated
comment TextureFile dummy.png
element vertex 324
property float x
property float y
property float z
property float nx
property float ny
property float nz
property uchar red
property uchar green
property uchar blue
property uchar alpha
property float texture_u
property float texture_v
element face 164
property list uchar int vertex_indices
end_header
0.376901 -0.0417527 -0.697245 0.8660266 -1.51506e-07 -0.4999979 255 255 255 255 0.081211 0.2801
0.7538 0.0417526 -0.04443305 0.8660266 -1.51506e-07 -0.4999979 255 255 255 255 0.081418 0.279688
0.7538 -0.0417526 -0.044433 0.8660267 -3.030119e-07 -0.4999979 255 255 255 255 0.081415 0.27972
-0.376901 -0.0417527 -0.697245 0 0 -1 255 255 255 255 0.080695 0.280133
0.376901 0.0417525 -0.697245 0 0 -1 255 255 255 255 0.081213 0.280069
0.376901 -0.0417527 -0.697245 0 0 -1 255 255 255 255 0.081211 0.2801
-0.7538 -0.0417526 -0.0444331 -0.8660266 0 -0.4999979 255 255 255 255 0.080421 0.279781
-0.376901 0.0417525 -0.697245 -0.8660266 0 -0.4999979 255 255 255 255 0.080693 0.280102
-0.376901 -0.0417527 -0.697245 -0.8660266 0 -0.4999979 255 255 255 255 0.080695 0.280133
0.284525 -0.0417527 -0.537245 4.34897e-08 -1 9.163025e-08 255 255 255 255 0.081137 0.280012
0.7538 -0.0417526 -0.044433 6.523455e-08 -1 1.374454e-07 255 255 255 255 0.081415 0.27972
0.56905 -0.0417526 -0.04443305 -4.994645e-14 -1 1.995643e-07 255 255 255 255 0.081294 0.279727
0.56905 0.0417526 -0.04443305 -8.903252e-08 1 -1.290117e-07 255 255 255 255 0.081296 0.279695
0.376901 0.0417525 -0.697245 -5.935501e-08 1 -8.600782e-08 255 255 255 255 0.081213 0.280069
0.284525 0.0417525 -0.537245 -5.935501e-08 1 -3.426862e-08 255 255 255 255 0.081139 0.279981
-0.284525 -0.0417527 -0.537245 -5.760928e-08 -1 3.326073e-08 255 255 255 255 0.080751 0.280036
0.376901 -0.0417527 -0.697245 4.348972e-08 -1 2.51088e-08 255 255 255 255 0.081211 0.2801
-0.376901 0.0417525 -0.697245 4.48076e-08 1 -2.586967e-08 255 255 255 255 0.080693 0.280102
-0.284525 0.0417525 -0.537245 4.48076e-08 1 -9.440691e-08 255 255 255 255 0.08075 0.280005
-0.56905 -0.0417526 -0.04443315 -8.641391e-08 -1 1.252173e-07 255 255 255 255 0.080544 0.279773
-0.376901 -0.0417527 -0.697245 -5.760927e-08 -1 8.34782e-08 255 255 255 255 0.080695 0.280133
-0.7538 0.0417526 -0.04443315 6.72114e-08 1 -1.416104e-07 255 255 255 255 0.080418 0.279749
-0.56905 0.0417526 -0.04443315 0 1 -2.056117e-07 255 255 255 255 0.080541 0.279741
-0.284525 -0.0417527 -0.537245 0.8660254 0 0.4999999 255 255 255 255 0.080751 0.280036
-0.56905 0.0417526 -0.04443315 0.8660254 0 0.4999999 255 255 255 255 0.080541 0.279741
-0.56905 -0.0417526 -0.04443315 0.8660255 0 0.4999999 255 255 255 255 0.080544 0.279773
0.284525 -0.0417527 -0.537245 0 0 1 255 255 255 255 0.081137 0.280012
-0.284525 0.0417525 -0.537245 0 0 1 255 255 255 255 0.08075 0.280005
-0.284525 -0.0417527 -0.537245 0 0 1 255 255 255 255 0.080751 0.280036
0.56905 -0.0417526 -0.04443305 -0.8660255 0 0.4999999 255 255 255 255 0.081294 0.279727
0.284525 0.0417525 -0.537245 -0.8660255 0 0.4999999 255 255 255 255 0.081139 0.279981
0.284525 -0.0417527 -0.537245 -0.8660255 0 0.4999999 255 255 255 255 0.081137 0.280012
0.802195 1.5e-07 0 0.9623033 0.2719787 -7.65133e-08 255 255 255 255 0.081415 0.27972
0.56377 0.843585 -0.0888665 0.9623033 0.2719787 -7.65133e-08 255 255 255 255 0.081129 0.279364
0.56377 0.843585 -1.5e-07 0.9623033 0.2719787 0 255 255 255 255 0.081128 0.279397
0.56377 -0.843585 1.5e-07 0.9623033 -0.2719786 4.896718e-07 255 255 255 255 0.081211 0.2801
0.802195 1e-07 -0.0888665 0.9623033 -0.2719786 4.896718e-07 255 255 255 255 0.081418 0.279688
0.802195 1.5e-07 0 0.9623033 -0.2719786 4.896718e-07 255 255 255 255 0.081415 0.27972
-0.802195 0 0 -0.9623033 -0.2719787 0 255 255 255 255 0.080421 0.279781
-0.56377 -0.843585 -0.088866 -0.9623033 -0.2719787 0 255 255 255 255 0.080693 0.280102
-0.56377 -0.843585 1.5e-07 -0.9623033 -0.2719787 0 255 255 255 255 0.080695 0.280133
-0.56377 0.843585 -1.5e-07 -0.9623033 0.2719786 0 255 255 255 255 0.080649 0.279425
-0.802195 0 -0.0888665 -0.9623033 0.2719786 0 255 255 255 255 0.080418 0.279749
-0.802195 0 0 -0.9623033 0.2719786 0 255 255 255 255 0.080421 0.279781
0.454988 1e-07 0 -1.065814e-14 1.758421e-07 1 255 255 255 255 0.081294 0.279727
0.56377 0.843585 -1.5e-07 1.528082e-08 1.758421e-07 1 255 255 255 255 0.081128 0.279397
0.3713325 0.8774101 -1.5e-07 3.056166e-08 1.738716e-07 1 255 255 255 255 0.081078 0.279481
0.454988 1e-07 -0.0888665 2.550264e-08 -2.934681e-07 -1 255 255 255 255 0.081296 0.279695
0.56377 0.843585 -0.0888665 0 0 -1 255 255 255 255 0.081129 0.279364
0.802195 1e-07 -0.0888665 0 -2.967567e-07 -1 255 255 255 255 0.081418 0.279688
0.56377 -0.843585 1.5e-07 -1.528084e-08 1.75842e-07 1 255 255 255 255 0.081211 0.2801
0.802195 1.5e-07 0 -2.560613e-14 1.778126e-07 1 255 255 255 255 0.081415 0.27972
0.56377 -0.843585 -0.088866 5.100528e-08 -5.869362e-07 -1 255 255 255 255 0.081213 0.280069
0.3713325 -0.8774101 -0.088866 1.020106e-07 -5.803589e-07 -1 255 255 255 255 0.081139 0.279981
-0.454988 0 0 0 1.758421e-07 1 255 255 255 255 0.080544 0.279773
-0.56377 -0.843585 1.5e-07 1.528083e-08 1.758421e-07 1 255 255 255 255 0.080695 0.280133
-0.3713325 -0.8774101 1.5e-07 3.056165e-08 1.738716e-07 1 255 255 255 255 0.080751 0.280036
-0.454988 0 -0.0888665 -2.550264e-08 -2.934681e-07 -1 255 255 255 255 0.080541 0.279741
-0.56377 -0.843585 -0.088866 -5.100528e-08 -5.869362e-07 -1 255 255 255 255 0.080693 0.280102
-0.802195 0 -0.0888665 0 -2.967567e-07 -1 255 255 255 255 0.080418 0.279749
-0.56377 0.843585 -1.5e-07 -1.528083e-08 1.758421e-07 1 255 255 255 255 0.080649 0.279425
-0.802195 0 0 0 1.778126e-07 1 255 255 255 255 0.080421 0.279781
-0.56377 0.843585 -0.0888665 0 0 -1 255 255 255 255 0.080647 0.279392
-0.3713325 0.8774101 -0.0888665 0 0 -1 255 255 255 255 0.080712 0.27947
-0.454988 0 0 0.9954855 -0.09491325 0 255 255 255 255 0.080544 0.279773
-0.3713325 0.8774101 -0.0888665 0.9954855 -0.09491325 0 255 255 255 255 0.080712 0.27947
-0.3713325 0.8774101 -1.5e-07 0.9954855 -0.09491325 0 255 255 255 255 0.080714 0.279503
-0.3713325 -0.8774101 1.5e-07 0.9954855 0.09491325 0 255 255 255 255 0.080751 0.280036
-0.454988 0 -0.0888665 0.9954855 0.09491325 0 255 255 255 255 0.080541 0.279741
-0.454988 0 0 0.9954855 0.09491325 0 255 255 255 255 0.080544 0.279773
0.454988 1e-07 0 -0.9954855 0.09491324 0 255 255 255 255 0.081294 0.279727
0.3713325 -0.8774101 -0.088866 -0.9954855 0.09491324 0 255 255 255 255 0.081139 0.279981
0.3713325 -0.8774101 1.5e-07 -0.9954855 0.09491324 0 255 255 255 255 0.081137 0.280012
0.3713325 0.8774101 -1.5e-07 -0.9954855 -0.09491327 0 255 255 255 255 0.081078 0.279481
0.454988 1e-07 -0.0888665 -0.9954855 -0.09491327 0 255 255 255 255 0.081296 0.279695
0.454988 1e-07 0 -0.9954855 -0.09491327 0 255 255 255 255 0.081294 0.279727
-0.56377 0.843585 -1.5e-07 -0.1731175 0.9849012 0 255 255 255 255 0.080649 0.279425
-0.3713325 0.8774101 -0.0888665 -0.1731175 0.9849012 0 255 255 255 255 0.080712 0.27947
-0.56377 0.843585 -0.0888665 -0.1731175 0.9849012 0 255 255 255 255 0.080647 0.279392
0.56377 0.843585 -1.5e-07 0.1731175 0.9849012 0 255 255 255 255 0.081128 0.279397
0.3713325 0.8774101 -0.0888665 0.1731175 0.9849012 0 255 255 255 255 0.081079 0.279448
0.3713325 0.8774101 -1.5e-07 0.1731175 0.9849012 0 255 255 255 255 0.081078 0.279481
0.56377 -0.843585 1.5e-07 0.1731175 -0.9849012 0 255 255 255 255 0.081211 0.2801
0.3713325 -0.8774101 -0.088866 0.1731175 -0.9849012 0 255 255 255 255 0.081139 0.279981
0.56377 -0.843585 -0.088866 0.1731175 -0.9849012 0 255 255 255 255 0.081213 0.280069
-0.56377 -0.843585 -0.088866 -0.1731175 -0.9849012 0 255 255 255 255 0.080693 0.280102
-0.3713325 -0.8774101 1.5e-07 -0.1731175 -0.9849012 0 255 255 255 255 0.080751 0.280036
-0.56377 -0.843585 1.5e-07 -0.1731175 -0.9849012 0 255 255 255 255 0.080695 0.280133
0.56796 -0.791755 -0.0444329 0.8660247 -3.033413e-07 -0.5000012 255 255 255 255 0.081415 0.279712
0.2839795 -0.70825 -0.5363 0.8660247 -3.033413e-07 -0.5000012 255 255 255 255 0.081209 0.280061
0.56796 -0.708245 -0.04443295 0.8660247 -3.033413e-07 -0.5000012 255 255 255 255 0.081418 0.279672
-0.2839795 -0.791755 -0.5363 0 0 -1 255 255 255 255 0.080697 0.280133
0.2839795 -0.70825 -0.5363 0 0 -1 255 255 255 255 0.081209 0.280061
0.2839795 -0.791755 -0.5363 0 0 -1 255 255 255 255 0.081207 0.2801
-0.2839795 -0.791755 -0.5363 -0.8660247 0 -0.5000013 255 255 255 255 0.080697 0.280133
-0.56796 -0.708245 -0.04443305 -0.8660247 0 -0.5000013 255 255 255 255 0.080418 0.279735
-0.2839795 -0.70825 -0.5363 -0.8660247 0 -0.5000013 255 255 255 255 0.080695 0.280094
0.214378 -0.791755 -0.4157465 0 -1 0 255 255 255 255 0.081135 0.280011
0.56796 -0.791755 -0.0444329 0 -1 0 255 255 255 255 0.081415 0.279712
0.4287555 -0.791755 -0.0444329 0 -1 0 255 255 255 255 0.081294 0.27972
0.4287555 -0.708245 -0.04443295 -5.838754e-06 1 -8.460576e-06 255 255 255 255 0.081296 0.27968
0.2839795 -0.70825 -0.5363 -3.892502e-06 1 -5.640384e-06 255 255 255 255 0.081209 0.280061
0.214378 -0.70825 -0.4157465 -3.892502e-06 1 -2.247333e-06 255 255 255 255 0.081137 0.279972
-0.214378 -0.791755 -0.4157465 0 -1 0 255 255 255 255 0.080752 0.280035
0.2839795 -0.791755 -0.5363 0 -1 0 255 255 255 255 0.081207 0.2801
-0.2839795 -0.70825 -0.5363 2.938466e-06 1 -1.696522e-06 255 255 255 255 0.080695 0.280094
-0.214378 -0.70825 -0.4157465 2.938466e-06 1 -6.191188e-06 255 255 255 255 0.080751 0.279996
-0.56796 -0.791755 -0.04443295 0 -1 0 255 255 255 255 0.080421 0.279775
-0.2839795 -0.791755 -0.5363 0 -1 0 255 255 255 255 0.080697 0.280133
-0.56796 -0.708245 -0.04443305 4.407699e-06 1 -9.286782e-06 255 255 255 255 0.080418 0.279735
-0.4287555 -0.708245 -0.04443305 0 1 -1.3484e-05 255 255 255 255 0.080541 0.279727
-0.214378 -0.791755 -0.4157465 0.8660258 1.331747e-07 0.4999993 255 255 255 255 0.080752 0.280035
-0.4287555 -0.708245 -0.04443305 0.8660258 1.331747e-07 0.4999993 255 255 255 255 0.080541 0.279727
-0.4287555 -0.791755 -0.044433 0.8660258 2.663493e-07 0.4999993 255 255 255 255 0.080544 0.279767
0.214378 -0.791755 -0.4157465 0 0 1 255 255 255 255 0.081135 0.280011
-0.214378 -0.70825 -0.4157465 0 0 1 255 255 255 255 0.080751 0.279996
-0.214378 -0.791755 -0.4157465 0 0 1 255 255 255 255 0.080752 0.280035
0.4287555 -0.791755 -0.0444329 -0.8660259 0 0.4999992 255 255 255 255 0.081294 0.27972
0.214378 -0.70825 -0.4157465 -0.8660259 0 0.4999992 255 255 255 255 0.081137 0.279972
0.214378 -0.791755 -0.4157465 -0.8660259 0 0.4999992 255 255 255 255 0.081135 0.280011
-0.4395785 -1e-07 -0.71694 -0.4811663 -0.271982 -0.8333696 255 255 255 255 0.080421 0.279781
-0.2434045 -0.843585 -0.55489 -0.4811663 -0.271982 -0.8333696 255 255 255 255 0.080693 0.280102
-0.320365 -0.843585 -0.510455 -0.4811663 -0.271982 -0.8333696 255 255 255 255 0.080695 0.280133
-0.4395785 -1e-07 -0.71694 -0.481126 0.271977 -0.8333945 255 255 255 255 0.080421 0.279781
-0.243405 0.843585 -0.55489 -0.481126 0.271977 -0.8333945 255 255 255 255 0.080647 0.279392
-0.362618 -1e-07 -0.76137 -0.481126 0.271977 -0.8333945 255 255 255 255 0.080418 0.279749
-0.2659745 -5e-08 -0.416248 -0.8660254 4.128846e-08 0.5 255 255 255 255 0.080544 0.279773
-0.320365 -0.843585 -0.510455 -0.8660256 1.165971e-07 0.4999997 255 255 255 255 0.080695 0.280133
-0.2241465 -0.8774101 -0.3438 -0.866025 -3.949319e-08 0.5000008 255 255 255 255 0.080751 0.280036
-0.189014 -1e-07 -0.460681 0.8660254 1.416682e-07 -0.5000001 255 255 255 255 0.080541 0.279741
-0.2434045 -0.843585 -0.55489 0.8660258 1.012701e-06 -0.4999993 255 255 255 255 0.080693 0.280102
-0.362618 -1e-07 -0.76137 0.866024 2.564097e-07 -0.5000024 255 255 255 255 0.080418 0.279749
-0.320365 0.843585 -0.510455 -0.8660253 -3.402022e-08 0.5000002 255 255 255 255 0.080649 0.279425
-0.4395785 -1e-07 -0.71694 -0.8660262 2.842171e-14 0.4999986 255 255 255 255 0.080421 0.279781
-0.243405 0.843585 -0.55489 0.866025 -7.293643e-07 -0.5000008 255 255 255 255 0.080647 0.279392
-0.147186 0.8774101 -0.3882335 0.8660259 -4.900704e-07 -0.4999992 255 255 255 255 0.080712 0.27947
-0.2659745 -5e-08 -0.416248 0.4977415 -0.0949131 0.8621166 255 255 255 255 0.080544 0.279773
-0.147186 0.8774101 -0.3882335 0.4977415 -0.0949131 0.8621166 255 255 255 255 0.080712 0.27947
-0.2241465 0.8774101 -0.3438005 0.4977413 -0.0949131 0.8621166 255 255 255 255 0.080714 0.279503
-0.2241465 -0.8774101 -0.3438 0.4977415 0.09491362 0.8621165 255 255 255 255 0.080751 0.280036
-0.189014 -1e-07 -0.460681 0.4977415 0.09491362 0.8621165 255 255 255 255 0.080541 0.279741
-0.2659745 -5e-08 -0.416248 0.4977416 0.09491359 0.8621164 255 255 255 255 0.080544 0.279773
-0.320365 0.843585 -0.510455 -0.0865603 0.9849012 -0.1499235 255 255 255 255 0.080649 0.279425
-0.147186 0.8774101 -0.3882335 -0.0865603 0.9849012 -0.1499235 255 255 255 255 0.080712 0.27947
-0.243405 0.843585 -0.55489 -0.08656156 0.9849013 -0.1499217 255 255 255 255 0.080647 0.279392
-0.2434045 -0.843585 -0.55489 -0.08655997 -0.9849012 -0.1499234 255 255 255 255 0.080693 0.280102
-0.2241465 -0.8774101 -0.3438 -0.08655997 -0.9849012 -0.1499234 255 255 255 255 0.080751 0.280036
-0.320365 -0.843585 -0.510455 -0.08656183 -0.9849011 -0.1499232 255 255 255 255 0.080695 0.280133
0.56796 0.708245 -0.04443315 0.8660246 -3.033414e-07 -0.5000015 255 255 255 255 0.081414 0.279737
0.2839795 0.79175 -0.5363 0.8660246 -3.033414e-07 -0.5000015 255 255 255 255 0.08121 0.280057
0.56796 0.791755 -0.0444332 0.8660246 -3.033414e-07 -0.5000015 255 255 255 255 0.081418 0.279691
-0.2839795 0.708245 -0.5363 0 0 -1 255 255 255 255 0.080696 0.280133
0.2839795 0.79175 -0.5363 0 0 -1 255 255 255 255 0.08121 0.280057
0.2839795 0.708245 -0.5363 0 0 -1 255 255 255 255 0.081208 0.280101
-0.2839795 0.708245 -0.5363 -0.8660246 0 -0.5000015 255 255 255 255 0.080696 0.280133
-0.56796 0.791755 -0.0444333 -0.8660246 0 -0.5000015 255 255 255 255 0.080418 0.27975
-0.2839795 0.79175 -0.5363 -0.8660246 0 -0.5000015 255 255 255 255 0.080694 0.280089
0.214378 0.708245 -0.4157465 0 -1 0 255 255 255 255 0.081136 0.280017
0.56796 0.708245 -0.04443315 0 -1 0 255 255 255 255 0.081414 0.279737
0.4287555 0.708245 -0.04443315 0 -1 0 255 255 255 255 0.081293 0.279744
0.4287555 0.791755 -0.0444332 1.798377e-05 1 -1.54725e-05 255 255 255 255 0.081296 0.279699
0.2839795 0.79175 -0.5363 1.198918e-05 1 -2.41589e-05 255 255 255 255 0.08121 0.280057
0.214378 0.791755 -0.4157465 1.198918e-05 1 -3.460974e-05 255 255 255 255 0.081137 0.279973
-0.214378 0.708245 -0.4157465 0 -1 0 255 255 255 255 0.080752 0.28004
0.2839795 0.708245 -0.5363 0 -1 0 255 255 255 255 0.081208 0.280101
-0.2839795 0.79175 -0.5363 -9.050683e-06 1 -3.630628e-05 255 255 255 255 0.080694 0.280089
-0.214378 0.791755 -0.4157465 -9.050683e-06 1 -2.246239e-05 255 255 255 255 0.080751 0.279996
-0.56796 0.708245 -0.0444332 0 -1 0 255 255 255 255 0.080422 0.279795
-0.2839795 0.708245 -0.5363 0 -1 0 255 255 255 255 0.080696 0.280133
-0.56796 0.791755 -0.0444333 -1.357602e-05 1 -1.292773e-05 255 255 255 255 0.080418 0.27975
-0.4287555 0.791755 -0.0444333 0 1 0 255 255 255 255 0.080541 0.279743
-0.214378 0.708245 -0.4157465 0.8660257 1.331747e-07 0.4999996 255 255 255 255 0.080752 0.28004
-0.4287555 0.791755 -0.0444333 0.8660257 1.331747e-07 0.4999996 255 255 255 255 0.080541 0.279743
-0.4287555 0.708245 -0.04443325 0.8660257 2.663495e-07 0.4999995 255 255 255 255 0.080544 0.279788
0.214378 0.708245 -0.4157465 0 0 1 255 255 255 255 0.081136 0.280017
-0.214378 0.791755 -0.4157465 0 0 1 255 255 255 255 0.080751 0.279996
-0.214378 0.708245 -0.4157465 0 0 1 255 255 255 255 0.080752 0.28004
0.4287555 0.708245 -0.04443315 -0.8660257 1.516701e-07 0.4999995 255 255 255 255 0.081293 0.279744
0.214378 0.791755 -0.4157465 -0.8660257 1.516701e-07 0.4999995 255 255 255 255 0.081137 0.279973
0.214378 0.708245 -0.4157465 -0.8660257 0 0.4999994 255 255 255 255 0.081136 0.280017
0.362618 -1e-07 -0.76137 0.481167 -0.2719773 -0.8333707 255 255 255 255 0.080421 0.279781
0.320365 -0.843585 -0.510455 0.481167 -0.2719773 -0.8333707 255 255 255 255 0.080693 0.280102
0.2434045 -0.843585 -0.55489 0.481167 -0.2719773 -0.8333707 255 255 255 255 0.080695 0.280133
0.362618 -1e-07 -0.76137 0.4811253 0.2719816 -0.8333933 255 255 255 255 0.080421 0.279781
0.3203655 0.843585 -0.510455 0.4811253 0.2719816 -0.8333933 255 255 255 255 0.080647 0.279392
0.4395785 -1e-07 -0.71694 0.4811253 0.2719816 -0.8333933 255 255 255 255 0.080418 0.279749
0.189014 -1e-07 -0.460681 -0.8660254 1.416682e-07 -0.5000001 255 255 255 255 0.080544 0.279773
0.2434045 -0.843585 -0.55489 -0.8660258 1.012701e-06 -0.4999993 255 255 255 255 0.080695 0.280133
0.147186 -0.8774101 -0.388233 -0.8660276 5.439239e-07 -0.4999962 255 255 255 255 0.080751 0.280036
0.2659745 -5e-08 -0.416248 0.8660251 -1.416674e-07 0.5000005 255 255 255 255 0.080541 0.279741
0.320365 -0.843585 -0.510455 0.8660256 1.165971e-07 0.4999997 255 255 255 255 0.080693 0.280102
0.4395785 -1e-07 -0.71694 0.8660262 -2.564076e-07 0.4999986 255 255 255 255 0.080418 0.279749
0.243405 0.843585 -0.55489 -0.866025 -7.293643e-07 -0.5000008 255 255 255 255 0.080649 0.279425
0.362618 -1e-07 -0.76137 -0.866024 2.564097e-07 -0.5000024 255 255 255 255 0.080421 0.279781
0.3203655 0.843585 -0.510455 0.8660247 -3.999319e-07 0.5000013 255 255 255 255 0.080647 0.279392
0.2241465 0.8774101 -0.3438005 0.8660232 -1.436117e-08 0.5000039 255 255 255 255 0.080712 0.27947
0.147186 0.8774101 -0.3882335 -0.4977415 -0.0949131 0.8621166 255 255 255 255 0.080714 0.279503
0.2659745 -5e-08 -0.416248 -0.4977415 -0.0949131 0.8621166 255 255 255 255 0.080541 0.279741
0.2241465 0.8774101 -0.3438005 -0.4977414 -0.0949131 0.8621166 255 255 255 255 0.080712 0.27947
0.147186 -0.8774101 -0.388233 -0.4977415 0.09491362 0.8621165 255 255 255 255 0.080751 0.280036
0.2659745 -5e-08 -0.416248 -0.4977415 0.09491362 0.8621165 255 255 255 255 0.080541 0.279741
0.189014 -1e-07 -0.460681 -0.4977416 0.09491362 0.8621164 255 255 255 255 0.080544 0.279773
0.243405 0.843585 -0.55489 0.08656003 0.9849012 -0.1499235 255 255 255 255 0.080649 0.279425
0.2241465 0.8774101 -0.3438005 0.08656003 0.9849012 -0.1499235 255 255 255 255 0.080712 0.27947
0.3203655 0.843585 -0.510455 0.0865619 0.9849011 -0.1499233 255 255 255 255 0.080647 0.279392
0.2434045 -0.843585 -0.55489 0.08655811 -0.9849013 -0.1499236 255 255 255 255 0.080695 0.280133
0.2241465 -0.8774101 -0.3438 0.08655811 -0.9849013 -0.1499236 255 255 255 255 0.08075 0.280005
0.147186 -0.8774101 -0.388233 0.08655811 -0.9849013 -0.1499236 255 255 255 255 0.080751 0.280036
0.254048 -0.397841 -0.484457 0.8660263 -1.162589e-07 -0.4999985 255 255 255 255 0.081207 0.2801
0.508095 -0.2363945 -0.04443305 0.8660263 -1.162589e-07 -0.4999985 255 255 255 255 0.081418 0.279672
0.508095 -0.397841 -0.044433 0.8660263 -1.162589e-07 -0.4999985 255 255 255 255 0.081415 0.279712
0.254048 -0.397841 -0.484457 4.692392e-07 1.476765e-06 -1 255 255 255 255 0.081207 0.2801
-0.254048 -0.2363945 -0.484457 4.692392e-07 1.476765e-06 -1 255 255 255 255 0.080695 0.280094
0.254048 -0.2363945 -0.484457 0 0 -1 255 255 255 255 0.081209 0.280061
-0.508095 -0.397841 -0.04443305 -0.8660263 6.818441e-07 -0.4999984 255 255 255 255 0.080421 0.279775
-0.254048 -0.2363945 -0.484457 -0.8660263 6.818441e-07 -0.4999984 255 255 255 255 0.080695 0.280094
-0.254048 -0.397841 -0.4844575 -0.8660265 1.511364e-06 -0.4999982 255 255 255 255 0.080697 0.280133
0.254048 -0.397841 -0.484457 0 -1 0 255 255 255 255 0.081207 0.2801
-0.508095 -0.397841 -0.04443305 0 -1 0 255 255 255 255 0.080421 0.279775
-0.254048 -0.397841 -0.4844575 0 -1 0 255 255 255 255 0.080697 0.280133
-0.508095 -0.2363945 -0.0444331 0 1 0 255 255 255 255 0.080418 0.279735
0.254048 -0.2363945 -0.484457 0 1 0 255 255 255 255 0.081209 0.280061
-0.254048 -0.2363945 -0.484457 0 1 0 255 255 255 255 0.080695 0.280094
0.508095 -0.397841 -0.044433 -4.839039e-08 3.045828e-07 1 255 255 255 255 0.081415 0.279712
-0.508095 -0.2363945 -0.0444331 -4.839039e-08 3.045828e-07 1 255 255 255 255 0.080418 0.279735
-0.508095 -0.397841 -0.04443305 -4.985677e-08 2.953531e-07 1 255 255 255 255 0.080421 0.279775
0.376901 0.0417525 -0.697245 0.8660266 0 -0.4999979 255 255 255 255 0.081213 0.280069
-0.376901 0.0417525 -0.697245 0 0 -1 255 255 255 255 0.080693 0.280102
-0.7538 -0.0417526 -0.0444331 -0.8660266 -3.033568e-07 -0.4999979 255 255 255 255 0.080421 0.279781
-0.7538 0.0417526 -0.04443315 -0.8660266 -3.033568e-07 -0.4999979 255 255 255 255 0.080418 0.279749
-0.376901 0.0417525 -0.697245 -0.8660266 -3.033568e-07 -0.4999979 255 255 255 255 0.080693 0.280102
0.7538 0.0417526 -0.04443305 0 1 -1.552176e-07 255 255 255 255 0.081418 0.279688
-0.7538 -0.0417526 -0.0444331 4.131336e-14 -1 1.506524e-07 255 255 255 255 0.080421 0.279781
-0.284525 0.0417525 -0.537245 0.8660254 0 0.4999999 255 255 255 255 0.08075 0.280005
0.284525 0.0417525 -0.537245 0 0 1 255 255 255 255 0.081139 0.279981
0.56905 0.0417526 -0.04443305 -0.8660255 0 0.4999999 255 255 255 255 0.081296 0.279695
0.802195 1e-07 -0.0888665 0.9623033 0.2719787 -1.530266e-07 255 255 255 255 0.081418 0.279688
0.56377 -0.843585 1.5e-07 0.9623033 -0.2719786 0 255 255 255 255 0.081211 0.2801
0.56377 -0.843585 -0.088866 0.9623033 -0.2719786 0 255 255 255 255 0.081213 0.280069
0.802195 1e-07 -0.0888665 0.9623033 -0.2719786 0 255 255 255 255 0.081418 0.279688
-0.802195 0 0 -0.9623033 -0.2719786 0 255 255 255 255 0.080421 0.279781
-0.802195 0 -0.0888665 -0.9623033 -0.2719786 0 255 255 255 255 0.080418 0.279749
-0.56377 -0.843585 -0.088866 -0.9623033 -0.2719786 0 255 255 255 255 0.080693 0.280102
-0.56377 0.843585 -1.5e-07 -0.9623033 0.2719786 0 255 255 255 255 0.080649 0.279425
-0.56377 0.843585 -0.0888665 -0.9623033 0.2719786 0 255 255 255 255 0.080647 0.279392
-0.802195 0 -0.0888665 -0.9623033 0.2719786 0 255 255 255 255 0.080418 0.279749
0.3713325 0.8774101 -0.0888665 0 0 -1 255 255 255 255 0.081079 0.279448
0.3713325 -0.8774101 1.5e-07 -3.056165e-08 1.738716e-07 1 255 255 255 255 0.081137 0.280012
-0.3713325 -0.8774101 -0.088866 -1.020106e-07 -5.803589e-07 -1 255 255 255 255 0.08075 0.280005
-0.3713325 0.8774101 -1.5e-07 -3.056165e-08 1.738716e-07 1 255 255 255 255 0.080714 0.279503
-0.454988 0 -0.0888665 0.9954855 -0.09491325 0 255 255 255 255 0.080541 0.279741
-0.3713325 -0.8774101 -0.088866 0.9954855 0.09491325 0 255 255 255 255 0.08075 0.280005
0.454988 1e-07 -0.0888665 -0.9954855 0.09491324 0 255 255 255 255 0.081296 0.279695
0.3713325 0.8774101 -0.0888665 -0.9954855 -0.09491327 0 255 255 255 255 0.081079 0.279448
-0.3713325 0.8774101 -1.5e-07 -0.1731175 0.9849012 0 255 255 255 255 0.080714 0.279503
0.56377 0.843585 -1.5e-07 0.1731175 0.9849012 0 255 255 255 255 0.081128 0.279397
0.56377 0.843585 -0.0888665 0.1731175 0.9849012 0 255 255 255 255 0.081129 0.279364
0.3713325 0.8774101 -0.0888665 0.1731175 0.9849012 0 255 255 255 255 0.081079 0.279448
0.3713325 -0.8774101 1.5e-07 0.1731175 -0.9849012 0 255 255 255 255 0.081137 0.280012
-0.3713325 -0.8774101 -0.088866 -0.1731175 -0.9849012 0 255 255 255 255 0.08075 0.280005
0.56796 -0.791755 -0.0444329 0.8660248 0 -0.5000012 255 255 255 255 0.081415 0.279712
0.2839795 -0.791755 -0.5363 0.8660248 0 -0.5000012 255 255 255 255 0.081207 0.2801
0.2839795 -0.70825 -0.5363 0.8660248 0 -0.5000012 255 255 255 255 0.081209 0.280061
-0.2839795 -0.791755 -0.5363 0 0 -1 255 255 255 255 0.080697 0.280133
-0.2839795 -0.70825 -0.5363 0 0 -1 255 255 255 255 0.080695 0.280094
0.2839795 -0.70825 -0.5363 0 0 -1 255 255 255 255 0.081209 0.280061
-0.2839795 -0.791755 -0.5363 -0.8660247 -8.042741e-07 -0.5000012 255 255 255 255 0.080697 0.280133
-0.56796 -0.791755 -0.04443295 -0.8660247 -8.042741e-07 -0.5000012 255 255 255 255 0.080421 0.279775
-0.56796 -0.708245 -0.04443305 -0.8660247 -8.042741e-07 -0.5000012 255 255 255 255 0.080418 0.279735
0.56796 -0.708245 -0.04443295 0 1 -1.017915e-05 255 255 255 255 0.081418 0.279672
-0.4287555 -0.791755 -0.044433 0 -1 0 255 255 255 255 0.080544 0.279767
-0.214378 -0.70825 -0.4157465 0.8660258 0 0.4999993 255 255 255 255 0.080751 0.279996
0.214378 -0.70825 -0.4157465 0 0 1 255 255 255 255 0.081137 0.279972
0.4287555 -0.791755 -0.0444329 -0.8660259 3.033401e-07 0.4999992 255 255 255 255 0.081294 0.27972
0.4287555 -0.708245 -0.04443295 -0.8660259 3.033401e-07 0.4999992 255 255 255 255 0.081296 0.27968
0.214378 -0.70825 -0.4157465 -0.8660259 3.033401e-07 0.4999992 255 255 255 255 0.081137 0.279972
-0.4395785 -1e-07 -0.71694 -0.4811259 -0.2719773 -0.8333944 255 255 255 255 0.080421 0.279781
-0.362618 -1e-07 -0.76137 -0.4811259 -0.2719773 -0.8333944 255 255 255 255 0.080418 0.279749
-0.2434045 -0.843585 -0.55489 -0.4811259 -0.2719773 -0.8333944 255 255 255 255 0.080693 0.280102
-0.4395785 -1e-07 -0.71694 -0.4811687 0.2719819 -0.8333682 255 255 255 255 0.080421 0.279781
-0.320365 0.843585 -0.510455 -0.4811687 0.2719819 -0.8333682 255 255 255 255 0.080649 0.279425
-0.243405 0.843585 -0.55489 -0.4811687 0.2719819 -0.8333682 255 255 255 255 0.080647 0.279392
-0.147186 -0.8774101 -0.388233 0.8660276 5.439239e-07 -0.4999962 255 255 255 255 0.08075 0.280005
-0.2241465 0.8774101 -0.3438005 -0.8660244 2.04647e-07 0.5000019 255 255 255 255 0.080714 0.279503
-0.189014 -1e-07 -0.460681 0.4977416 -0.09491311 0.8621165 255 255 255 255 0.080541 0.279741
-0.147186 -0.8774101 -0.388233 0.4977413 0.09491363 0.8621166 255 255 255 255 0.08075 0.280005
-0.2241465 0.8774101 -0.3438005 -0.08655904 0.984901 -0.1499252 255 255 255 255 0.080714 0.279503
-0.147186 -0.8774101 -0.388233 -0.08655811 -0.9849013 -0.1499236 255 255 255 255 0.08075 0.280005
0.56796 0.708245 -0.04443315 0.8660247 0 -0.5000014 255 255 255 255 0.081414 0.279737
0.2839795 0.708245 -0.5363 0.8660247 0 -0.5000014 255 255 255 255 0.081208 0.280101
0.2839795 0.79175 -0.5363 0.8660247 0 -0.5000014 255 255 255 255 0.08121 0.280057
-0.2839795 0.708245 -0.5363 0 0 -1 255 255 255 255 0.080696 0.280133
-0.2839795 0.79175 -0.5363 0 0 -1 255 255 255 255 0.080694 0.280089
0.2839795 0.79175 -0.5363 0 0 -1 255 255 255 255 0.08121 0.280057
-0.2839795 0.708245 -0.5363 -0.8660246 -6.032059e-07 -0.5000015 255 255 255 255 0.080696 0.280133
-0.56796 0.708245 -0.0444332 -0.8660246 -6.032059e-07 -0.5000015 255 255 255 255 0.080422 0.279795
-0.56796 0.791755 -0.0444333 -0.8660246 -6.032059e-07 -0.5000015 255 255 255 255 0.080418 0.27975
0.56796 0.791755 -0.0444332 0 1 -1.017916e-05 255 255 255 255 0.081418 0.279691
-0.4287555 0.708245 -0.04443325 0 -1 0 255 255 255 255 0.080544 0.279788
-0.214378 0.791755 -0.4157465 0.8660257 0 0.4999996 255 255 255 255 0.080751 0.279996
0.214378 0.791755 -0.4157465 0 0 1 255 255 255 255 0.081137 0.279973
0.4287555 0.791755 -0.0444332 -0.8660257 3.033402e-07 0.4999995 255 255 255 255 0.081296 0.279699
0.362618 -1e-07 -0.76137 0.4811253 -0.271982 -0.8333933 255 255 255 255 0.080421 0.279781
0.4395785 -1e-07 -0.71694 0.4811253 -0.271982 -0.8333933 255 255 255 255 0.080418 0.279749
0.320365 -0.843585 -0.510455 0.4811253 -0.271982 -0.8333933 255 255 255 255 0.080693 0.280102
0.362618 -1e-07 -0.76137 0.4811672 0.2719769 -0.8333707 255 255 255 255 0.080421 0.279781
0.243405 0.843585 -0.55489 0.4811672 0.2719769 -0.8333707 255 255 255 255 0.080649 0.279425
0.3203655 0.843585 -0.510455 0.4811672 0.2719769 -0.8333707 255 255 255 255 0.080647 0.279392
0.2241465 -0.8774101 -0.3438 0.866025 -3.949319e-08 0.5000008 255 255 255 255 0.08075 0.280005
0.147186 0.8774101 -0.3882335 -0.8660259 -4.900704e-07 -0.4999992 255 255 255 255 0.080714 0.279503
0.189014 -1e-07 -0.460681 -0.4977416 -0.09491311 0.8621165 255 255 255 255 0.080544 0.279773
0.2241465 -0.8774101 -0.3438 -0.4977413 0.0949136 0.8621166 255 255 255 255 0.08075 0.280005
0.147186 0.8774101 -0.3882335 0.08655814 0.9849013 -0.1499237 255 255 255 255 0.080714 0.279503
0.2434045 -0.843585 -0.55489 0.08656183 -0.9849011 -0.1499232 255 255 255 255 0.080695 0.280133
0.320365 -0.843585 -0.510455 0.08656183 -0.9849011 -0.1499232 255 255 255 255 0.080693 0.280102
0.2241465 -0.8774101 -0.3438 0.08656183 -0.9849011 -0.1499232 255 255 255 255 0.08075 0.280005
0.254048 -0.397841 -0.484457 0.8660263 0 -0.4999986 255 255 255 255 0.081207 0.2801
0.254048 -0.2363945 -0.484457 0.8660263 0 -0.4999986 255 255 255 255 0.081209 0.280061
0.508095 -0.2363945 -0.04443305 0.8660263 0 -0.4999986 255 255 255 255 0.081418 0.279672
-0.254048 -0.397841 -0.4844575 9.384785e-07 2.953531e-06 -1 255 255 255 255 0.080697 0.280133
-0.508095 -0.2363945 -0.0444331 -0.8660262 -1.476761e-07 -0.4999986 255 255 255 255 0.080418 0.279735
0.508095 -0.397841 -0.044433 0 -1 0 255 255 255 255 0.081415 0.279712
0.508095 -0.2363945 -0.04443305 0 1 0 255 255 255 255 0.081418 0.279672
0.508095 -0.2363945 -0.04443305 -4.692401e-08 3.138126e-07 1 255 255 255 255 0.081418 0.279672
3 0 1 2 
3 3 4 5 
3 6 7 8 
3 9 10 11 
3 12 13 14 
3 15 16 9 
3 14 17 18 
3 19 20 15 
3 18 21 22 
3 23 24 25 
3 26 27 28 
3 29 30 31 
3 32 33 34 
3 35 36 37 
3 38 39 40 
3 41 42 43 
3 44 45 46 
3 47 48 49 
3 44 50 51 
3 47 52 53 
3 54 55 56 
3 57 58 59 
3 54 60 61 
3 57 62 63 
3 64 65 66 
3 67 68 69 
3 70 71 72 
3 73 74 75 
3 76 77 78 
3 79 80 81 
3 82 83 84 
3 85 86 87 
3 88 89 90 
3 91 92 93 
3 94 95 96 
3 97 98 99 
3 100 101 102 
3 103 104 97 
3 102 105 106 
3 103 107 108 
3 106 109 110 
3 111 112 113 
3 114 115 116 
3 117 118 119 
3 120 121 122 
3 123 124 125 
3 126 127 128 
3 129 130 131 
3 126 132 133 
3 129 134 135 
3 136 137 138 
3 139 140 141 
3 142 143 144 
3 145 146 147 
3 148 149 150 
3 151 152 153 
3 154 155 156 
3 157 158 159 
3 160 161 162 
3 163 164 157 
3 162 165 166 
3 163 167 168 
3 166 169 170 
3 171 172 173 
3 174 175 176 
3 177 178 179 
3 180 181 182 
3 183 184 185 
3 186 187 188 
3 189 190 191 
3 186 192 193 
3 189 194 195 
3 196 197 198 
3 199 200 201 
3 202 203 204 
3 205 206 207 
3 208 209 210 
3 211 212 213 
3 214 215 216 
3 217 218 219 
3 220 221 222 
3 223 224 225 
3 0 226 1 
3 3 227 4 
3 228 229 230 
3 9 16 10 
3 12 231 13 
3 15 20 16 
3 14 13 17 
3 19 232 20 
3 18 17 21 
3 23 233 24 
3 26 234 27 
3 29 235 30 
3 32 236 33 
3 237 238 239 
3 240 241 242 
3 243 244 245 
3 44 51 45 
3 47 246 48 
3 44 247 50 
3 47 49 52 
3 54 61 55 
3 57 248 58 
3 54 249 60 
3 57 59 62 
3 64 250 65 
3 67 251 68 
3 70 252 71 
3 73 253 74 
3 76 254 77 
3 255 256 257 
3 82 258 83 
3 85 259 86 
3 260 261 262 
3 263 264 265 
3 266 267 268 
3 97 104 98 
3 100 269 101 
3 103 108 104 
3 102 101 105 
3 103 270 107 
3 106 105 109 
3 111 271 112 
3 114 272 115 
3 273 274 275 
3 276 277 278 
3 279 280 281 
3 126 133 127 
3 129 282 130 
3 126 283 132 
3 129 131 134 
3 136 284 137 
3 139 285 140 
3 142 286 143 
3 145 287 146 
3 288 289 290 
3 291 292 293 
3 294 295 296 
3 157 164 158 
3 160 297 161 
3 163 168 164 
3 162 161 165 
3 163 298 167 
3 166 165 169 
3 171 299 172 
3 174 300 175 
3 177 301 178 
3 302 303 304 
3 305 306 307 
3 186 193 187 
3 189 308 190 
3 186 309 192 
3 189 191 194 
3 196 310 197 
3 199 311 200 
3 202 312 203 
3 313 314 315 
3 316 317 318 
3 211 319 212 
3 214 320 215 
3 217 321 218 
3 220 322 221 
3 223 323 224 
